SplineFontDB: 3.0
FontName: Coda-Heavy
FullName: Coda-Heavy
FamilyName: Coda
Weight: Black
Copyright: Copyright (c) 2009 by vernon adams. All rights reserved.
Version: 1.000;PS 001.001;hotconv 1.0.56
ItalicAngle: 0
UnderlinePosition: -103
UnderlineWidth: 102
Ascent: 1638
Descent: 410
sfntRevision: 0x00010000
LayerCount: 2
Layer: 0 1 "Back"  1
Layer: 1 1 "Fore"  0
XUID: [1021 14 500265001 14100583]
FSType: 256
OS2Version: 3
OS2_WeightWidthSlopeOnly: 0
OS2_UseTypoMetrics: 1
CreationTime: 1313076410
ModificationTime: 1313147693
PfmFamily: 17
TTFWeight: 900
TTFWidth: 1
LineGap: 0
VLineGap: 0
Panose: 2 0 5 5 2 0 0 2 0 4
OS2TypoAscent: 437
OS2TypoAOffset: 1
OS2TypoDescent: -328
OS2TypoDOffset: 1
OS2TypoLinegap: 0
OS2WinAscent: -300
OS2WinAOffset: 1
OS2WinDescent: 0
OS2WinDOffset: 1
HheadAscent: -300
HheadAOffset: 1
HheadDescent: 0
HheadDOffset: 1
OS2SubXSize: 1331
OS2SubYSize: 1228
OS2SubXOff: 0
OS2SubYOff: 153
OS2SupXSize: 1331
OS2SupYSize: 1228
OS2SupXOff: 0
OS2SupYOff: 716
OS2StrikeYSize: 102
OS2StrikeYPos: 780
OS2Vendor: 'newt'
OS2CodePages: 00000001.00000000
OS2UnicodeRanges: 00000007.00000000.00000000.00000000
Lookup: 258 0 0 "'kern' Horizontal Kerning lookup 0"  {"'kern' Horizontal Kerning lookup 0 subtable"  } ['kern' ('DFLT' <'dflt' > ) ]
MarkAttachClasses: 1
DEI: 91125
KernClass2: 2+ 3 "'kern' Horizontal Kerning lookup 0 subtable" 
 1 A
 1 T
 1 T
 11 a c d e o q
 0 {} -107 {} -17 {} 0 {} 0 {} -102 {}
TtTable: prep
PUSHW_2
 2048
 2048
MUL
DUP
PUSHB_1
 10
SWAP
WS
DUP
PUSHB_1
 0
SWAP
WCVTF
PUSHB_1
 16
RCVT
DUP
DUP
PUSHB_1
 40
ADD
FLOOR
DUP
ROLL
NEQ
IF
PUSHB_1
 10
RS
MUL
SWAP
DIV
PUSHB_1
 9
SWAP
WS
PUSHB_4
 5
 6
 3
 2
CALL
PUSHB_4
 7
 12
 3
 2
CALL
PUSHB_4
 13
 18
 3
 2
CALL
ELSE
PUSHB_2
 9
 10
RS
WS
EIF
PUSHB_3
 11
 40
 2
RCVT
GT
WS
PUSHB_4
 7
 12
 4
 2
CALL
EndTTInstrs
TtTable: fpgm
PUSHB_1
 0
FDEF
DUP
ABS
PUSHB_1
 32
ADD
FLOOR
SWAP
PUSHB_1
 0
LT
IF
NEG
EIF
ENDF
PUSHB_1
 1
FDEF
DUP
ABS
DUP
PUSHB_1
 192
LT
PUSHB_1
 4
MINDEX
AND
PUSHB_1
 11
RS
OR
IF
POP
SWAP
POP

StartChar: exclam
Encoding: 33 33 4
Width: 722
GlyphClass: 2
Flags: W
LayerCount: 2
Fore
SplineSet
314 607 m 0,0,1
 292 701 292 701 239 888.5 c 128,-1,2
 186 1076 186 1076 154 1210.5 c 128,-1,3
 122 1345 122 1345 122 1413 c 0,4,5
 122 1517 122 1517 196 1574 c 128,-1,6
 270 1631 270 1631 373 1631 c 0,7,8
 478 1631 478 1631 555.5 1572.5 c 128,-1,9
 633 1514 633 1514 633 1411 c 0,10,11
 633 1341 633 1341 599 1205 c 128,-1,12
 565 1069 565 1069 511 885.5 c 128,-1,13
 457 702 457 702 435 607 c 0,14,15
 427 574 427 574 410.5 556.5 c 128,-1,16
 394 539 394 539 375 539 c 0,17,18
 355 539 355 539 338.5 556.5 c 128,-1,19
 322 574 322 574 314 607 c 0,0,1
171 171 m 128,-1,21
 171 270 171 270 231.5 325.5 c 128,-1,22
 292 381 292 381 375 381 c 128,-1,23
 458 381 458 381 518.5 325.5 c 128,-1,24
 579 270 579 270 579 171 c 128,-1,25
 579 72 579 72 518.5 16.5 c 128,-1,26
 458 -39 458 -39 375 -39 c 128,-1,27
 292 -39 292 -39 231.5 16.5 c 128,-1,20
 171 72 171 72 171 171 c 128,-1,21
EndSplineSet
EndChar

StartChar: quotedbl
Encoding: 34 34 5
Width: 1213
GlyphClass: 2
Flags: W
LayerCount: 2
Fore
SplineSet
280 896 m 1,0,1
 264 964 264 964 227.5 1093.5 c 128,-1,2
 191 1223 191 1223 169 1315.5 c 128,-1,3
 147 1408 147 1408 147 1454 c 0,4,5
 147 1538 147 1538 202 1583.5 c 128,-1,6
 257 1629 257 1629 333 1629 c 0,7,8
 411 1629 411 1629 469.5 1581.5 c 128,-1,9
 528 1534 528 1534 528 1452 c 0,10,11
 528 1404 528 1404 504.5 1311 c 128,-1,12
 481 1218 481 1218 443.5 1091 c 128,-1,13
 406 964 406 964 390 896 c 0,14,15
 384 868 384 868 368 852.5 c 128,-1,16
 352 837 352 837 335 837 c 128,-1,17
 318 837 318 837 303 852 c 128,-1,18
 288 867 288 867 280 896 c 1,0,1
777 896 m 1,19,20
 761 964 761 964 724.5 1093.5 c 128,-1,21
 688 1223 688 1223 666 1315.5 c 128,-1,22
 644 1408 644 1408 644 1454 c 0,23,24
 644 1538 644 1538 699 1583.5 c 128,-1,25
 754 1629 754 1629 830 1629 c 0,26,27
 908 1629 908 1629 966.5 1581.5 c 128,-1,28
 1025 1534 1025 1534 1025 1452 c 0,29,30
 1025 1404 1025 1404 1001.5 1311 c 128,-1,31
 978 1218 978 1218 940.5 1091 c 128,-1,32
 903 964 903 964 887 896 c 0,33,34
 881 868 881 868 865.5 852.5 c 128,-1,35
 850 837 850 837 832 837 c 0,36,37
 815 837 815 837 800 852 c 128,-1,38
 785 867 785 867 777 896 c 1,19,20
EndSplineSet
EndChar

StartChar: numbersign
Encoding: 35 35 6
Width: 1718
GlyphClass: 2
Flags: W
LayerCount: 2
Fore
SplineSet
1567 430 m 1,0,-1
 1402 430 l 1,1,-1
 1342 0 l 1,2,-1
 841 0 l 1,3,-1
 902 429 l 1,4,-1
 705 429 l 1,5,-1
 645 0 l 1,6,-1
 143 0 l 1,7,-1
 204 429 l 1,8,-1
 70 429 l 1,9,-1
 96 621 l 1,10,-1
 234 621 l 1,11,-1
 285 993 l 1,12,-1
 137 993 l 1,13,-1
 166 1200 l 1,14,-1
 319 1200 l 1,15,-1
 373 1595 l 1,16,-1
 872 1595 l 1,17,-1
 819 1200 l 1,18,-1
 1016 1200 l 1,19,-1
 1071 1595 l 1,20,-1
 1569 1595 l 1,21,-1
 1516 1200 l 1,22,-1
 1664 1200 l 1,23,-1
 1634 994 l 1,24,-1
 1483 994 l 1,25,-1
 1431 621 l 1,26,-1
 1594 621 l 1,27,-1
 1567 430 l 1,0,-1
734 621 m 1,28,-1
 931 621 l 1,29,-1
 983 993 l 1,30,-1
 786 993 l 1,31,-1
 734 621 l 1,28,-1
EndSplineSet
EndChar

StartChar: dollar
Encoding: 36 36 7
Width: 1434
GlyphClass: 2
Flags: W
LayerCount: 2
Fore
SplineSet
685 -168 m 1,0,-1
 685 22 l 1,1,2
 435 24 435 24 301 71 c 0,3,4
 186 112 186 112 139 206.5 c 128,-1,5
 92 301 92 301 101 482 c 1,6,-1
 600 450 l 1,7,-1
 600 283 l 1,8,-1
 685 283 l 1,9,-1
 685 586 l 1,10,11
 626 597 626 597 586 605 c 128,-1,12
 546 613 546 613 490 627 c 128,-1,13
 434 641 434 641 395 655.5 c 128,-1,14
 356 670 356 670 308.5 692.5 c 128,-1,15
 261 715 261 715 229 740 c 128,-1,16
 197 765 197 765 164.5 800 c 128,-1,17
 132 835 132 835 113 875 c 128,-1,18
 94 915 94 915 82 967.5 c 128,-1,19
 70 1020 70 1020 70 1080 c 0,20,21
 70 1192 70 1192 101.5 1274.5 c 128,-1,22
 133 1357 133 1357 185.5 1407 c 128,-1,23
 238 1457 238 1457 319.5 1488 c 128,-1,24
 401 1519 401 1519 486.5 1530.5 c 128,-1,25
 572 1542 572 1542 685 1544 c 1,26,-1
 685 1730 l 1,27,-1
 764 1730 l 1,28,-1
 764 1545 l 1,29,30
 1007 1543 1007 1543 1145 1500 c 1,31,32
 1217 1476 1217 1476 1262 1435.5 c 128,-1,33
 1307 1395 1307 1395 1324.5 1343 c 128,-1,34
 1342 1291 1342 1291 1347.5 1226.5 c 128,-1,35
 1353 1162 1353 1162 1346 1092 c 1,36,-1
 847 1122 l 1,37,-1
 847 1283 l 1,38,-1
 764 1283 l 1,39,-1
 764 997 l 1,40,41
 843 982 843 982 889 971.5 c 128,-1,42
 935 961 935 961 1008.5 940 c 128,-1,43
 1082 919 1082 919 1126.5 896.5 c 128,-1,44
 1171 874 1171 874 1224.5 837 c 128,-1,45
 1278 800 1278 800 1307.5 755.5 c 128,-1,46
 1337 711 1337 711 1357.5 648.5 c 128,-1,47
 1378 586 1378 586 1378 510 c 0,48,49
 1378 395 1378 395 1350 311 c 128,-1,50
 1322 227 1322 227 1273 173 c 128,-1,51
 1224 119 1224 119 1145 86 c 128,-1,52
 1066 53 1066 53 975.5 39 c 128,-1,53
 885 25 885 25 764 23 c 1,54,-1
 764 -168 l 1,55,-1
 685 -168 l 1,0,-1
847 556 m 1,56,-1
 764 572 l 1,57,-1
 764 283 l 1,58,-1
 847 283 l 1,59,-1
 847 556 l 1,56,-1
600 1031 m 1,60,61
 603 1030 603 1030 635 1023 c 128,-1,62
 667 1016 667 1016 685 1012 c 1,63,-1
 685 1283 l 1,64,-1
 600 1283 l 1,65,-1
 600 1031 l 1,60,61
EndSplineSet
EndChar

StartChar: percent
Encoding: 37 37 8
Width: 2792
GlyphClass: 2
Flags: W
LayerCount: 2
Fore
SplineSet
623 1378 m 1,0,-1
 532 1378 l 1,1,-1
 532 833 l 1,2,-1
 623 833 l 1,3,-1
 623 1378 l 1,0,-1
575 618 m 0,4,5
 528 618 528 618 499.5 618.5 c 128,-1,6
 471 619 471 619 427.5 622 c 128,-1,7
 384 625 384 625 357 630.5 c 128,-1,8
 330 636 330 636 294.5 647 c 128,-1,9
 259 658 259 658 237.5 673 c 128,-1,10
 216 688 216 688 192 711.5 c 128,-1,11
 168 735 168 735 155 765 c 128,-1,12
 142 795 142 795 133.5 836 c 128,-1,13
 125 877 125 877 125 927 c 2,14,-1
 125 1286 l 2,15,16
 125 1339 125 1339 134.5 1382.5 c 128,-1,17
 144 1426 144 1426 164 1457 c 128,-1,18
 184 1488 184 1488 208 1511.5 c 128,-1,19
 232 1535 232 1535 267 1549.5 c 128,-1,20
 302 1564 302 1564 334 1573.5 c 128,-1,21
 366 1583 366 1583 410.5 1587.5 c 128,-1,22
 455 1592 455 1592 490.5 1593.5 c 128,-1,23
 526 1595 526 1595 574 1595 c 128,-1,24
 622 1595 622 1595 657 1593.5 c 128,-1,25
 692 1592 692 1592 737 1588 c 128,-1,26
 782 1584 782 1584 814.5 1574.5 c 128,-1,27
 847 1565 847 1565 882 1550.5 c 128,-1,28
 917 1536 917 1536 941 1512.5 c 128,-1,29
 965 1489 965 1489 985 1458.5 c 128,-1,30
 1005 1428 1005 1428 1015 1384.5 c 128,-1,31
 1025 1341 1025 1341 1025 1288 c 2,32,-1
 1025 929 l 2,33,34
 1025 867 1025 867 1011 818 c 128,-1,35
 997 769 997 769 975.5 736.5 c 128,-1,36
 954 704 954 704 917 681 c 128,-1,37
 880 658 880 658 846.5 646 c 128,-1,38
 813 634 813 634 761 627.5 c 128,-1,39
 709 621 709 621 671 619.5 c 128,-1,40
 633 618 633 618 575 618 c 0,4,5
2262 892 m 1,41,-1
 2172 892 l 1,42,-1
 2172 347 l 1,43,-1
 2262 347 l 1,44,-1
 2262 892 l 1,41,-1
2215 129 m 0,45,46
 2158 129 2158 129 2118.5 130.5 c 128,-1,47
 2079 132 2079 132 2028 139 c 128,-1,48
 1977 146 1977 146 1942.5 158.5 c 128,-1,49
 1908 171 1908 171 1872 194.5 c 128,-1,50
 1836 218 1836 218 1814.5 250 c 128,-1,51
 1793 282 1793 282 1779 330.5 c 128,-1,52
 1765 379 1765 379 1765 441 c 2,53,-1
 1765 798 l 2,54,55
 1765 859 1765 859 1779 907.5 c 128,-1,56
 1793 956 1793 956 1814.5 988 c 128,-1,57
 1836 1020 1836 1020 1872 1043 c 128,-1,58
 1908 1066 1908 1066 1942.5 1078.5 c 128,-1,59
 1977 1091 1977 1091 2027.5 1098 c 128,-1,60
 2078 1105 2078 1105 2118 1107 c 128,-1,61
 2158 1109 2158 1109 2214 1109 c 128,-1,62
 2270 1109 2270 1109 2309.5 1107.5 c 128,-1,63
 2349 1106 2349 1106 2400 1099 c 128,-1,64
 2451 1092 2451 1092 2486 1079.5 c 128,-1,65
 2521 1067 2521 1067 2557 1044 c 128,-1,66
 2593 1021 2593 1021 2615 988.5 c 128,-1,67
 2637 956 2637 956 2651 908 c 128,-1,68
 2665 860 2665 860 2665 799 c 2,69,-1
 2665 442 l 2,70,71
 2665 382 2665 382 2651 334 c 128,-1,72
 2637 286 2637 286 2615 253.5 c 128,-1,73
 2593 221 2593 221 2557 197.5 c 128,-1,74
 2521 174 2521 174 2485.5 161 c 128,-1,75
 2450 148 2450 148 2400.5 140.5 c 128,-1,76
 2351 133 2351 133 2310 131 c 128,-1,77
 2269 129 2269 129 2215 129 c 0,45,46
1779 1632 m 1,78,-1
 1403 -39 l 1,79,-1
 1015 -39 l 1,80,-1
 1395 1632 l 1,81,-1
 1779 1632 l 1,78,-1
EndSplineSet
EndChar

StartChar: ampersand
Encoding: 38 38 9
Width: 1653
GlyphClass: 2
Flags: W
LayerCount: 2
Fore
SplineSet
896 224 m 1,0,-1
 896 736 l 1,1,-1
 687 736 l 1,2,-1
 687 224 l 1,3,-1
 896 224 l 1,0,-1
359 861 m 1,4,-1
 247 873 l 2,5,6
 219 876 219 876 192.5 894 c 128,-1,7
 166 912 166 912 140.5 947.5 c 128,-1,8
 115 983 115 983 99.5 1048 c 128,-1,9
 84 1113 84 1113 84 1198 c 0,10,11
 84 1281 84 1281 106.5 1347 c 128,-1,12
 129 1413 129 1413 165 1457.5 c 128,-1,13
 201 1502 201 1502 258 1535 c 128,-1,14
 315 1568 315 1568 373 1586 c 128,-1,15
 431 1604 431 1604 509.5 1615 c 128,-1,16
 588 1626 588 1626 654 1629 c 128,-1,17
 720 1632 720 1632 806 1632 c 0,18,19
 1125 1632 1125 1632 1283.5 1539 c 128,-1,20
 1442 1446 1442 1446 1442 1238 c 0,21,22
 1442 1209 1442 1209 1438 1184 c 1,23,-1
 893 1184 l 1,24,-1
 893 1392 l 1,25,-1
 687 1392 l 1,26,-1
 687 929 l 1,27,-1
 896 929 l 1,28,-1
 896 1068 l 1,29,-1
 1442 1068 l 1,30,-1
 1442 929 l 1,31,-1
 1593 929 l 1,32,-1
 1593 736 l 1,33,-1
 1442 736 l 1,34,-1
 1442 513 l 2,35,36
 1442 400 1442 400 1430 319.5 c 128,-1,37
 1418 239 1418 239 1387.5 175 c 128,-1,38
 1357 111 1357 111 1309 72 c 128,-1,39
 1261 33 1261 33 1183.5 6.5 c 128,-1,40
 1106 -20 1106 -20 1006 -30 c 128,-1,41
 906 -40 906 -40 766 -40 c 0,42,43
 671 -40 671 -40 600 -35.5 c 128,-1,44
 529 -31 529 -31 454.5 -18.5 c 128,-1,45
 380 -6 380 -6 327 16.5 c 128,-1,46
 274 39 274 39 226 76 c 128,-1,47
 178 113 178 113 148.5 165 c 128,-1,48
 119 217 119 217 102 290 c 128,-1,49
 85 363 85 363 85 456 c 0,50,51
 85 503 85 503 93.5 557.5 c 128,-1,52
 102 612 102 612 120 668.5 c 128,-1,53
 138 725 138 725 171 764.5 c 128,-1,54
 204 804 204 804 247 809 c 2,55,-1
 359 822 l 1,56,-1
 359 861 l 1,4,-1
EndSplineSet
EndChar

StartChar: quotesingle
Encoding: 39 39 10
Width: 629
GlyphClass: 2
Flags: W
LayerCount: 2
Fore
SplineSet
280 896 m 1,0,1
 264 964 264 964 227.5 1093.5 c 128,-1,2
 191 1223 191 1223 169 1315.5 c 128,-1,3
 147 1408 147 1408 147 1454 c 0,4,5
 147 1538 147 1538 202 1583.5 c 128,-1,6
 257 1629 257 1629 333 1629 c 0,7,8
 411 1629 411 1629 469.5 1581.5 c 128,-1,9
 528 1534 528 1534 528 1452 c 0,10,11
 528 1404 528 1404 504.5 1311 c 128,-1,12
 481 1218 481 1218 443.5 1091 c 128,-1,13
 406 964 406 964 390 896 c 0,14,15
 384 868 384 868 368 852.5 c 128,-1,16
 352 837 352 837 335 837 c 128,-1,17
 318 837 318 837 303 852 c 128,-1,18
 288 867 288 867 280 896 c 1,0,1
EndSplineSet
EndChar

StartChar: parenleft
Encoding: 40 40 11
Width: 860
GlyphClass: 2
Flags: W
LayerCount: 2
Fore
SplineSet
51 827 m 128,-1,1
 51 980 51 980 75 1125 c 128,-1,2
 99 1270 99 1270 150 1400.5 c 128,-1,3
 201 1531 201 1531 273.5 1628.5 c 128,-1,4
 346 1726 346 1726 450 1783.5 c 128,-1,5
 554 1841 554 1841 678 1841 c 2,6,-1
 771 1841 l 1,7,-1
 771 1562 l 1,8,-1
 706 1562 l 2,9,10
 629 1562 629 1562 570 1452.5 c 128,-1,11
 511 1343 511 1343 482 1177.5 c 128,-1,12
 453 1012 453 1012 453 827 c 128,-1,13
 453 642 453 642 482 481 c 128,-1,14
 511 320 511 320 570 215 c 128,-1,15
 629 110 629 110 706 110 c 2,16,-1
 771 110 l 1,17,-1
 771 -169 l 1,18,-1
 678 -169 l 2,19,20
 554 -169 554 -169 450 -113.5 c 128,-1,21
 346 -58 346 -58 273.5 37 c 128,-1,22
 201 132 201 132 150 260 c 128,-1,23
 99 388 99 388 75 531 c 128,-1,0
 51 674 51 674 51 827 c 128,-1,1
EndSplineSet
EndChar

StartChar: parenright
Encoding: 41 41 12
Width: 861
GlyphClass: 2
Flags: W
LayerCount: 2
Fore
SplineSet
810 827 m 128,-1,1
 810 674 810 674 786 531 c 128,-1,2
 762 388 762 388 711 260 c 128,-1,3
 660 132 660 132 587.5 37 c 128,-1,4
 515 -58 515 -58 411 -113.5 c 128,-1,5
 307 -169 307 -169 183 -169 c 2,6,-1
 90 -169 l 1,7,-1
 90 110 l 1,8,-1
 155 110 l 2,9,10
 232 110 232 110 291 215 c 128,-1,11
 350 320 350 320 379 481 c 128,-1,12
 408 642 408 642 408 827 c 128,-1,13
 408 1012 408 1012 379 1177.5 c 128,-1,14
 350 1343 350 1343 291 1452.5 c 128,-1,15
 232 1562 232 1562 155 1562 c 2,16,-1
 90 1562 l 1,17,-1
 90 1841 l 1,18,-1
 183 1841 l 2,19,20
 307 1841 307 1841 411 1783.5 c 128,-1,21
 515 1726 515 1726 587.5 1628.5 c 128,-1,22
 660 1531 660 1531 711 1400.5 c 128,-1,23
 762 1270 762 1270 786 1125 c 128,-1,0
 810 980 810 980 810 827 c 128,-1,1
EndSplineSet
EndChar

StartChar: asterisk
Encoding: 42 42 13
Width: 1321
GlyphClass: 2
Flags: W
LayerCount: 2
Fore
SplineSet
775 489 m 0,0,1
 765 506 765 506 754 532.5 c 128,-1,2
 743 559 743 559 730 602 c 128,-1,3
 717 645 717 645 709 672 c 128,-1,4
 701 699 701 699 684.5 759.5 c 128,-1,5
 668 820 668 820 663 840 c 1,6,7
 654 808 654 808 642 763 c 128,-1,8
 630 718 630 718 623 690.5 c 128,-1,9
 616 663 616 663 605.5 627 c 128,-1,10
 595 591 595 591 586.5 569.5 c 128,-1,11
 578 548 578 548 567 522.5 c 128,-1,12
 556 497 556 497 544.5 482.5 c 128,-1,13
 533 468 533 468 518.5 454.5 c 128,-1,14
 504 441 504 441 487 435.5 c 128,-1,15
 470 430 470 430 450 430 c 0,16,17
 388 430 388 430 335 476.5 c 128,-1,18
 282 523 282 523 282 581 c 0,19,20
 282 594 282 594 286 607.5 c 128,-1,21
 290 621 290 621 300 637 c 128,-1,22
 310 653 310 653 319.5 667.5 c 128,-1,23
 329 682 329 682 347.5 702 c 128,-1,24
 366 722 366 722 379.5 736.5 c 128,-1,25
 393 751 393 751 418 775 c 128,-1,26
 443 799 443 799 458.5 813.5 c 128,-1,27
 474 828 474 828 504.5 856 c 128,-1,28
 535 884 535 884 551 899 c 1,29,30
 537 895 537 895 500.5 884.5 c 128,-1,31
 464 874 464 874 447.5 869.5 c 128,-1,32
 431 865 431 865 398.5 856.5 c 128,-1,33
 366 848 366 848 348.5 843.5 c 128,-1,34
 331 839 331 839 305 833 c 128,-1,35
 279 827 279 827 262.5 824 c 128,-1,36
 246 821 246 821 228.5 819 c 128,-1,37
 211 817 211 817 198 817 c 0,38,39
 138 817 138 817 105.5 859.5 c 128,-1,40
 73 902 73 902 73 962 c 0,41,42
 73 1023 73 1023 106.5 1067.5 c 128,-1,43
 140 1112 140 1112 199 1112 c 0,44,45
 219 1112 219 1112 247.5 1107.5 c 128,-1,46
 276 1103 276 1103 317.5 1092.5 c 128,-1,47
 359 1082 359 1082 387 1074 c 128,-1,48
 415 1066 415 1066 472 1049.5 c 128,-1,49
 529 1033 529 1033 551 1027 c 1,50,51
 533 1044 533 1044 503 1072.5 c 128,-1,52
 473 1101 473 1101 457 1117 c 128,-1,53
 441 1133 441 1133 416 1157 c 128,-1,54
 391 1181 391 1181 377.5 1196 c 128,-1,55
 364 1211 364 1211 346 1231 c 128,-1,56
 328 1251 328 1251 318.5 1265.5 c 128,-1,57
 309 1280 309 1280 299.5 1295.5 c 128,-1,58
 290 1311 290 1311 286 1325 c 128,-1,59
 282 1339 282 1339 282 1351 c 0,60,61
 282 1409 282 1409 334.5 1453 c 128,-1,62
 387 1497 387 1497 450 1497 c 0,63,64
 519 1497 519 1497 553 1440 c 0,65,66
 564 1422 564 1422 574.5 1395 c 128,-1,67
 585 1368 585 1368 598.5 1322 c 128,-1,68
 612 1276 612 1276 618.5 1252 c 128,-1,69
 625 1228 625 1228 642 1161.5 c 128,-1,70
 659 1095 659 1095 663 1080 c 1,71,72
 669 1104 669 1104 684.5 1162.5 c 128,-1,73
 700 1221 700 1221 708 1251 c 128,-1,74
 716 1281 716 1281 728.5 1323.5 c 128,-1,75
 741 1366 741 1366 752 1394 c 128,-1,76
 763 1422 763 1422 774 1440 c 0,77,78
 808 1497 808 1497 877 1497 c 0,79,80
 939 1497 939 1497 992 1453 c 128,-1,81
 1045 1409 1045 1409 1045 1351 c 0,82,83
 1045 1335 1045 1335 1038.5 1317.5 c 128,-1,84
 1032 1300 1032 1300 1016 1277.5 c 128,-1,85
 1000 1255 1000 1255 985.5 1237 c 128,-1,86
 971 1219 971 1219 941.5 1189.5 c 128,-1,87
 912 1160 912 1160 893 1141 c 128,-1,88
 874 1122 874 1122 835 1084.5 c 128,-1,89
 796 1047 796 1047 775 1027 c 1,90,91
 795 1033 795 1033 853.5 1050 c 128,-1,92
 912 1067 912 1067 939.5 1074 c 128,-1,93
 967 1081 967 1081 1009 1092 c 128,-1,94
 1051 1103 1051 1103 1079.5 1107.5 c 128,-1,95
 1108 1112 1108 1112 1128 1112 c 0,96,97
 1187 1112 1187 1112 1220.5 1067.5 c 128,-1,98
 1254 1023 1254 1023 1254 962 c 0,99,100
 1254 902 1254 902 1221.5 859.5 c 128,-1,101
 1189 817 1189 817 1128 817 c 0,102,103
 1108 817 1108 817 1080.5 821.5 c 128,-1,104
 1053 826 1053 826 1010.5 836 c 128,-1,105
 968 846 968 846 940.5 853.5 c 128,-1,106
 913 861 913 861 854.5 877 c 128,-1,107
 796 893 796 893 775 899 c 1,108,109
 792 883 792 883 821 856 c 128,-1,110
 850 829 850 829 866.5 813.5 c 128,-1,111
 883 798 883 798 907.5 774.5 c 128,-1,112
 932 751 932 751 946 736 c 128,-1,113
 960 721 960 721 978 701 c 128,-1,114
 996 681 996 681 1006 667 c 128,-1,115
 1016 653 1016 653 1026 637 c 128,-1,116
 1036 621 1036 621 1040 607 c 128,-1,117
 1044 593 1044 593 1044 581 c 0,118,119
 1044 522 1044 522 991.5 476 c 128,-1,120
 939 430 939 430 877 430 c 0,121,122
 810 430 810 430 775 489 c 0,0,1
EndSplineSet
EndChar

StartChar: plus
Encoding: 43 43 14
Width: 1328
GlyphClass: 2
Flags: W
LayerCount: 2
Fore
SplineSet
469 811 m 1,0,-1
 469 1192 l 1,1,-1
 861 1192 l 1,2,-1
 861 811 l 1,3,-1
 1225 811 l 1,4,-1
 1225 478 l 1,5,-1
 861 478 l 1,6,-1
 861 100 l 1,7,-1
 469 100 l 1,8,-1
 469 478 l 1,9,-1
 104 478 l 1,10,-1
 104 811 l 1,11,-1
 469 811 l 1,0,-1
EndSplineSet
EndChar

StartChar: comma
Encoding: 44 44 15
Width: 711
GlyphClass: 2
Flags: W
LayerCount: 2
Fore
SplineSet
141 209 m 0,0,1
 141 303 141 303 201.5 356 c 128,-1,2
 262 409 262 409 345 409 c 0,3,4
 448 409 448 409 501.5 341 c 128,-1,5
 555 273 555 273 555 169 c 0,6,7
 555 99 555 99 531.5 28.5 c 128,-1,8
 508 -42 508 -42 465 -101 c 128,-1,9
 422 -160 422 -160 354.5 -197 c 128,-1,10
 287 -234 287 -234 208 -234 c 0,11,12
 186 -234 186 -234 164 -231 c 1,13,-1
 164 -122 l 1,14,15
 227 -121 227 -121 271.5 -88.5 c 128,-1,16
 316 -56 316 -56 320 0 c 1,17,18
 245 8 245 8 193 62.5 c 128,-1,19
 141 117 141 117 141 209 c 0,0,1
EndSplineSet
EndChar

StartChar: hyphen
Encoding: 45 45 16
Width: 1328
GlyphClass: 2
Flags: W
LayerCount: 2
Fore
SplineSet
1165 811 m 1,0,-1
 1165 478 l 1,1,-1
 164 478 l 1,2,-1
 164 811 l 1,3,-1
 1165 811 l 1,0,-1
EndSplineSet
EndChar

StartChar: period
Encoding: 46 46 17
Width: 670
GlyphClass: 2
Flags: W
LayerCount: 2
Fore
SplineSet
136 171 m 128,-1,1
 136 270 136 270 196.5 325.5 c 128,-1,2
 257 381 257 381 340 381 c 128,-1,3
 423 381 423 381 483.5 325.5 c 128,-1,4
 544 270 544 270 544 171 c 128,-1,5
 544 72 544 72 483.5 16.5 c 128,-1,6
 423 -39 423 -39 340 -39 c 128,-1,7
 257 -39 257 -39 196.5 16.5 c 128,-1,0
 136 72 136 72 136 171 c 128,-1,1
EndSplineSet
EndChar

StartChar: slash
Encoding: 47 47 18
Width: 1056
GlyphClass: 2
Flags: W
LayerCount: 2
Fore
SplineSet
136 0 m 1,0,-1
 488 1595 l 1,1,-1
 922 1595 l 1,2,-1
 571 0 l 1,3,-1
 136 0 l 1,0,-1
EndSplineSet
EndChar

StartChar: zero
Encoding: 48 48 19
Width: 1469
GlyphClass: 2
Flags: W
LayerCount: 2
Fore
SplineSet
653 233 m 1,0,-1
 819 233 l 1,1,-1
 819 1359 l 1,2,-1
 653 1359 l 1,3,-1
 653 233 l 1,0,-1
739 -39 m 0,4,5
 679 -39 679 -39 633 -37.5 c 128,-1,6
 587 -36 587 -36 529.5 -31.5 c 128,-1,7
 472 -27 472 -27 429 -19 c 128,-1,8
 386 -11 386 -11 338 3.5 c 128,-1,9
 290 18 290 18 255.5 38 c 128,-1,10
 221 58 221 58 187.5 88 c 128,-1,11
 154 118 154 118 134 155 c 128,-1,12
 114 192 114 192 101.5 242 c 128,-1,13
 89 292 89 292 89 352 c 2,14,-1
 89 1242 l 2,15,16
 89 1302 89 1302 101.5 1352 c 128,-1,17
 114 1402 114 1402 135 1439.5 c 128,-1,18
 156 1477 156 1477 189.5 1507 c 128,-1,19
 223 1537 223 1537 257.5 1557 c 128,-1,20
 292 1577 292 1577 340.5 1591.5 c 128,-1,21
 389 1606 389 1606 432 1613.5 c 128,-1,22
 475 1621 475 1621 532 1626 c 128,-1,23
 589 1631 589 1631 634 1632 c 128,-1,24
 679 1633 679 1633 738 1633 c 0,25,26
 816 1633 816 1633 874.5 1630.5 c 128,-1,27
 933 1628 933 1628 1004 1618.5 c 128,-1,28
 1075 1609 1075 1609 1126 1593 c 128,-1,29
 1177 1577 1177 1577 1228.5 1547.5 c 128,-1,30
 1280 1518 1280 1518 1311.5 1477.5 c 128,-1,31
 1343 1437 1343 1437 1363 1377 c 128,-1,32
 1383 1317 1383 1317 1383 1242 c 2,33,-1
 1383 352 l 2,34,35
 1383 290 1383 290 1370.5 239 c 128,-1,36
 1358 188 1358 188 1338 150.5 c 128,-1,37
 1318 113 1318 113 1284.5 83 c 128,-1,38
 1251 53 1251 53 1218 33.5 c 128,-1,39
 1185 14 1185 14 1135.5 0 c 128,-1,40
 1086 -14 1086 -14 1045 -21.5 c 128,-1,41
 1004 -29 1004 -29 945 -33 c 128,-1,42
 886 -37 886 -37 843.5 -38 c 128,-1,43
 801 -39 801 -39 739 -39 c 0,4,5
EndSplineSet
EndChar

StartChar: one
Encoding: 49 49 20
Width: 961
GlyphClass: 2
Flags: W
LayerCount: 2
Fore
SplineSet
41 1511 m 1,0,1
 249 1511 249 1511 388 1595 c 1,2,-1
 866 1595 l 1,3,-1
 866 0 l 1,4,-1
 262 0 l 1,5,-1
 262 1291 l 1,6,-1
 41 1291 l 1,7,-1
 41 1511 l 1,0,1
EndSplineSet
EndChar

StartChar: two
Encoding: 50 50 21
Width: 1403
GlyphClass: 2
Flags: W
LayerCount: 2
Fore
SplineSet
78 1064 m 1,0,1
 76 1110 76 1110 76 1124 c 0,2,3
 76 1245 76 1245 108 1335 c 128,-1,4
 140 1425 140 1425 194.5 1481.5 c 128,-1,5
 249 1538 249 1538 332.5 1572.5 c 128,-1,6
 416 1607 416 1607 508 1620 c 128,-1,7
 600 1633 600 1633 718 1633 c 0,8,9
 1043 1633 1043 1633 1196 1516 c 128,-1,10
 1349 1399 1349 1399 1349 1125 c 0,11,12
 1349 1054 1349 1054 1332 990 c 128,-1,13
 1315 926 1315 926 1293.5 880 c 128,-1,14
 1272 834 1272 834 1226 786.5 c 128,-1,15
 1180 739 1180 739 1150 712.5 c 128,-1,16
 1120 686 1120 686 1056 648.5 c 128,-1,17
 992 611 992 611 964.5 597 c 128,-1,18
 937 583 937 583 868 550 c 0,19,20
 865 548 865 548 862.5 547 c 128,-1,21
 860 546 860 546 858 545 c 0,22,23
 811 522 811 522 776.5 501.5 c 128,-1,24
 742 481 742 481 705.5 450.5 c 128,-1,25
 669 420 669 420 649.5 382 c 128,-1,26
 630 344 630 344 630 301 c 1,27,-1
 1277 301 l 1,28,-1
 1277 1 l 1,29,-1
 78 1 l 1,30,-1
 78 201 l 2,31,32
 78 317 78 317 103 413 c 128,-1,33
 128 509 128 509 169.5 577.5 c 128,-1,34
 211 646 211 646 277.5 705.5 c 128,-1,35
 344 765 344 765 411.5 806 c 128,-1,36
 479 847 479 847 573 890 c 0,37,38
 610 908 610 908 622.5 914.5 c 128,-1,39
 635 921 635 921 667.5 939 c 128,-1,40
 700 957 700 957 714 969.5 c 128,-1,41
 728 982 728 982 747.5 1001.5 c 128,-1,42
 767 1021 767 1021 774.5 1042 c 128,-1,43
 782 1063 782 1063 782 1086 c 2,44,-1
 782 1358 l 1,45,-1
 630 1358 l 1,46,-1
 630 1064 l 1,47,-1
 78 1064 l 1,0,1
EndSplineSet
EndChar

StartChar: three
Encoding: 51 51 22
Width: 1436
GlyphClass: 2
Flags: W
LayerCount: 2
Fore
SplineSet
714 1632 m 0,0,1
 881 1632 881 1632 999 1606 c 128,-1,2
 1117 1580 1117 1580 1200.5 1520 c 128,-1,3
 1284 1460 1284 1460 1324 1359.5 c 128,-1,4
 1364 1259 1364 1259 1364 1113 c 0,5,6
 1364 1006 1364 1006 1311 932 c 128,-1,7
 1258 858 1258 858 1163 820 c 1,8,9
 1263 783 1263 783 1314.5 705.5 c 128,-1,10
 1366 628 1366 628 1366 522 c 0,11,12
 1366 391 1366 391 1335.5 293.5 c 128,-1,13
 1305 196 1305 196 1251.5 133 c 128,-1,14
 1198 70 1198 70 1115 31 c 128,-1,15
 1032 -8 1032 -8 936 -23.5 c 128,-1,16
 840 -39 840 -39 716 -39 c 0,17,18
 384 -39 384 -39 227.5 97.5 c 128,-1,19
 71 234 71 234 71 517 c 0,20,21
 71 569 71 569 75 613 c 1,22,-1
 627 613 l 1,23,-1
 627 235 l 1,24,-1
 799 235 l 1,25,-1
 799 707 l 1,26,-1
 540 707 l 1,27,-1
 540 931 l 1,28,-1
 799 931 l 1,29,-1
 799 1361 l 1,30,-1
 627 1361 l 1,31,-1
 627 1024 l 1,32,-1
 75 1024 l 1,33,34
 72 1068 72 1068 72 1108 c 0,35,36
 72 1255 72 1255 112.5 1356.5 c 128,-1,37
 153 1458 153 1458 236 1518.5 c 128,-1,38
 319 1579 319 1579 435 1605.5 c 128,-1,39
 551 1632 551 1632 714 1632 c 0,0,1
EndSplineSet
EndChar

StartChar: four
Encoding: 52 52 23
Width: 1459
GlyphClass: 2
Flags: W
LayerCount: 2
Fore
SplineSet
1377 0 m 1,0,-1
 865 0 l 1,1,-1
 865 240 l 1,2,-1
 73 240 l 1,3,-1
 73 657 l 1,4,-1
 327 1595 l 1,5,-1
 900 1595 l 1,6,-1
 649 657 l 1,7,-1
 649 603 l 1,8,-1
 865 603 l 1,9,-1
 865 938 l 1,10,-1
 1377 938 l 1,11,-1
 1377 0 l 1,0,-1
EndSplineSet
EndChar

StartChar: five
Encoding: 53 53 24
Width: 1429
GlyphClass: 2
Flags: W
LayerCount: 2
Fore
SplineSet
955 1105 m 0,0,1
 1051 1105 1051 1105 1122.5 1078.5 c 128,-1,2
 1194 1052 1194 1052 1240 1005.5 c 128,-1,3
 1286 959 1286 959 1314 888 c 128,-1,4
 1342 817 1342 817 1353 736.5 c 128,-1,5
 1364 656 1364 656 1364 553 c 0,6,7
 1364 377 1364 377 1330 263.5 c 128,-1,8
 1296 150 1296 150 1215.5 82 c 128,-1,9
 1135 14 1135 14 1016.5 -12.5 c 128,-1,10
 898 -39 898 -39 714 -39 c 0,11,12
 604 -39 604 -39 518 -29.5 c 128,-1,13
 432 -20 432 -20 351.5 5 c 128,-1,14
 271 30 271 30 216 70.5 c 128,-1,15
 161 111 161 111 123.5 177 c 128,-1,16
 86 243 86 243 75 331 c 0,17,18
 66 398 66 398 66 474 c 1,19,-1
 616 474 l 1,20,-1
 616 236 l 1,21,-1
 797 236 l 1,22,-1
 797 838 l 1,23,-1
 616 838 l 1,24,-1
 616 655 l 1,25,-1
 83 655 l 1,26,-1
 136 1596 l 1,27,-1
 1229 1596 l 1,28,-1
 1229 1299 l 1,29,-1
 638 1299 l 1,30,-1
 604 998 l 1,31,32
 696 1105 696 1105 955 1105 c 0,0,1
EndSplineSet
EndChar

StartChar: six
Encoding: 54 54 25
Width: 1448
GlyphClass: 2
Flags: W
LayerCount: 2
Fore
SplineSet
636 236 m 1,0,-1
 816 236 l 1,1,-1
 816 798 l 1,2,-1
 636 798 l 1,3,-1
 636 236 l 1,0,-1
718 -39 m 1,4,5
 561 -39 561 -39 447 -12 c 128,-1,6
 333 15 333 15 250 74.5 c 128,-1,7
 167 134 167 134 126 234 c 128,-1,8
 85 334 85 334 85 476 c 2,9,-1
 85 1056 l 2,10,11
 85 1219 85 1219 126 1331.5 c 128,-1,12
 167 1444 167 1444 250 1509.5 c 128,-1,13
 333 1575 333 1575 446.5 1603.5 c 128,-1,14
 560 1632 560 1632 717 1632 c 0,15,16
 781 1632 781 1632 830.5 1630 c 128,-1,17
 880 1628 880 1628 946.5 1618.5 c 128,-1,18
 1013 1609 1013 1609 1063 1593.5 c 128,-1,19
 1113 1578 1113 1578 1165.5 1548 c 128,-1,20
 1218 1518 1218 1518 1252 1477.5 c 128,-1,21
 1286 1437 1286 1437 1307.5 1375.5 c 128,-1,22
 1329 1314 1329 1314 1329 1237 c 0,23,24
 1329 1222 1329 1222 1330 1196 c 128,-1,25
 1331 1170 1331 1170 1331 1158 c 1,26,-1
 800 1158 l 1,27,-1
 800 1369 l 1,28,-1
 637 1369 l 1,29,-1
 637 1068 l 1,30,-1
 761 1068 l 2,31,32
 939 1068 939 1068 1054 1042 c 128,-1,33
 1169 1016 1169 1016 1244 952 c 128,-1,34
 1319 888 1319 888 1350.5 785 c 128,-1,35
 1382 682 1382 682 1382 523 c 0,36,37
 1382 387 1382 387 1351.5 288 c 128,-1,38
 1321 189 1321 189 1268 127 c 128,-1,39
 1215 65 1215 65 1129 27.5 c 128,-1,40
 1043 -10 1043 -10 946 -24 c 128,-1,41
 849 -38 849 -38 718 -39 c 1,4,5
EndSplineSet
EndChar

StartChar: seven
Encoding: 55 55 26
Width: 991
GlyphClass: 2
Flags: W
LayerCount: 2
Fore
SplineSet
942 1595 m 1,0,-1
 942 1351 l 1,1,-1
 716 0 l 1,2,-1
 112 0 l 1,3,-1
 334 1354 l 1,4,-1
 40 1354 l 1,5,-1
 40 1595 l 1,6,-1
 942 1595 l 1,0,-1
EndSplineSet
EndChar

StartChar: eight
Encoding: 56 56 27
Width: 1427
GlyphClass: 2
Flags: W
LayerCount: 2
Fore
SplineSet
119 1181 m 0,0,1
 119 1283 119 1283 148 1361 c 128,-1,2
 177 1439 177 1439 228 1490 c 128,-1,3
 279 1541 279 1541 355.5 1573 c 128,-1,4
 432 1605 432 1605 520.5 1618 c 128,-1,5
 609 1631 609 1631 719 1631 c 0,6,7
 857 1631 857 1631 961 1609 c 128,-1,8
 1065 1587 1065 1587 1145.5 1536.5 c 128,-1,9
 1226 1486 1226 1486 1268 1396.5 c 128,-1,10
 1310 1307 1310 1307 1310 1180 c 0,11,12
 1310 911 1310 911 1149 864 c 1,13,14
 1225 848 1225 848 1275 791.5 c 128,-1,15
 1325 735 1325 735 1346.5 654.5 c 128,-1,16
 1368 574 1368 574 1368 470 c 0,17,18
 1368 378 1368 378 1351.5 304.5 c 128,-1,19
 1335 231 1335 231 1306.5 178 c 128,-1,20
 1278 125 1278 125 1232.5 86 c 128,-1,21
 1187 47 1187 47 1135.5 23 c 128,-1,22
 1084 -1 1084 -1 1014.5 -15 c 128,-1,23
 945 -29 945 -29 876.5 -34.5 c 128,-1,24
 808 -40 808 -40 721 -40 c 0,25,26
 586 -40 586 -40 485.5 -25 c 128,-1,27
 385 -10 385 -10 303 25.5 c 128,-1,28
 221 61 221 61 169.5 119.5 c 128,-1,29
 118 178 118 178 91 265 c 128,-1,30
 64 352 64 352 64 470 c 0,31,32
 64 811 64 811 251 864 c 1,33,34
 119 911 119 911 119 1181 c 0,0,1
640 1355 m 1,35,-1
 640 960 l 1,36,-1
 794 960 l 1,37,-1
 794 1355 l 1,38,-1
 640 1355 l 1,35,-1
628 235 m 1,39,-1
 794 235 l 1,40,-1
 794 720 l 1,41,-1
 628 720 l 1,42,-1
 628 235 l 1,39,-1
EndSplineSet
EndChar

StartChar: nine
Encoding: 57 57 28
Width: 1445
GlyphClass: 2
Flags: W
LayerCount: 2
Fore
SplineSet
799 1358 m 1,0,-1
 628 1358 l 1,1,-1
 628 779 l 1,2,-1
 799 779 l 1,3,-1
 799 1358 l 1,0,-1
68 1071 m 0,4,5
 68 1172 68 1172 84 1252.5 c 128,-1,6
 100 1333 100 1333 128 1391.5 c 128,-1,7
 156 1450 156 1450 201 1492 c 128,-1,8
 246 1534 246 1534 297.5 1560.5 c 128,-1,9
 349 1587 349 1587 419.5 1602.5 c 128,-1,10
 490 1618 490 1618 560.5 1623.5 c 128,-1,11
 631 1629 631 1629 722 1629 c 0,12,13
 848 1629 848 1629 946 1613.5 c 128,-1,14
 1044 1598 1044 1598 1124.5 1561.5 c 128,-1,15
 1205 1525 1205 1525 1257 1466 c 128,-1,16
 1309 1407 1309 1407 1337 1319.5 c 128,-1,17
 1365 1232 1365 1232 1365 1116 c 2,18,-1
 1365 520 l 2,19,20
 1365 391 1365 391 1337 294.5 c 128,-1,21
 1309 198 1309 198 1258 134.5 c 128,-1,22
 1207 71 1207 71 1127 32 c 128,-1,23
 1047 -7 1047 -7 952 -23.5 c 128,-1,24
 857 -40 857 -40 733 -40 c 0,25,26
 125 -40 125 -40 115 328 c 0,27,28
 114 362 114 362 114 424 c 1,29,-1
 645 424 l 1,30,-1
 645 225 l 1,31,-1
 803 225 l 1,32,-1
 803 508 l 1,33,-1
 576 508 l 2,34,35
 428 508 428 508 329 541 c 128,-1,36
 230 574 230 574 172.5 646.5 c 128,-1,37
 115 719 115 719 91.5 820.5 c 128,-1,38
 68 922 68 922 68 1071 c 0,4,5
EndSplineSet
EndChar

StartChar: colon
Encoding: 58 58 29
Width: 691
GlyphClass: 2
Flags: W
LayerCount: 2
Fore
SplineSet
141 323 m 128,-1,1
 141 422 141 422 201.5 477.5 c 128,-1,2
 262 533 262 533 345 533 c 128,-1,3
 428 533 428 533 488.5 477.5 c 128,-1,4
 549 422 549 422 549 323 c 128,-1,5
 549 224 549 224 488.5 168.5 c 128,-1,6
 428 113 428 113 345 113 c 128,-1,7
 262 113 262 113 201.5 168.5 c 128,-1,0
 141 224 141 224 141 323 c 128,-1,1
141 1133 m 128,-1,9
 141 1232 141 1232 201.5 1287.5 c 128,-1,10
 262 1343 262 1343 345 1343 c 128,-1,11
 428 1343 428 1343 488.5 1287.5 c 128,-1,12
 549 1232 549 1232 549 1133 c 128,-1,13
 549 1034 549 1034 488.5 978.5 c 128,-1,14
 428 923 428 923 345 923 c 128,-1,15
 262 923 262 923 201.5 978.5 c 128,-1,8
 141 1034 141 1034 141 1133 c 128,-1,9
EndSplineSet
EndChar

StartChar: semicolon
Encoding: 59 59 30
Width: 710
GlyphClass: 2
Flags: W
LayerCount: 2
Fore
SplineSet
141 323 m 0,0,1
 141 417 141 417 201.5 470 c 128,-1,2
 262 523 262 523 345 523 c 0,3,4
 448 523 448 523 501.5 455 c 128,-1,5
 555 387 555 387 555 283 c 0,6,7
 555 213 555 213 531.5 142.5 c 128,-1,8
 508 72 508 72 465 13 c 128,-1,9
 422 -46 422 -46 354.5 -83 c 128,-1,10
 287 -120 287 -120 208 -120 c 0,11,12
 186 -120 186 -120 164 -117 c 1,13,-1
 164 -8 l 1,14,15
 227 -7 227 -7 271.5 25.5 c 128,-1,16
 316 58 316 58 320 114 c 1,17,18
 245 122 245 122 193 176.5 c 128,-1,19
 141 231 141 231 141 323 c 0,0,1
141 1133 m 128,-1,21
 141 1232 141 1232 201.5 1287.5 c 128,-1,22
 262 1343 262 1343 345 1343 c 128,-1,23
 428 1343 428 1343 488.5 1287.5 c 128,-1,24
 549 1232 549 1232 549 1133 c 128,-1,25
 549 1034 549 1034 488.5 978.5 c 128,-1,26
 428 923 428 923 345 923 c 128,-1,27
 262 923 262 923 201.5 978.5 c 128,-1,20
 141 1034 141 1034 141 1133 c 128,-1,21
EndSplineSet
EndChar

StartChar: less
Encoding: 60 60 31
Width: 1036
GlyphClass: 2
Flags: W
LayerCount: 2
Fore
SplineSet
75 1098 m 1,0,-1
 951 1597 l 1,1,-1
 951 1092 l 1,2,-1
 350 797 l 1,3,-1
 951 504 l 1,4,-1
 951 0 l 1,5,-1
 75 489 l 1,6,-1
 75 1098 l 1,0,-1
EndSplineSet
EndChar

StartChar: equal
Encoding: 61 61 32
Width: 1008
GlyphClass: 2
Flags: W
LayerCount: 2
Fore
SplineSet
923 336 m 1,0,-1
 923 0 l 1,1,-1
 89 0 l 1,2,-1
 89 336 l 1,3,-1
 923 336 l 1,0,-1
923 897 m 1,4,-1
 923 561 l 1,5,-1
 89 561 l 1,6,-1
 89 897 l 1,7,-1
 923 897 l 1,4,-1
EndSplineSet
EndChar

StartChar: greater
Encoding: 62 62 33
Width: 1035
GlyphClass: 2
Flags: W
LayerCount: 2
Fore
SplineSet
963 489 m 1,0,-1
 86 0 l 1,1,-1
 86 504 l 1,2,-1
 687 797 l 1,3,-1
 86 1092 l 1,4,-1
 86 1597 l 1,5,-1
 963 1098 l 1,6,-1
 963 489 l 1,0,-1
EndSplineSet
EndChar

StartChar: question
Encoding: 63 63 34
Width: 906
GlyphClass: 2
Flags: W
LayerCount: 2
Fore
SplineSet
417 567 m 0,0,1
 410 510 410 510 355 510 c 0,2,3
 294 510 294 510 294 582 c 0,4,5
 294 661 294 661 313 744 c 128,-1,6
 332 827 332 827 356 885 c 128,-1,7
 380 943 380 943 405.5 1010.5 c 128,-1,8
 431 1078 431 1078 439 1123 c 1,9,10
 441 1141 441 1141 441 1150 c 0,11,12
 441 1201 441 1201 406.5 1232.5 c 128,-1,13
 372 1264 372 1264 299 1264 c 0,14,15
 221 1264 221 1264 105 1215 c 1,16,-1
 69 1562 l 1,17,18
 288 1632 288 1632 440 1632 c 0,19,20
 537 1632 537 1632 613 1614 c 128,-1,21
 689 1596 689 1596 737.5 1566 c 128,-1,22
 786 1536 786 1536 817 1494 c 128,-1,23
 848 1452 848 1452 860.5 1408 c 128,-1,24
 873 1364 873 1364 873 1313 c 0,25,26
 873 1251 873 1251 850 1194.5 c 128,-1,27
 827 1138 827 1138 789.5 1092 c 128,-1,28
 752 1046 752 1046 706.5 1001 c 128,-1,29
 661 956 661 956 613.5 909 c 128,-1,30
 566 862 566 862 525 813 c 128,-1,31
 484 764 484 764 454.5 700.5 c 128,-1,32
 425 637 425 637 417 567 c 0,0,1
153 171 m 128,-1,34
 153 270 153 270 213.5 325.5 c 128,-1,35
 274 381 274 381 357 381 c 128,-1,36
 440 381 440 381 500.5 325.5 c 128,-1,37
 561 270 561 270 561 171 c 128,-1,38
 561 72 561 72 500.5 16.5 c 128,-1,39
 440 -39 440 -39 357 -39 c 128,-1,40
 274 -39 274 -39 213.5 16.5 c 128,-1,33
 153 72 153 72 153 171 c 128,-1,34
EndSplineSet
EndChar

StartChar: at
Encoding: 64 64 35
Width: 2198
GlyphClass: 2
Flags: W
LayerCount: 2
Fore
SplineSet
1553 88 m 1,0,1
 1291 93 1291 93 1202 239 c 1,2,3
 1101 113 1101 113 950 113 c 0,4,5
 785 113 785 113 701.5 183 c 128,-1,6
 618 253 618 253 613 405 c 0,7,8
 612 435 612 435 612 493 c 0,9,10
 612 674 612 674 691 755 c 128,-1,11
 770 836 770 836 950 836 c 0,12,13
 1100 836 1100 836 1175 788 c 1,14,-1
 1175 1022 l 1,15,-1
 1116 1022 l 1,16,-1
 1116 887 l 1,17,-1
 664 887 l 1,18,19
 664 898 664 898 663.5 921 c 128,-1,20
 663 944 663 944 663 956 c 0,21,22
 663 1029 663 1029 686.5 1081.5 c 128,-1,23
 710 1134 710 1134 749 1166 c 128,-1,24
 788 1198 788 1198 850.5 1216.5 c 128,-1,25
 913 1235 913 1235 980 1241.5 c 128,-1,26
 1047 1248 1047 1248 1138 1248 c 0,27,28
 1320 1248 1320 1248 1420 1209 c 128,-1,29
 1520 1170 1520 1170 1563.5 1082.5 c 128,-1,30
 1607 995 1607 995 1607 837 c 2,31,-1
 1607 330 l 1,32,-1
 1777 330 l 1,33,-1
 1777 832 l 2,34,35
 1777 941 1777 941 1764.5 1024.5 c 128,-1,36
 1752 1108 1752 1108 1729.5 1171 c 128,-1,37
 1707 1234 1707 1234 1667.5 1278 c 128,-1,38
 1628 1322 1628 1322 1581 1350.5 c 128,-1,39
 1534 1379 1534 1379 1465.5 1395.5 c 128,-1,40
 1397 1412 1397 1412 1324 1418 c 128,-1,41
 1251 1424 1251 1424 1152 1424 c 0,42,43
 1005 1424 1005 1424 894.5 1406 c 128,-1,44
 784 1388 784 1388 703.5 1347.5 c 128,-1,45
 623 1307 623 1307 570 1250.5 c 128,-1,46
 517 1194 517 1194 485.5 1109 c 128,-1,47
 454 1024 454 1024 441 924.5 c 128,-1,48
 428 825 428 825 428 692 c 0,49,50
 428 529 428 529 442 416 c 128,-1,51
 456 303 456 303 494 216.5 c 128,-1,52
 532 130 532 130 587 79 c 128,-1,53
 642 28 642 28 736 -4 c 128,-1,54
 830 -36 830 -36 943 -47 c 128,-1,55
 1056 -58 1056 -58 1222 -58 c 0,56,57
 1367 -58 1367 -58 1704 22 c 1,58,-1
 1762 -233 l 1,59,60
 1519 -393 1519 -393 1240 -393 c 0,61,62
 1082 -393 1082 -393 955.5 -382 c 128,-1,63
 829 -371 829 -371 714.5 -345.5 c 128,-1,64
 600 -320 600 -320 512.5 -279 c 128,-1,65
 425 -238 425 -238 351.5 -177 c 128,-1,66
 278 -116 278 -116 227.5 -34.5 c 128,-1,67
 177 47 177 47 142 153.5 c 128,-1,68
 107 260 107 260 90.5 392.5 c 128,-1,69
 74 525 74 525 74 687 c 0,70,71
 74 928 74 928 118.5 1107 c 128,-1,72
 163 1286 163 1286 247.5 1407 c 128,-1,73
 332 1528 332 1528 465 1602.5 c 128,-1,74
 598 1677 598 1677 763.5 1709 c 128,-1,75
 929 1741 929 1741 1148 1741 c 0,76,77
 1412 1741 1412 1741 1594.5 1695 c 128,-1,78
 1777 1649 1777 1649 1899 1545.5 c 128,-1,79
 2021 1442 2021 1442 2077 1278.5 c 128,-1,80
 2133 1115 2133 1115 2133 878 c 0,81,82
 2133 771 2133 771 2127 686 c 128,-1,83
 2121 601 2121 601 2104.5 516.5 c 128,-1,84
 2088 432 2088 432 2060 369.5 c 128,-1,85
 2032 307 2032 307 1988 252 c 128,-1,86
 1944 197 1944 197 1883.5 162 c 128,-1,87
 1823 127 1823 127 1740 107.5 c 128,-1,88
 1657 88 1657 88 1553 88 c 1,0,1
1081 641 m 1,89,-1
 1081 336 l 1,90,-1
 1174 336 l 1,91,-1
 1174 641 l 1,92,-1
 1081 641 l 1,89,-1
EndSplineSet
EndChar

StartChar: A
Encoding: 65 65 36
Width: 1565
GlyphClass: 2
Flags: W
LayerCount: 2
Fore
SplineSet
677 366 m 1,0,-1
 622 0 l 1,1,-1
 36 0 l 1,2,-1
 328 1595 l 1,3,-1
 1235 1595 l 1,4,-1
 1532 0 l 1,5,-1
 945 0 l 1,6,-1
 891 366 l 1,7,-1
 677 366 l 1,0,-1
816 1085 m 1,8,-1
 801 1283 l 1,9,-1
 762 1283 l 1,10,-1
 749 1085 l 1,11,-1
 695 576 l 1,12,-1
 873 576 l 1,13,-1
 816 1085 l 1,8,-1
EndSplineSet
EndChar

StartChar: B
Encoding: 66 66 37
Width: 1533
GlyphClass: 2
Flags: W
LayerCount: 2
Fore
SplineSet
1223 905 m 2,0,-1
 1111 893 l 1,1,-1
 1111 854 l 1,2,-1
 1223 841 l 2,3,4
 1475 812 1475 812 1475 460 c 0,5,6
 1475 348 1475 348 1457 270 c 128,-1,7
 1439 192 1439 192 1402 138.5 c 128,-1,8
 1365 85 1365 85 1300.5 55 c 128,-1,9
 1236 25 1236 25 1152.5 12.5 c 128,-1,10
 1069 0 1069 0 948 0 c 2,11,-1
 105 0 l 1,12,-1
 105 1595 l 1,13,-1
 952 1595 l 2,14,15
 1013 1595 1013 1595 1061 1591.5 c 128,-1,16
 1109 1588 1109 1588 1161 1578 c 128,-1,17
 1213 1568 1213 1568 1251.5 1551.5 c 128,-1,18
 1290 1535 1290 1535 1326 1506.5 c 128,-1,19
 1362 1478 1362 1478 1384.5 1439 c 128,-1,20
 1407 1400 1407 1400 1420.5 1344.5 c 128,-1,21
 1434 1289 1434 1289 1434 1219 c 0,22,23
 1434 1067 1434 1067 1385 992 c 128,-1,24
 1336 917 1336 917 1223 905 c 2,0,-1
709 235 m 1,25,-1
 882 235 l 1,26,-1
 882 770 l 1,27,-1
 709 770 l 1,28,-1
 709 235 l 1,25,-1
709 951 m 1,29,-1
 882 951 l 1,30,-1
 882 1358 l 1,31,-1
 709 1358 l 1,32,-1
 709 951 l 1,29,-1
EndSplineSet
EndChar

StartChar: C
Encoding: 67 67 38
Width: 1540
GlyphClass: 2
Flags: W
LayerCount: 2
Fore
SplineSet
868 1356 m 1,0,-1
 695 1356 l 1,1,-1
 695 233 l 1,2,-1
 868 233 l 1,3,-1
 868 614 l 1,4,-1
 1472 614 l 1,5,-1
 1472 369 l 2,6,7
 1472 291 1472 291 1449 228.5 c 128,-1,8
 1426 166 1426 166 1389.5 124 c 128,-1,9
 1353 82 1353 82 1297 51 c 128,-1,10
 1241 20 1241 20 1184.5 3 c 128,-1,11
 1128 -14 1128 -14 1054 -24 c 128,-1,12
 980 -34 980 -34 920.5 -37 c 128,-1,13
 861 -40 861 -40 786 -40 c 0,14,15
 717 -40 717 -40 660 -37.5 c 128,-1,16
 603 -35 603 -35 528.5 -25 c 128,-1,17
 454 -15 454 -15 396 2 c 128,-1,18
 338 19 338 19 278 50 c 128,-1,19
 218 81 218 81 179 123 c 128,-1,20
 140 165 140 165 115 228 c 128,-1,21
 90 291 90 291 90 370 c 2,22,-1
 90 1226 l 2,23,24
 90 1303 90 1303 113.5 1365.5 c 128,-1,25
 137 1428 137 1428 174.5 1469.5 c 128,-1,26
 212 1511 212 1511 269 1542 c 128,-1,27
 326 1573 326 1573 383.5 1589.5 c 128,-1,28
 441 1606 441 1606 515.5 1616 c 128,-1,29
 590 1626 590 1626 649.5 1629 c 128,-1,30
 709 1632 709 1632 783 1632 c 0,31,32
 862 1632 862 1632 921 1629.5 c 128,-1,33
 980 1627 980 1627 1056 1617.5 c 128,-1,34
 1132 1608 1132 1608 1187 1592 c 128,-1,35
 1242 1576 1242 1576 1299 1545.5 c 128,-1,36
 1356 1515 1356 1515 1391.5 1473 c 128,-1,37
 1427 1431 1427 1431 1449.5 1368.5 c 128,-1,38
 1472 1306 1472 1306 1472 1227 c 2,39,-1
 1472 979 l 1,40,-1
 868 979 l 1,41,-1
 868 1356 l 1,0,-1
EndSplineSet
EndChar

StartChar: D
Encoding: 68 68 39
Width: 1555
GlyphClass: 2
Flags: W
LayerCount: 2
Fore
SplineSet
708 235 m 1,0,-1
 881 235 l 1,1,-1
 881 1358 l 1,2,-1
 708 1358 l 1,3,-1
 708 235 l 1,0,-1
1485 1204 m 2,4,-1
 1485 393 l 2,5,6
 1485 326 1485 326 1471.5 271 c 128,-1,7
 1458 216 1458 216 1430.5 176.5 c 128,-1,8
 1403 137 1403 137 1369.5 107.5 c 128,-1,9
 1336 78 1336 78 1288 59 c 128,-1,10
 1240 40 1240 40 1194.5 27.5 c 128,-1,11
 1149 15 1149 15 1087.5 9.5 c 128,-1,12
 1026 4 1026 4 976 2 c 128,-1,13
 926 0 926 0 859 0 c 2,14,-1
 103 0 l 1,15,-1
 103 1595 l 1,16,-1
 859 1595 l 2,17,18
 935 1595 935 1595 994 1592 c 128,-1,19
 1053 1589 1053 1589 1121 1579.5 c 128,-1,20
 1189 1570 1189 1570 1239 1553 c 128,-1,21
 1289 1536 1289 1536 1337.5 1506.5 c 128,-1,22
 1386 1477 1386 1477 1416.5 1436.5 c 128,-1,23
 1447 1396 1447 1396 1466 1337 c 128,-1,24
 1485 1278 1485 1278 1485 1204 c 2,4,-1
EndSplineSet
EndChar

StartChar: E
Encoding: 69 69 40
Width: 1114
GlyphClass: 2
Flags: W
LayerCount: 2
Fore
SplineSet
1049 1595 m 1,0,-1
 1049 1346 l 1,1,-1
 708 1346 l 1,2,-1
 708 961 l 1,3,-1
 1026 961 l 1,4,-1
 1026 711 l 1,5,-1
 708 711 l 1,6,-1
 708 251 l 1,7,-1
 1049 251 l 1,8,-1
 1049 0 l 1,9,-1
 104 0 l 1,10,-1
 104 1595 l 1,11,-1
 1049 1595 l 1,0,-1
EndSplineSet
EndChar

StartChar: F
Encoding: 70 70 41
Width: 1102
GlyphClass: 2
Flags: W
LayerCount: 2
Fore
SplineSet
1049 1595 m 1,0,-1
 1049 1346 l 1,1,-1
 708 1346 l 1,2,-1
 708 954 l 1,3,-1
 1026 954 l 1,4,-1
 1026 705 l 1,5,-1
 708 705 l 1,6,-1
 708 0 l 1,7,-1
 104 0 l 1,8,-1
 104 1595 l 1,9,-1
 1049 1595 l 1,0,-1
EndSplineSet
EndChar

StartChar: G
Encoding: 71 71 42
Width: 1547
GlyphClass: 2
Flags: W
LayerCount: 2
Fore
SplineSet
911 124 m 1,0,1
 811 -39 811 -39 560 -39 c 0,2,3
 462 -39 462 -39 378.5 -15 c 128,-1,4
 295 9 295 9 229.5 56 c 128,-1,5
 164 103 164 103 127 181 c 128,-1,6
 90 259 90 259 90 359 c 2,7,-1
 90 1228 l 2,8,9
 90 1306 90 1306 113 1368 c 128,-1,10
 136 1430 136 1430 173 1471.5 c 128,-1,11
 210 1513 210 1513 267.5 1543.5 c 128,-1,12
 325 1574 325 1574 381.5 1591 c 128,-1,13
 438 1608 438 1608 513 1617.5 c 128,-1,14
 588 1627 588 1627 647.5 1629.5 c 128,-1,15
 707 1632 707 1632 782 1632 c 0,16,17
 1472 1632 1472 1632 1472 1227 c 2,18,-1
 1472 979 l 1,19,-1
 867 979 l 1,20,-1
 867 1358 l 1,21,-1
 694 1358 l 1,22,-1
 694 235 l 1,23,-1
 867 235 l 1,24,-1
 867 538 l 1,25,-1
 782 538 l 1,26,-1
 782 769 l 1,27,-1
 1472 769 l 1,28,-1
 1472 0 l 1,29,-1
 985 0 l 1,30,-1
 911 124 l 1,0,1
EndSplineSet
EndChar

StartChar: H
Encoding: 72 72 43
Width: 1585
GlyphClass: 2
Flags: W
LayerCount: 2
Fore
SplineSet
1505 1595 m 1,0,-1
 1505 0 l 1,1,-1
 901 0 l 1,2,-1
 901 688 l 1,3,-1
 708 688 l 1,4,-1
 708 0 l 1,5,-1
 104 0 l 1,6,-1
 104 1595 l 1,7,-1
 708 1595 l 1,8,-1
 708 908 l 1,9,-1
 901 908 l 1,10,-1
 901 1595 l 1,11,-1
 1505 1595 l 1,0,-1
EndSplineSet
EndChar

StartChar: I
Encoding: 73 73 44
Width: 788
GlyphClass: 2
Flags: W
LayerCount: 2
Fore
SplineSet
708 1595 m 1,0,-1
 708 0 l 1,1,-1
 104 0 l 1,2,-1
 104 1595 l 1,3,-1
 708 1595 l 1,0,-1
EndSplineSet
EndChar

StartChar: J
Encoding: 74 74 45
Width: 908
GlyphClass: 2
Flags: W
LayerCount: 2
Fore
SplineSet
831 1594 m 1,0,-1
 831 274 l 2,1,2
 831 158 831 158 791.5 72.5 c 128,-1,3
 752 -13 752 -13 680 -62.5 c 128,-1,4
 608 -112 608 -112 516 -135.5 c 128,-1,5
 424 -159 424 -159 310 -159 c 0,6,7
 192 -159 192 -159 54 -134 c 1,8,-1
 54 138 l 1,9,-1
 227 138 l 1,10,-1
 227 1594 l 1,11,-1
 831 1594 l 1,0,-1
EndSplineSet
EndChar

StartChar: K
Encoding: 75 75 46
Width: 1689
GlyphClass: 2
Flags: W
LayerCount: 2
Fore
SplineSet
1025 0 m 1,0,-1
 766 696 l 1,1,-1
 699 655 l 1,2,-1
 709 492 l 1,3,-1
 709 0 l 1,4,-1
 104 0 l 1,5,-1
 104 1595 l 1,6,-1
 709 1595 l 1,7,-1
 709 994 l 1,8,-1
 699 850 l 1,9,-1
 736 844 l 1,10,-1
 773 985 l 1,11,-1
 1002 1595 l 1,12,-1
 1621 1595 l 1,13,-1
 1279 844 l 1,14,-1
 1662 0 l 1,15,-1
 1025 0 l 1,0,-1
EndSplineSet
EndChar

StartChar: L
Encoding: 76 76 47
Width: 1094
GlyphClass: 2
Flags: W
LayerCount: 2
Fore
SplineSet
104 0 m 1,0,-1
 104 1595 l 1,1,-1
 708 1595 l 1,2,-1
 708 241 l 1,3,-1
 1049 241 l 1,4,-1
 1049 0 l 1,5,-1
 104 0 l 1,0,-1
EndSplineSet
EndChar

StartChar: M
Encoding: 77 77 48
Width: 1909
GlyphClass: 2
Flags: W
LayerCount: 2
Fore
SplineSet
1316 958 m 1,0,-1
 1179 0 l 1,1,-1
 752 0 l 1,2,-1
 627 958 l 1,3,-1
 587 958 l 1,4,-1
 599 689 l 1,5,-1
 557 0 l 1,6,-1
 76 0 l 1,7,-1
 150 1595 l 1,8,-1
 830 1595 l 1,9,-1
 930 880 l 1,10,-1
 943 611 l 1,11,-1
 982 611 l 1,12,-1
 997 880 l 1,13,-1
 1097 1595 l 1,14,-1
 1778 1595 l 1,15,-1
 1852 0 l 1,16,-1
 1386 0 l 1,17,-1
 1344 689 l 1,18,-1
 1356 958 l 1,19,-1
 1316 958 l 1,0,-1
EndSplineSet
EndChar

StartChar: N
Encoding: 78 78 49
Width: 1576
GlyphClass: 2
Flags: W
LayerCount: 2
Fore
SplineSet
957 0 m 1,0,-1
 552 711 l 1,1,-1
 552 0 l 1,2,-1
 104 0 l 1,3,-1
 104 1595 l 1,4,-1
 621 1595 l 1,5,-1
 1052 834 l 1,6,-1
 1052 1595 l 1,7,-1
 1496 1595 l 1,8,-1
 1496 0 l 1,9,-1
 957 0 l 1,0,-1
EndSplineSet
EndChar

StartChar: O
Encoding: 79 79 50
Width: 1542
GlyphClass: 2
Flags: W
LayerCount: 2
Fore
SplineSet
694 235 m 1,0,-1
 867 235 l 1,1,-1
 867 1362 l 1,2,-1
 694 1362 l 1,3,-1
 694 235 l 1,0,-1
777 -39 m 0,4,5
 697 -39 697 -39 637 -36.5 c 128,-1,6
 577 -34 577 -34 501.5 -24.5 c 128,-1,7
 426 -15 426 -15 371 2 c 128,-1,8
 316 19 316 19 260 49.5 c 128,-1,9
 204 80 204 80 168.5 122 c 128,-1,10
 133 164 133 164 111 227.5 c 128,-1,11
 89 291 89 291 89 370 c 2,12,-1
 89 1226 l 2,13,14
 89 1303 89 1303 112 1365 c 128,-1,15
 135 1427 135 1427 172 1469 c 128,-1,16
 209 1511 209 1511 266 1541.5 c 128,-1,17
 323 1572 323 1572 379.5 1589 c 128,-1,18
 436 1606 436 1606 510 1615.5 c 128,-1,19
 584 1625 584 1625 643.5 1628 c 128,-1,20
 703 1631 703 1631 777 1631 c 0,21,22
 846 1631 846 1631 902 1628.5 c 128,-1,23
 958 1626 958 1626 1033 1616.5 c 128,-1,24
 1108 1607 1108 1607 1165.5 1590.5 c 128,-1,25
 1223 1574 1223 1574 1283 1543.5 c 128,-1,26
 1343 1513 1343 1513 1382 1471.5 c 128,-1,27
 1421 1430 1421 1430 1446 1367 c 128,-1,28
 1471 1304 1471 1304 1471 1226 c 2,29,-1
 1471 370 l 2,30,31
 1471 291 1471 291 1447.5 228 c 128,-1,32
 1424 165 1424 165 1387 123 c 128,-1,33
 1350 81 1350 81 1292 50.5 c 128,-1,34
 1234 20 1234 20 1178 3 c 128,-1,35
 1122 -14 1122 -14 1046 -23.5 c 128,-1,36
 970 -33 970 -33 911.5 -36 c 128,-1,37
 853 -39 853 -39 777 -39 c 0,4,5
EndSplineSet
EndChar

StartChar: P
Encoding: 80 80 51
Width: 1550
GlyphClass: 2
Flags: W
LayerCount: 2
Fore
SplineSet
104 1595 m 1,0,-1
 859 1595 l 2,1,2
 935 1595 935 1595 994 1592 c 128,-1,3
 1053 1589 1053 1589 1121 1579.5 c 128,-1,4
 1189 1570 1189 1570 1239 1553 c 128,-1,5
 1289 1536 1289 1536 1337.5 1506.5 c 128,-1,6
 1386 1477 1386 1477 1416.5 1436.5 c 128,-1,7
 1447 1396 1447 1396 1466 1337 c 128,-1,8
 1485 1278 1485 1278 1485 1204 c 2,9,-1
 1485 793 l 2,10,11
 1485 733 1485 733 1473.5 683.5 c 128,-1,12
 1462 634 1462 634 1442.5 596.5 c 128,-1,13
 1423 559 1423 559 1391.5 529.5 c 128,-1,14
 1360 500 1360 500 1327 480 c 128,-1,15
 1294 460 1294 460 1248 445 c 128,-1,16
 1202 430 1202 430 1160.5 422 c 128,-1,17
 1119 414 1119 414 1063.5 409.5 c 128,-1,18
 1008 405 1008 405 963.5 403.5 c 128,-1,19
 919 402 919 402 860 402 c 2,20,-1
 708 402 l 1,21,-1
 708 0 l 1,22,-1
 104 0 l 1,23,-1
 104 1595 l 1,0,-1
707 628 m 1,24,-1
 880 628 l 1,25,-1
 880 1362 l 1,26,-1
 707 1362 l 1,27,-1
 707 628 l 1,24,-1
EndSplineSet
EndChar

StartChar: Q
Encoding: 81 81 52
Width: 1542
GlyphClass: 2
Flags: W
LayerCount: 2
Fore
SplineSet
1393 -379 m 1,0,1
 1270 -391 1270 -391 1167 -391 c 0,2,3
 934 -391 934 -391 811 -311.5 c 128,-1,4
 688 -232 688 -232 652 -36 c 1,5,6
 573 -32 573 -32 511 -23.5 c 128,-1,7
 449 -15 449 -15 381 2 c 128,-1,8
 313 19 313 19 263.5 48.5 c 128,-1,9
 214 78 214 78 173 120.5 c 128,-1,10
 132 163 132 163 111 226.5 c 128,-1,11
 90 290 90 290 90 370 c 2,12,-1
 90 1226 l 2,13,14
 90 1303 90 1303 113 1365.5 c 128,-1,15
 136 1428 136 1428 173 1469.5 c 128,-1,16
 210 1511 210 1511 267 1542 c 128,-1,17
 324 1573 324 1573 380.5 1589.5 c 128,-1,18
 437 1606 437 1606 511 1616 c 128,-1,19
 585 1626 585 1626 644.5 1629 c 128,-1,20
 704 1632 704 1632 778 1632 c 0,21,22
 847 1632 847 1632 903 1629.5 c 128,-1,23
 959 1627 959 1627 1033.5 1617.5 c 128,-1,24
 1108 1608 1108 1608 1166 1591.5 c 128,-1,25
 1224 1575 1224 1575 1284 1544 c 128,-1,26
 1344 1513 1344 1513 1383 1471.5 c 128,-1,27
 1422 1430 1422 1430 1447 1367 c 128,-1,28
 1472 1304 1472 1304 1472 1226 c 2,29,-1
 1472 370 l 2,30,31
 1472 278 1472 278 1445 210.5 c 128,-1,32
 1418 143 1418 143 1365.5 99.5 c 128,-1,33
 1313 56 1313 56 1249.5 30.5 c 128,-1,34
 1186 5 1186 5 1099 -12 c 1,35,36
 1103 -79 1103 -79 1255 -79 c 0,37,38
 1339 -79 1339 -79 1453 -57 c 1,39,-1
 1393 -379 l 1,0,1
695 235 m 1,40,-1
 868 235 l 1,41,-1
 868 1362 l 1,42,-1
 695 1362 l 1,43,-1
 695 235 l 1,40,-1
EndSplineSet
EndChar

StartChar: R
Encoding: 82 82 53
Width: 1553
GlyphClass: 2
Flags: W
LayerCount: 2
Fore
SplineSet
1243 805 m 2,0,-1
 1111 792 l 1,1,-1
 1111 753 l 1,2,-1
 1243 738 l 2,3,4
 1357 725 1357 725 1422 645.5 c 128,-1,5
 1487 566 1487 566 1487 437 c 2,6,-1
 1487 0 l 1,7,-1
 881 0 l 1,8,-1
 881 649 l 1,9,-1
 708 649 l 1,10,-1
 708 0 l 1,11,-1
 104 0 l 1,12,-1
 104 1595 l 1,13,-1
 1017 1595 l 2,14,15
 1130 1595 1130 1595 1210.5 1575.5 c 128,-1,16
 1291 1556 1291 1556 1351.5 1510 c 128,-1,17
 1412 1464 1412 1464 1441.5 1384.5 c 128,-1,18
 1471 1305 1471 1305 1471 1190 c 0,19,20
 1471 827 1471 827 1243 805 c 2,0,-1
708 881 m 1,21,-1
 881 881 l 1,22,-1
 881 1358 l 1,23,-1
 708 1358 l 1,24,-1
 708 881 l 1,21,-1
EndSplineSet
EndChar

StartChar: S
Encoding: 83 83 54
Width: 1469
GlyphClass: 2
Flags: W
LayerCount: 2
Fore
SplineSet
644 1125 m 1,0,-1
 647 1123 l 1,1,2
 647 1117 647 1117 649.5 1111 c 128,-1,3
 652 1105 652 1105 657.5 1100.5 c 128,-1,4
 663 1096 663 1096 668.5 1092.5 c 128,-1,5
 674 1089 674 1089 683.5 1085.5 c 128,-1,6
 693 1082 693 1082 699.5 1080 c 128,-1,7
 706 1078 706 1078 717.5 1075.5 c 128,-1,8
 729 1073 729 1073 735 1072 c 128,-1,9
 741 1071 741 1071 753 1069 c 128,-1,10
 765 1067 765 1067 769 1066 c 0,11,12
 994 1026 994 1026 1092 992 c 0,13,14
 1313 916 1313 916 1385 752 c 0,15,16
 1425 663 1425 663 1425 542 c 0,17,18
 1425 369 1425 369 1387.5 257 c 128,-1,19
 1350 145 1350 145 1264.5 79 c 128,-1,20
 1179 13 1179 13 1056.5 -13 c 128,-1,21
 934 -39 934 -39 747 -39 c 0,22,23
 679 -39 679 -39 625 -36.5 c 128,-1,24
 571 -34 571 -34 501.5 -25 c 128,-1,25
 432 -16 432 -16 379 0 c 128,-1,26
 326 16 326 16 270.5 45 c 128,-1,27
 215 74 215 74 177.5 113.5 c 128,-1,28
 140 153 140 153 113 212 c 128,-1,29
 86 271 86 271 79 345 c 0,30,31
 73 413 73 413 73 488 c 1,32,-1
 646 488 l 1,33,-1
 646 235 l 1,34,-1
 819 235 l 1,35,-1
 819 485 l 2,36,37
 819 504 819 504 809 518.5 c 128,-1,38
 799 533 799 533 777 544.5 c 128,-1,39
 755 556 755 556 742 561 c 128,-1,40
 729 566 729 566 701 575 c 0,41,42
 668 586 668 586 615 601.5 c 128,-1,43
 562 617 562 617 525.5 628 c 128,-1,44
 489 639 489 639 439.5 656 c 128,-1,45
 390 673 390 673 355 688.5 c 128,-1,46
 320 704 320 704 278.5 727.5 c 128,-1,47
 237 751 237 751 208.5 776.5 c 128,-1,48
 180 802 180 802 151 836.5 c 128,-1,49
 122 871 122 871 105 910.5 c 128,-1,50
 88 950 88 950 77.5 1001 c 128,-1,51
 67 1052 67 1052 67 1111 c 0,52,53
 67 1203 67 1203 84 1277.5 c 128,-1,54
 101 1352 101 1352 131 1406 c 128,-1,55
 161 1460 161 1460 207.5 1500 c 128,-1,56
 254 1540 254 1540 306.5 1565 c 128,-1,57
 359 1590 359 1590 427.5 1605 c 128,-1,58
 496 1620 496 1620 564.5 1625.5 c 128,-1,59
 633 1631 633 1631 717 1631 c 0,60,61
 806 1631 806 1631 874 1626.5 c 128,-1,62
 942 1622 942 1622 1010.5 1610 c 128,-1,63
 1079 1598 1079 1598 1128.5 1577 c 128,-1,64
 1178 1556 1178 1556 1222.5 1522 c 128,-1,65
 1267 1488 1267 1488 1294 1441 c 128,-1,66
 1321 1394 1321 1394 1337 1328.5 c 128,-1,67
 1353 1263 1353 1263 1353 1180 c 1,68,-1
 817 1180 l 1,69,-1
 817 1358 l 1,70,-1
 644 1358 l 1,71,-1
 644 1125 l 1,0,-1
EndSplineSet
EndChar

StartChar: T
Encoding: 84 84 55
Width: 1324
GlyphClass: 2
Flags: W
LayerCount: 2
Fore
SplineSet
1321 1595 m 1,0,-1
 1321 1326 l 1,1,-1
 965 1326 l 1,2,-1
 965 0 l 1,3,-1
 361 0 l 1,4,-1
 361 1326 l 1,5,-1
 8 1326 l 1,6,-1
 8 1595 l 1,7,-1
 1321 1595 l 1,0,-1
EndSplineSet
EndChar

StartChar: U
Encoding: 85 85 56
Width: 1556
GlyphClass: 2
Flags: W
LayerCount: 2
Fore
SplineSet
701 234 m 1,0,-1
 874 234 l 1,1,-1
 874 1594 l 1,2,-1
 1479 1594 l 1,3,-1
 1479 370 l 2,4,5
 1479 292 1479 292 1455.5 229.5 c 128,-1,6
 1432 167 1432 167 1395 125 c 128,-1,7
 1358 83 1358 83 1300.5 52 c 128,-1,8
 1243 21 1243 21 1186 4 c 128,-1,9
 1129 -13 1129 -13 1054.5 -23 c 128,-1,10
 980 -33 980 -33 920 -36 c 128,-1,11
 860 -39 860 -39 786 -39 c 0,12,13
 717 -39 717 -39 660 -36.5 c 128,-1,14
 603 -34 603 -34 529 -24 c 128,-1,15
 455 -14 455 -14 397.5 3 c 128,-1,16
 340 20 340 20 281.5 51 c 128,-1,17
 223 82 223 82 184.5 124 c 128,-1,18
 146 166 146 166 121.5 229.5 c 128,-1,19
 97 293 97 293 97 371 c 2,20,-1
 97 1595 l 1,21,-1
 701 1595 l 1,22,-1
 701 234 l 1,0,-1
EndSplineSet
EndChar

StartChar: V
Encoding: 86 86 57
Width: 1526
GlyphClass: 2
Flags: W
LayerCount: 2
Fore
SplineSet
733 681 m 1,0,-1
 746 412 l 1,1,-1
 785 412 l 1,2,-1
 800 681 l 1,3,-1
 912 1595 l 1,4,-1
 1504 1595 l 1,5,-1
 1186 0 l 1,6,-1
 344 0 l 1,7,-1
 26 1595 l 1,8,-1
 617 1595 l 1,9,-1
 733 681 l 1,0,-1
EndSplineSet
EndChar

StartChar: W
Encoding: 87 87 58
Width: 2108
GlyphClass: 2
Flags: W
LayerCount: 2
Fore
SplineSet
1401 853 m 1,0,-1
 1418 584 l 1,1,-1
 1450 586 l 1,2,-1
 1544 1595 l 1,3,-1
 2075 1595 l 1,4,-1
 1836 0 l 1,5,-1
 1174 0 l 1,6,-1
 1076 628 l 1,7,-1
 1061 927 l 1,8,-1
 1022 927 l 1,9,-1
 1009 628 l 1,10,-1
 909 0 l 1,11,-1
 267 0 l 1,12,-1
 38 1595 l 1,13,-1
 621 1595 l 1,14,-1
 666 584 l 1,15,-1
 705 584 l 1,16,-1
 721 853 l 1,17,-1
 805 1595 l 1,18,-1
 1319 1595 l 1,19,-1
 1401 853 l 1,0,-1
EndSplineSet
EndChar

StartChar: X
Encoding: 88 88 59
Width: 1539
GlyphClass: 2
Flags: W
LayerCount: 2
Fore
SplineSet
590 0 m 1,0,-1
 22 0 l 1,1,-1
 349 782 l 1,2,-1
 22 1595 l 1,3,-1
 594 1595 l 1,4,-1
 740 1157 l 1,5,-1
 757 1041 l 1,6,-1
 786 1041 l 1,7,-1
 803 1157 l 1,8,-1
 954 1595 l 1,9,-1
 1525 1595 l 1,10,-1
 1195 782 l 1,11,-1
 1525 0 l 1,12,-1
 950 0 l 1,13,-1
 799 438 l 1,14,-1
 782 554 l 1,15,-1
 753 554 l 1,16,-1
 736 438 l 1,17,-1
 590 0 l 1,0,-1
EndSplineSet
EndChar

StartChar: Y
Encoding: 89 89 60
Width: 1552
GlyphClass: 2
Flags: W
LayerCount: 2
Fore
SplineSet
746 1021 m 1,0,-1
 763 815 l 1,1,-1
 792 815 l 1,2,-1
 809 1021 l 1,3,-1
 968 1595 l 1,4,-1
 1524 1595 l 1,5,-1
 1082 449 l 1,6,-1
 1082 0 l 1,7,-1
 477 0 l 1,8,-1
 477 459 l 1,9,-1
 32 1595 l 1,10,-1
 592 1595 l 1,11,-1
 746 1021 l 1,0,-1
EndSplineSet
EndChar

StartChar: Z
Encoding: 90 90 61
Width: 1138
GlyphClass: 2
Flags: W
LayerCount: 2
Fore
SplineSet
1092 1595 m 1,0,-1
 745 294 l 1,1,-1
 1082 294 l 1,2,-1
 1082 0 l 1,3,-1
 56 0 l 1,4,-1
 440 1304 l 1,5,-1
 68 1304 l 1,6,-1
 68 1595 l 1,7,-1
 1092 1595 l 1,0,-1
EndSplineSet
EndChar

StartChar: bracketleft
Encoding: 91 91 62
Width: 1111
GlyphClass: 2
Flags: W
LayerCount: 2
Fore
SplineSet
100 1819 m 1,0,-1
 1075 1819 l 1,1,-1
 1075 1578 l 1,2,-1
 734 1578 l 1,3,-1
 734 -77 l 1,4,-1
 1075 -77 l 1,5,-1
 1075 -319 l 1,6,-1
 100 -319 l 1,7,-1
 100 1819 l 1,0,-1
EndSplineSet
EndChar

StartChar: backslash
Encoding: 92 92 63
Width: 1053
GlyphClass: 2
Flags: W
LayerCount: 2
Fore
SplineSet
587 1595 m 1,0,-1
 939 0 l 1,1,-1
 464 0 l 1,2,-1
 113 1595 l 1,3,-1
 587 1595 l 1,0,-1
EndSplineSet
EndChar

StartChar: bracketright
Encoding: 93 93 64
Width: 1108
GlyphClass: 2
Flags: W
LayerCount: 2
Fore
SplineSet
1010 -319 m 1,0,-1
 35 -319 l 1,1,-1
 35 -77 l 1,2,-1
 376 -77 l 1,3,-1
 376 1578 l 1,4,-1
 35 1578 l 1,5,-1
 35 1819 l 1,6,-1
 1010 1819 l 1,7,-1
 1010 -319 l 1,0,-1
EndSplineSet
EndChar

StartChar: asciicircum
Encoding: 94 94 65
Width: 1222
GlyphClass: 2
Flags: W
LayerCount: 2
Fore
SplineSet
896 676 m 1,0,-1
 1179 61 l 1,1,-1
 698 61 l 1,2,-1
 610 381 l 1,3,-1
 526 61 l 1,4,-1
 46 61 l 1,5,-1
 318 676 l 1,6,-1
 896 676 l 1,0,-1
EndSplineSet
EndChar

StartChar: underscore
Encoding: 95 95 66
Width: 1042
GlyphClass: 2
Flags: W
LayerCount: 2
Fore
SplineSet
967 1 m 1,0,-1
 967 -435 l 1,1,-1
 78 -435 l 1,2,-1
 78 1 l 1,3,-1
 967 1 l 1,0,-1
EndSplineSet
EndChar

StartChar: grave
Encoding: 96 96 67
Width: 873
GlyphClass: 2
Flags: W
LayerCount: 2
Fore
SplineSet
814 1480 m 0,0,1
 848 1450 848 1450 848 1420 c 0,2,3
 848 1399 848 1399 830 1385 c 128,-1,4
 812 1371 812 1371 785 1371 c 0,5,6
 767 1371 767 1371 753 1376 c 0,7,8
 702 1392 702 1392 592 1423 c 128,-1,9
 482 1454 482 1454 413.5 1474.5 c 128,-1,10
 345 1495 345 1495 269 1522 c 128,-1,11
 193 1549 193 1549 157 1570 c 0,12,13
 99 1604 99 1604 70 1652 c 128,-1,14
 41 1700 41 1700 41 1752 c 0,15,16
 41 1825 41 1825 90.5 1877.5 c 128,-1,17
 140 1930 140 1930 215 1930 c 0,18,19
 276 1930 276 1930 340 1893 c 0,20,21
 375 1873 375 1873 437.5 1821.5 c 128,-1,22
 500 1770 500 1770 549.5 1724.5 c 128,-1,23
 599 1679 599 1679 689 1595.5 c 128,-1,24
 779 1512 779 1512 814 1480 c 0,0,1
EndSplineSet
EndChar

StartChar: a
Encoding: 97 97 68
Width: 1464
GlyphClass: 2
Flags: W
LayerCount: 2
Fore
SplineSet
1381 257 m 1,0,1
 1382 129 1382 129 1410 1 c 1,2,-1
 890 1 l 1,3,-1
 834 139 l 1,4,5
 787 61 787 61 700.5 17 c 128,-1,6
 614 -27 614 -27 494 -27 c 0,7,8
 280 -27 280 -27 176.5 75 c 128,-1,9
 73 177 73 177 73 388 c 0,10,11
 73 613 73 613 191 718.5 c 128,-1,12
 309 824 309 824 545 824 c 0,13,14
 686 824 686 824 811 783 c 1,15,-1
 811 1106 l 1,16,-1
 672 1106 l 1,17,-1
 672 915 l 1,18,-1
 147 895 l 1,19,20
 136 959 136 959 136 1005 c 0,21,22
 136 1067 136 1067 157.5 1117 c 128,-1,23
 179 1167 179 1167 213.5 1200 c 128,-1,24
 248 1233 248 1233 300 1257 c 128,-1,25
 352 1281 352 1281 402 1294.5 c 128,-1,26
 452 1308 452 1308 517 1315.5 c 128,-1,27
 582 1323 582 1323 631 1325 c 128,-1,28
 680 1327 680 1327 740 1327 c 0,29,30
 798 1327 798 1327 843 1326 c 128,-1,31
 888 1325 888 1325 944 1320.5 c 128,-1,32
 1000 1316 1000 1316 1043 1308 c 128,-1,33
 1086 1300 1086 1300 1133.5 1286 c 128,-1,34
 1181 1272 1181 1272 1215.5 1253 c 128,-1,35
 1250 1234 1250 1234 1282.5 1205.5 c 128,-1,36
 1315 1177 1315 1177 1335.5 1141 c 128,-1,37
 1356 1105 1356 1105 1368.5 1057 c 128,-1,38
 1381 1009 1381 1009 1381 952 c 2,39,-1
 1381 257 l 1,0,1
645 653 m 1,40,-1
 645 200 l 1,41,-1
 811 200 l 1,42,-1
 811 653 l 1,43,-1
 645 653 l 1,40,-1
EndSplineSet
EndChar

StartChar: b
Encoding: 98 98 69
Width: 1481
GlyphClass: 2
Flags: W
LayerCount: 2
Fore
SplineSet
997 -27 m 0,0,1
 887 -27 887 -27 797 10.5 c 128,-1,2
 707 48 707 48 662 114 c 1,3,-1
 625 0 l 1,4,-1
 105 0 l 1,5,-1
 105 1710 l 1,6,-1
 676 1710 l 1,7,-1
 676 1215 l 1,8,9
 773 1327 773 1327 1000 1327 c 0,10,11
 1414 1327 1414 1327 1414 940 c 2,12,-1
 1414 377 l 2,13,14
 1414 -27 1414 -27 997 -27 c 0,0,1
676 199 m 1,15,-1
 843 199 l 1,16,-1
 843 1105 l 1,17,-1
 676 1105 l 1,18,-1
 676 199 l 1,15,-1
EndSplineSet
EndChar

StartChar: c
Encoding: 99 99 70
Width: 1462
GlyphClass: 2
Flags: W
LayerCount: 2
Fore
SplineSet
1396 539 m 1,0,-1
 1397 352 l 2,1,2
 1397 293 1397 293 1384 243.5 c 128,-1,3
 1371 194 1371 194 1350 158 c 128,-1,4
 1329 122 1329 122 1294 93 c 128,-1,5
 1259 64 1259 64 1224 45 c 128,-1,6
 1189 26 1189 26 1139.5 12 c 128,-1,7
 1090 -2 1090 -2 1047.5 -9.5 c 128,-1,8
 1005 -17 1005 -17 947 -21 c 128,-1,9
 889 -25 889 -25 845.5 -26 c 128,-1,10
 802 -27 802 -27 743 -27 c 0,11,12
 666 -27 666 -27 608.5 -24.5 c 128,-1,13
 551 -22 551 -22 478.5 -13 c 128,-1,14
 406 -4 406 -4 354 11.5 c 128,-1,15
 302 27 302 27 248.5 55.5 c 128,-1,16
 195 84 195 84 161.5 123.5 c 128,-1,17
 128 163 128 163 107 222 c 128,-1,18
 86 281 86 281 86 355 c 2,19,-1
 86 955 l 2,20,21
 86 1013 86 1013 99.5 1061.5 c 128,-1,22
 113 1110 113 1110 135 1145.5 c 128,-1,23
 157 1181 157 1181 193 1209 c 128,-1,24
 229 1237 229 1237 265 1256 c 128,-1,25
 301 1275 301 1275 351.5 1288.5 c 128,-1,26
 402 1302 402 1302 445.5 1309.5 c 128,-1,27
 489 1317 489 1317 547 1321 c 128,-1,28
 605 1325 605 1325 648 1326 c 128,-1,29
 691 1327 691 1327 749 1327 c 0,30,31
 824 1327 824 1327 867 1326 c 128,-1,32
 910 1325 910 1325 987.5 1318.5 c 128,-1,33
 1065 1312 1065 1312 1112.5 1299.5 c 128,-1,34
 1160 1287 1160 1287 1220 1261.5 c 128,-1,35
 1280 1236 1280 1236 1314 1199.5 c 128,-1,36
 1348 1163 1348 1163 1372 1106.5 c 128,-1,37
 1396 1050 1396 1050 1396 978 c 2,38,-1
 1396 787 l 1,39,-1
 825 787 l 1,40,-1
 825 1105 l 1,41,-1
 658 1105 l 1,42,-1
 658 199 l 1,43,-1
 825 199 l 1,44,-1
 825 539 l 1,45,-1
 1396 539 l 1,0,-1
EndSplineSet
EndChar

StartChar: d
Encoding: 100 100 71
Width: 1478
GlyphClass: 2
Flags: W
LayerCount: 2
Fore
SplineSet
500 1327 m 0,0,1
 726 1327 726 1327 823 1215 c 1,2,-1
 823 1710 l 1,3,-1
 1394 1710 l 1,4,-1
 1394 0 l 1,5,-1
 874 0 l 1,6,-1
 837 114 l 1,7,8
 791 48 791 48 701.5 10.5 c 128,-1,9
 612 -27 612 -27 502 -27 c 0,10,11
 85 -27 85 -27 85 377 c 2,12,-1
 85 940 l 2,13,14
 85 1327 85 1327 500 1327 c 0,0,1
822 1105 m 1,15,-1
 655 1105 l 1,16,-1
 655 199 l 1,17,-1
 822 199 l 1,18,-1
 822 1105 l 1,15,-1
EndSplineSet
EndChar

StartChar: e
Encoding: 101 101 72
Width: 1463
GlyphClass: 2
Flags: W
LayerCount: 2
Fore
SplineSet
1396 483 m 1,0,1
 1404 422 1404 422 1404 380 c 0,2,3
 1404 157 1404 157 1245 65 c 128,-1,4
 1086 -27 1086 -27 743 -27 c 0,5,6
 664 -27 664 -27 610 -25 c 128,-1,7
 556 -23 556 -23 481 -15 c 128,-1,8
 406 -7 406 -7 355.5 8 c 128,-1,9
 305 23 305 23 250 51 c 128,-1,10
 195 79 195 79 162 118.5 c 128,-1,11
 129 158 129 158 107.5 217.5 c 128,-1,12
 86 277 86 277 86 353 c 2,13,-1
 86 953 l 2,14,15
 86 1026 86 1026 108 1084.5 c 128,-1,16
 130 1143 130 1143 164.5 1181.5 c 128,-1,17
 199 1220 199 1220 254.5 1248 c 128,-1,18
 310 1276 310 1276 362.5 1291 c 128,-1,19
 415 1306 415 1306 487 1314.5 c 128,-1,20
 559 1323 559 1323 613.5 1325 c 128,-1,21
 668 1327 668 1327 741 1327 c 0,22,23
 798 1327 798 1327 841 1326 c 128,-1,24
 884 1325 884 1325 941.5 1321 c 128,-1,25
 999 1317 999 1317 1041.5 1309.5 c 128,-1,26
 1084 1302 1084 1302 1134 1288.5 c 128,-1,27
 1184 1275 1184 1275 1220 1256 c 128,-1,28
 1256 1237 1256 1237 1291 1208.5 c 128,-1,29
 1326 1180 1326 1180 1347.5 1144.5 c 128,-1,30
 1369 1109 1369 1109 1382.5 1060.5 c 128,-1,31
 1396 1012 1396 1012 1396 954 c 2,32,-1
 1396 604 l 1,33,-1
 658 604 l 1,34,-1
 658 199 l 1,35,-1
 825 199 l 1,36,-1
 825 483 l 1,37,-1
 1396 483 l 1,0,1
658 777 m 1,38,-1
 826 777 l 1,39,-1
 826 1105 l 1,40,-1
 658 1105 l 1,41,-1
 658 777 l 1,38,-1
EndSplineSet
EndChar

StartChar: f
Encoding: 102 102 73
Width: 1205
GlyphClass: 2
Flags: W
LayerCount: 2
Fore
SplineSet
263 1300 m 1,0,1
 263 1420 263 1420 296 1504 c 128,-1,2
 329 1588 329 1588 395.5 1637.5 c 128,-1,3
 462 1687 462 1687 554 1709 c 128,-1,4
 646 1731 646 1731 773 1731 c 0,5,6
 982 1731 982 1731 1139 1683 c 1,7,-1
 1139 1477 l 1,8,-1
 834 1477 l 1,9,-1
 834 1300 l 1,10,-1
 1148 1300 l 1,11,-1
 1148 1098 l 1,12,-1
 834 1098 l 1,13,-1
 834 0 l 1,14,-1
 263 0 l 1,15,-1
 263 1098 l 1,16,-1
 56 1098 l 1,17,-1
 56 1300 l 1,18,-1
 263 1300 l 1,0,1
EndSplineSet
EndChar

StartChar: g
Encoding: 103 103 74
Width: 1470
GlyphClass: 2
Flags: W
LayerCount: 2
Fore
SplineSet
508 1327 m 1,0,1
 744 1325 744 1325 847 1187 c 1,2,-1
 883 1299 l 1,3,-1
 1394 1299 l 1,4,-1
 1394 236 l 2,5,6
 1394 -78 1394 -78 1219.5 -225 c 128,-1,7
 1045 -372 1045 -372 675 -372 c 0,8,9
 419 -372 419 -372 198 -311 c 1,10,-1
 255 -20 l 1,11,12
 396 -59 396 -59 601 -59 c 0,13,14
 774 -59 774 -59 836 -22 c 1,15,-1
 836 205 l 1,16,17
 791 148 791 148 703 119.5 c 128,-1,18
 615 91 615 91 505 91 c 0,19,20
 85 91 85 91 85 482 c 2,21,-1
 85 927 l 2,22,23
 85 1327 85 1327 508 1327 c 1,0,1
823 1104 m 1,24,-1
 656 1104 l 1,25,-1
 656 316 l 1,26,-1
 823 316 l 1,27,-1
 823 1104 l 1,24,-1
EndSplineSet
EndChar

StartChar: h
Encoding: 104 104 75
Width: 1486
GlyphClass: 2
Flags: W
LayerCount: 2
Fore
SplineSet
997 1327 m 0,0,1
 1414 1327 1414 1327 1414 945 c 2,2,-1
 1414 0 l 1,3,-1
 843 0 l 1,4,-1
 843 1105 l 1,5,-1
 676 1105 l 1,6,-1
 676 0 l 1,7,-1
 105 0 l 1,8,-1
 105 1710 l 1,9,-1
 676 1710 l 1,10,-1
 676 1210 l 1,11,12
 717 1266 717 1266 805 1296.5 c 128,-1,13
 893 1327 893 1327 997 1327 c 0,0,1
EndSplineSet
EndChar

StartChar: i
Encoding: 105 105 76
Width: 759
GlyphClass: 2
Flags: W
LayerCount: 2
Fore
SplineSet
675 0 m 1,0,-1
 104 0 l 1,1,-1
 104 1300 l 1,2,-1
 675 1300 l 1,3,-1
 675 0 l 1,0,-1
675 1709 m 1,4,-1
 675 1425 l 1,5,-1
 104 1425 l 1,6,-1
 104 1709 l 1,7,-1
 675 1709 l 1,4,-1
EndSplineSet
EndChar

StartChar: j
Encoding: 106 106 77
Width: 868
GlyphClass: 2
Flags: W
LayerCount: 2
Fore
SplineSet
784 94 m 2,0,1
 784 -122 784 -122 667 -224 c 128,-1,2
 550 -326 550 -326 323 -326 c 0,3,4
 159 -326 159 -326 53 -305 c 1,5,-1
 23 -66 l 1,6,-1
 212 -66 l 1,7,-1
 212 1300 l 1,8,-1
 784 1300 l 1,9,-1
 784 94 l 2,0,1
784 1709 m 1,10,-1
 784 1425 l 1,11,-1
 212 1425 l 1,12,-1
 212 1709 l 1,13,-1
 784 1709 l 1,10,-1
EndSplineSet
EndChar

StartChar: k
Encoding: 107 107 78
Width: 1525
GlyphClass: 2
Flags: W
LayerCount: 2
Fore
SplineSet
105 0 m 1,0,-1
 105 1710 l 1,1,-1
 676 1710 l 1,2,-1
 676 798 l 1,3,-1
 945 1300 l 1,4,-1
 1531 1300 l 1,5,-1
 1200 690 l 1,6,-1
 1538 0 l 1,7,-1
 958 0 l 1,8,-1
 719 575 l 1,9,-1
 676 478 l 1,10,-1
 676 0 l 1,11,-1
 105 0 l 1,0,-1
EndSplineSet
EndChar

StartChar: l
Encoding: 108 108 79
Width: 760
GlyphClass: 2
Flags: W
LayerCount: 2
Fore
SplineSet
676 0 m 1,0,-1
 105 0 l 1,1,-1
 105 1710 l 1,2,-1
 676 1710 l 1,3,-1
 676 0 l 1,0,-1
EndSplineSet
EndChar

StartChar: m
Encoding: 109 109 80
Width: 2189
GlyphClass: 2
Flags: W
LayerCount: 2
Fore
SplineSet
1693 1327 m 0,0,1
 1897 1327 1897 1327 2006.5 1231 c 128,-1,2
 2116 1135 2116 1135 2116 944 c 2,3,-1
 2116 0 l 1,4,-1
 1553 0 l 1,5,-1
 1553 1105 l 1,6,-1
 1380 1105 l 1,7,8
 1387 1067 1387 1067 1387 1001 c 2,9,-1
 1387 0 l 1,10,-1
 830 0 l 1,11,-1
 830 1105 l 1,12,-1
 663 1105 l 1,13,-1
 663 0 l 1,14,-1
 100 0 l 1,15,-1
 100 1300 l 1,16,-1
 612 1300 l 1,17,-1
 649 1188 l 1,18,19
 697 1253 697 1253 795 1290 c 128,-1,20
 893 1327 893 1327 1007 1327 c 0,21,22
 1235 1327 1235 1327 1346 1191 c 1,23,24
 1392 1258 1392 1258 1482.5 1292.5 c 128,-1,25
 1573 1327 1573 1327 1693 1327 c 0,0,1
EndSplineSet
EndChar

StartChar: n
Encoding: 110 110 81
Width: 1482
GlyphClass: 2
Flags: W
LayerCount: 2
Fore
SplineSet
987 1327 m 0,0,1
 1192 1326 1192 1326 1300 1229 c 128,-1,2
 1408 1132 1408 1132 1408 944 c 2,3,-1
 1408 0 l 1,4,-1
 837 0 l 1,5,-1
 837 1105 l 1,6,-1
 670 1105 l 1,7,-1
 670 0 l 1,8,-1
 99 0 l 1,9,-1
 99 1300 l 1,10,-1
 609 1300 l 1,11,-1
 646 1188 l 1,12,13
 691 1251 691 1251 783 1289 c 128,-1,14
 875 1327 875 1327 987 1327 c 0,0,1
EndSplineSet
EndChar

StartChar: o
Encoding: 111 111 82
Width: 1465
GlyphClass: 2
Flags: W
LayerCount: 2
Fore
SplineSet
658 233 m 1,0,-1
 824 233 l 1,1,-1
 824 1105 l 1,2,-1
 658 1105 l 1,3,-1
 658 233 l 1,0,-1
745 -27 m 0,4,5
 683 -27 683 -27 638 -26 c 128,-1,6
 593 -25 593 -25 534.5 -20.5 c 128,-1,7
 476 -16 476 -16 433 -8.5 c 128,-1,8
 390 -1 390 -1 340.5 13 c 128,-1,9
 291 27 291 27 256 46.5 c 128,-1,10
 221 66 221 66 187.5 94.5 c 128,-1,11
 154 123 154 123 133 159.5 c 128,-1,12
 112 196 112 196 99.5 245 c 128,-1,13
 87 294 87 294 87 353 c 2,14,-1
 87 953 l 2,15,16
 87 1016 87 1016 102.5 1068.5 c 128,-1,17
 118 1121 118 1121 148.5 1158 c 128,-1,18
 179 1195 179 1195 216.5 1223.5 c 128,-1,19
 254 1252 254 1252 306 1270 c 128,-1,20
 358 1288 358 1288 406.5 1300 c 128,-1,21
 455 1312 455 1312 518.5 1317.5 c 128,-1,22
 582 1323 582 1323 632 1325 c 128,-1,23
 682 1327 682 1327 746 1327 c 0,24,25
 824 1327 824 1327 883.5 1324.5 c 128,-1,26
 943 1322 943 1322 1014 1313 c 128,-1,27
 1085 1304 1085 1304 1136.5 1288 c 128,-1,28
 1188 1272 1188 1272 1239.5 1244 c 128,-1,29
 1291 1216 1291 1216 1323.5 1177 c 128,-1,30
 1356 1138 1356 1138 1376 1081 c 128,-1,31
 1396 1024 1396 1024 1396 952 c 2,32,-1
 1396 352 l 2,33,34
 1396 263 1396 263 1371 196 c 128,-1,35
 1346 129 1346 129 1293 89 c 128,-1,36
 1240 49 1240 49 1187 24 c 128,-1,37
 1134 -1 1134 -1 1047.5 -11 c 128,-1,38
 961 -21 961 -21 901 -24 c 128,-1,39
 841 -27 841 -27 745 -27 c 0,4,5
EndSplineSet
EndChar

StartChar: p
Encoding: 112 112 83
Width: 1476
GlyphClass: 2
Flags: W
LayerCount: 2
Fore
SplineSet
989 -27 m 0,0,1
 758 -27 758 -27 670 87 c 1,2,-1
 670 -408 l 1,3,-1
 99 -408 l 1,4,-1
 99 1300 l 1,5,-1
 589 1300 l 1,6,-1
 626 1188 l 1,7,8
 675 1254 675 1254 772.5 1290.5 c 128,-1,9
 870 1327 870 1327 986 1327 c 0,10,11
 1409 1327 1409 1327 1409 926 c 2,12,-1
 1409 365 l 2,13,14
 1409 -27 1409 -27 989 -27 c 0,0,1
670 199 m 1,15,-1
 837 199 l 1,16,-1
 837 1105 l 1,17,-1
 670 1105 l 1,18,-1
 670 199 l 1,15,-1
EndSplineSet
EndChar

StartChar: q
Encoding: 113 113 84
Width: 1459
GlyphClass: 2
Flags: W
LayerCount: 2
Fore
SplineSet
86 926 m 1,0,-1
 85 926 l 1,1,2
 85 1327 85 1327 502 1327 c 0,3,4
 650 1327 650 1327 768 1248 c 0,5,6
 807 1222 807 1222 831 1188 c 1,7,-1
 869 1300 l 1,8,-1
 1381 1300 l 1,9,-1
 1381 -408 l 1,10,-1
 832 -408 l 1,11,-1
 832 87 l 1,12,13
 733 -27 733 -27 501 -27 c 0,14,15
 86 -27 86 -27 86 365 c 2,16,-1
 86 926 l 1,0,-1
817 1105 m 1,17,-1
 652 1105 l 1,18,-1
 652 199 l 1,19,-1
 817 199 l 1,20,-1
 817 1105 l 1,17,-1
EndSplineSet
EndChar

StartChar: r
Encoding: 114 114 85
Width: 981
GlyphClass: 2
Flags: W
LayerCount: 2
Fore
SplineSet
100 0 m 1,0,-1
 101 1300 l 1,1,-1
 587 1300 l 1,2,-1
 628 1153 l 1,3,4
 661 1232 661 1232 750 1278 c 128,-1,5
 839 1324 839 1324 957 1327 c 1,6,-1
 957 949 l 1,7,-1
 671 893 l 1,8,-1
 671 0 l 1,9,-1
 100 0 l 1,0,-1
EndSplineSet
EndChar

StartChar: s
Encoding: 115 115 86
Width: 1434
GlyphClass: 2
Flags: W
LayerCount: 2
Fore
SplineSet
807 446 m 1,0,-1
 808 446 l 1,1,2
 800 455 800 455 764 460 c 0,3,4
 745 463 745 463 697.5 469 c 128,-1,5
 650 475 650 475 623.5 478.5 c 128,-1,6
 597 482 597 482 557.5 488.5 c 128,-1,7
 518 495 518 495 485 502 c 128,-1,8
 452 509 452 509 422 517 c 0,9,10
 348 537 348 537 287.5 569 c 128,-1,11
 227 601 227 601 176.5 647 c 128,-1,12
 126 693 126 693 98 757.5 c 128,-1,13
 70 822 70 822 70 900 c 0,14,15
 70 977 70 977 88 1039 c 128,-1,16
 106 1101 106 1101 137 1145 c 128,-1,17
 168 1189 168 1189 216.5 1221.5 c 128,-1,18
 265 1254 265 1254 319 1274 c 128,-1,19
 373 1294 373 1294 444 1306 c 128,-1,20
 515 1318 515 1318 584 1322.5 c 128,-1,21
 653 1327 653 1327 739 1327 c 0,22,23
 809 1327 809 1327 859.5 1325 c 128,-1,24
 910 1323 910 1323 978 1315 c 128,-1,25
 1046 1307 1046 1307 1094 1292.5 c 128,-1,26
 1142 1278 1142 1278 1193 1250 c 128,-1,27
 1244 1222 1244 1222 1275 1184 c 128,-1,28
 1306 1146 1306 1146 1326.5 1087.5 c 128,-1,29
 1347 1029 1347 1029 1347 956 c 0,30,31
 1347 887 1347 887 1346 872 c 1,32,-1
 807 902 l 1,33,-1
 807 1063 l 1,34,-1
 640 1063 l 1,35,-1
 640 861 l 1,36,37
 649 852 649 852 685 846 c 0,38,39
 712 842 712 842 791 830.5 c 128,-1,40
 870 819 870 819 925 809 c 128,-1,41
 980 799 980 799 1027 786 c 0,42,43
 1099 766 1099 766 1158.5 736.5 c 128,-1,44
 1218 707 1218 707 1269 663.5 c 128,-1,45
 1320 620 1320 620 1349 557.5 c 128,-1,46
 1378 495 1378 495 1378 420 c 0,47,48
 1378 333 1378 333 1358 265 c 128,-1,49
 1338 197 1338 197 1305.5 150.5 c 128,-1,50
 1273 104 1273 104 1220.5 70.5 c 128,-1,51
 1168 37 1168 37 1115.5 18.5 c 128,-1,52
 1063 0 1063 0 989 -10.5 c 128,-1,53
 915 -21 915 -21 854 -24 c 128,-1,54
 793 -27 793 -27 710 -27 c 0,55,56
 645 -27 645 -27 596 -25.5 c 128,-1,57
 547 -24 547 -24 491.5 -18.5 c 128,-1,58
 436 -13 436 -13 395 -3.5 c 128,-1,59
 354 6 354 6 311 22 c 128,-1,60
 268 38 268 38 238 60 c 128,-1,61
 208 82 208 82 180.5 114 c 128,-1,62
 153 146 153 146 136 186.5 c 128,-1,63
 119 227 119 227 109.5 280 c 128,-1,64
 100 333 100 333 100 397 c 0,65,66
 100 420 100 420 101 432 c 1,67,-1
 640 400 l 1,68,-1
 640 233 l 1,69,-1
 807 233 l 1,70,-1
 807 446 l 1,0,-1
EndSplineSet
EndChar

StartChar: t
Encoding: 116 116 87
Width: 968
GlyphClass: 2
Flags: W
LayerCount: 2
Fore
SplineSet
764 0 m 1,0,-1
 193 0 l 1,1,-1
 193 1100 l 1,2,-1
 56 1100 l 1,3,-1
 56 1300 l 1,4,-1
 193 1300 l 1,5,-1
 193 1595 l 1,6,-1
 764 1595 l 1,7,-1
 764 1300 l 1,8,-1
 923 1300 l 1,9,-1
 923 1100 l 1,10,-1
 764 1100 l 1,11,-1
 764 0 l 1,0,-1
EndSplineSet
EndChar

StartChar: u
Encoding: 117 117 88
Width: 1478
GlyphClass: 2
Flags: W
LayerCount: 2
Fore
SplineSet
515 -27 m 0,0,1
 309 -27 309 -27 200 69 c 128,-1,2
 91 165 91 165 91 360 c 2,3,-1
 91 1300 l 1,4,-1
 663 1300 l 1,5,-1
 663 233 l 1,6,-1
 829 233 l 1,7,-1
 829 1300 l 1,8,-1
 1401 1300 l 1,9,-1
 1401 0 l 1,10,-1
 884 0 l 1,11,-1
 847 112 l 1,12,13
 808 48 808 48 715 10.5 c 128,-1,14
 622 -27 622 -27 515 -27 c 0,0,1
EndSplineSet
EndChar

StartChar: v
Encoding: 118 118 89
Width: 1348
GlyphClass: 2
Flags: W
LayerCount: 2
Fore
SplineSet
635 686 m 1,0,-1
 652 340 l 1,1,-1
 701 340 l 1,2,-1
 718 686 l 1,3,-1
 786 1300 l 1,4,-1
 1347 1300 l 1,5,-1
 1073 0 l 1,6,-1
 279 0 l 1,7,-1
 4 1300 l 1,8,-1
 565 1300 l 1,9,-1
 635 686 l 1,0,-1
EndSplineSet
EndChar

StartChar: w
Encoding: 119 119 90
Width: 2066
GlyphClass: 2
Flags: W
LayerCount: 2
Fore
SplineSet
992 435 m 1,0,-1
 940 0 l 1,1,-1
 250 0 l 1,2,-1
 32 1300 l 1,3,-1
 562 1300 l 1,4,-1
 617 761 l 1,5,-1
 637 385 l 1,6,-1
 681 385 l 1,7,-1
 711 761 l 1,8,-1
 763 1300 l 1,9,-1
 1308 1300 l 1,10,-1
 1359 761 l 1,11,-1
 1385 385 l 1,12,-1
 1429 385 l 1,13,-1
 1449 761 l 1,14,-1
 1502 1300 l 1,15,-1
 2031 1300 l 1,16,-1
 1813 0 l 1,17,-1
 1119 0 l 1,18,-1
 1065 435 l 1,19,-1
 1043 801 l 1,20,-1
 1013 801 l 1,21,-1
 992 435 l 1,0,-1
EndSplineSet
EndChar

StartChar: x
Encoding: 120 120 91
Width: 1395
GlyphClass: 2
Flags: W
LayerCount: 2
Fore
SplineSet
45 0 m 1,0,-1
 418 652 l 1,1,-1
 45 1300 l 1,2,-1
 617 1300 l 1,3,-1
 703 1049 l 1,4,-1
 790 1300 l 1,5,-1
 1361 1300 l 1,6,-1
 988 652 l 1,7,-1
 1361 0 l 1,8,-1
 794 0 l 1,9,-1
 703 258 l 1,10,-1
 612 0 l 1,11,-1
 45 0 l 1,0,-1
EndSplineSet
EndChar

StartChar: y
Encoding: 121 121 92
Width: 1342
GlyphClass: 2
Flags: W
LayerCount: 2
Fore
SplineSet
628 693 m 1,0,-1
 639 417 l 1,1,-1
 709 417 l 1,2,-1
 721 693 l 1,3,-1
 781 1300 l 1,4,-1
 1333 1300 l 1,5,-1
 1113 14 l 2,6,7
 1098 -77 1098 -77 1062 -146 c 128,-1,8
 1026 -215 1026 -215 979 -257 c 128,-1,9
 932 -299 932 -299 867 -325 c 128,-1,10
 802 -351 802 -351 735.5 -361 c 128,-1,11
 669 -371 669 -371 588 -371 c 0,12,13
 461 -371 461 -371 192 -318 c 1,14,-1
 235 -13 l 1,15,16
 395 -53 395 -53 522 -53 c 0,17,18
 629 -53 629 -53 705 -24 c 1,19,-1
 705 135 l 1,20,21
 580 89 580 89 449 89 c 0,22,23
 256 89 256 89 211 277 c 1,24,-1
 20 1300 l 1,25,-1
 553 1300 l 1,26,-1
 628 693 l 1,0,-1
EndSplineSet
EndChar

StartChar: z
Encoding: 122 122 93
Width: 1118
GlyphClass: 2
Flags: W
LayerCount: 2
Fore
SplineSet
100 1300 m 1,0,-1
 1052 1300 l 1,1,-1
 1052 1079 l 1,2,-1
 696 246 l 1,3,-1
 1059 246 l 1,4,-1
 1059 0 l 1,5,-1
 76 0 l 1,6,-1
 76 233 l 1,7,-1
 436 1051 l 1,8,-1
 100 1051 l 1,9,-1
 100 1300 l 1,0,-1
EndSplineSet
EndChar

StartChar: braceleft
Encoding: 123 123 94
Width: 1132
GlyphClass: 2
Flags: W
LayerCount: 2
Fore
SplineSet
1100 1925 m 1,0,-1
 1100 1646 l 1,1,2
 1009 1646 1009 1646 944 1624 c 128,-1,3
 879 1602 879 1602 842.5 1563 c 128,-1,4
 806 1524 806 1524 784.5 1473 c 128,-1,5
 763 1422 763 1422 755 1361.5 c 128,-1,6
 747 1301 747 1301 744 1238 c 128,-1,7
 741 1175 741 1175 736 1110.5 c 128,-1,8
 731 1046 731 1046 720 989 c 128,-1,9
 709 932 709 932 681 880.5 c 128,-1,10
 653 829 653 829 609 796 c 1,11,12
 653 767 653 767 681 718.5 c 128,-1,13
 709 670 709 670 720 614.5 c 128,-1,14
 731 559 731 559 736 494.5 c 128,-1,15
 741 430 741 430 744.5 366.5 c 128,-1,16
 748 303 748 303 755.5 241.5 c 128,-1,17
 763 180 763 180 785 127.5 c 128,-1,18
 807 75 807 75 843.5 35 c 128,-1,19
 880 -5 880 -5 945 -28 c 128,-1,20
 1010 -51 1010 -51 1101 -51 c 1,21,-1
 1101 -330 l 1,22,23
 892 -330 892 -330 748 -296 c 128,-1,24
 604 -262 604 -262 499.5 -181.5 c 128,-1,25
 395 -101 395 -101 341 33 c 128,-1,26
 287 167 287 167 273 366 c 0,27,28
 271 384 271 384 268 415 c 128,-1,29
 265 446 265 446 263 466.5 c 128,-1,30
 261 487 261 487 256 514.5 c 128,-1,31
 251 542 251 542 244 560.5 c 128,-1,32
 237 579 237 579 223.5 599 c 128,-1,33
 210 619 210 619 192 631 c 128,-1,34
 174 643 174 643 147 650.5 c 128,-1,35
 120 658 120 658 85 658 c 1,36,-1
 85 937 l 1,37,38
 119 937 119 937 146 944.5 c 128,-1,39
 173 952 173 952 191 963 c 128,-1,40
 209 974 209 974 222.5 993.5 c 128,-1,41
 236 1013 236 1013 243 1030.5 c 128,-1,42
 250 1048 250 1048 255.5 1076 c 128,-1,43
 261 1104 261 1104 263 1124 c 128,-1,44
 265 1144 265 1144 268.5 1176.5 c 128,-1,45
 272 1209 272 1209 274 1228 c 0,46,47
 309 1493 309 1493 401.5 1643.5 c 128,-1,48
 494 1794 494 1794 659.5 1859.5 c 128,-1,49
 825 1925 825 1925 1100 1925 c 1,0,-1
EndSplineSet
EndChar

StartChar: bar
Encoding: 124 124 95
Width: 831
GlyphClass: 2
Flags: W
LayerCount: 2
Fore
SplineSet
700 1795 m 1,0,-1
 700 -100 l 1,1,-1
 129 -100 l 1,2,-1
 129 1795 l 1,3,-1
 700 1795 l 1,0,-1
EndSplineSet
EndChar

StartChar: braceright
Encoding: 125 125 96
Width: 1131
GlyphClass: 2
Flags: W
LayerCount: 2
Fore
SplineSet
59 1646 m 1,0,-1
 59 1925 l 1,1,2
 334 1925 334 1925 499.5 1859.5 c 128,-1,3
 665 1794 665 1794 757.5 1643.5 c 128,-1,4
 850 1493 850 1493 885 1228 c 0,5,6
 887 1209 887 1209 890.5 1176.5 c 128,-1,7
 894 1144 894 1144 896 1124 c 128,-1,8
 898 1104 898 1104 903.5 1076 c 128,-1,9
 909 1048 909 1048 916 1030.5 c 128,-1,10
 923 1013 923 1013 936.5 993.5 c 128,-1,11
 950 974 950 974 968 963 c 128,-1,12
 986 952 986 952 1013 944.5 c 128,-1,13
 1040 937 1040 937 1074 937 c 1,14,-1
 1074 658 l 1,15,16
 1039 658 1039 658 1012 650.5 c 128,-1,17
 985 643 985 643 967 631 c 128,-1,18
 949 619 949 619 935.5 599 c 128,-1,19
 922 579 922 579 915 560.5 c 128,-1,20
 908 542 908 542 903 514.5 c 128,-1,21
 898 487 898 487 896 466.5 c 128,-1,22
 894 446 894 446 891 415 c 128,-1,23
 888 384 888 384 886 366 c 0,24,25
 872 167 872 167 818 33 c 128,-1,26
 764 -101 764 -101 659.5 -181.5 c 128,-1,27
 555 -262 555 -262 411 -296 c 128,-1,28
 267 -330 267 -330 58 -330 c 1,29,-1
 58 -51 l 1,30,31
 149 -51 149 -51 214 -28 c 128,-1,32
 279 -5 279 -5 315.5 35 c 128,-1,33
 352 75 352 75 374 127.5 c 128,-1,34
 396 180 396 180 403.5 241.5 c 128,-1,35
 411 303 411 303 414.5 366.5 c 128,-1,36
 418 430 418 430 423 494.5 c 128,-1,37
 428 559 428 559 439 614.5 c 128,-1,38
 450 670 450 670 478 718.5 c 128,-1,39
 506 767 506 767 550 796 c 1,40,41
 506 829 506 829 478 880.5 c 128,-1,42
 450 932 450 932 439 989 c 128,-1,43
 428 1046 428 1046 423 1110.5 c 128,-1,44
 418 1175 418 1175 415 1238 c 128,-1,45
 412 1301 412 1301 404 1361.5 c 128,-1,46
 396 1422 396 1422 374.5 1473 c 128,-1,47
 353 1524 353 1524 316.5 1563 c 128,-1,48
 280 1602 280 1602 215 1624 c 128,-1,49
 150 1646 150 1646 59 1646 c 1,0,-1
EndSplineSet
EndChar

StartChar: asciitilde
Encoding: 126 126 97
Width: 1424
GlyphClass: 2
Flags: W
LayerCount: 2
Fore
SplineSet
1057 642 m 1,0,1
 1057 713 1057 713 1031 759.5 c 128,-1,2
 1005 806 1005 806 950 806 c 0,3,4
 905 806 905 806 861 786.5 c 128,-1,5
 817 767 817 767 779 739 c 128,-1,6
 741 711 741 711 700 683 c 128,-1,7
 659 655 659 655 602 635.5 c 128,-1,8
 545 616 545 616 480 616 c 0,9,10
 396 616 396 616 330.5 636.5 c 128,-1,11
 265 657 265 657 221 697 c 128,-1,12
 177 737 177 737 147 786.5 c 128,-1,13
 117 836 117 836 101.5 902 c 128,-1,14
 86 968 86 968 79.5 1032.5 c 128,-1,15
 73 1097 73 1097 73 1176 c 1,16,-1
 369 1176 l 1,17,18
 369 1008 369 1008 481 1008 c 0,19,20
 533 1008 533 1008 583 1028 c 128,-1,21
 633 1048 633 1048 676.5 1076 c 128,-1,22
 720 1104 720 1104 766 1132.5 c 128,-1,23
 812 1161 812 1161 875 1181 c 128,-1,24
 938 1201 938 1201 1008 1201 c 0,25,26
 1083 1201 1083 1201 1139 1184.5 c 128,-1,27
 1195 1168 1195 1168 1233 1133 c 128,-1,28
 1271 1098 1271 1098 1295 1053.5 c 128,-1,29
 1319 1009 1319 1009 1332 941.5 c 128,-1,30
 1345 874 1345 874 1349.5 805.5 c 128,-1,31
 1354 737 1354 737 1354 642 c 1,32,-1
 1057 642 l 1,0,1
EndSplineSet
EndChar

StartChar: exclamdown
Encoding: 161 161 98
Width: 719
GlyphClass: 2
Flags: W
LayerCount: 2
Fore
SplineSet
311 989 m 1,0,-1
 310 989 l 1,1,2
 318 1022 318 1022 334.5 1039.5 c 128,-1,3
 351 1057 351 1057 371 1057 c 128,-1,4
 391 1057 391 1057 407.5 1039.5 c 128,-1,5
 424 1022 424 1022 431 989 c 0,6,7
 453 896 453 896 507.5 711 c 128,-1,8
 562 526 562 526 595.5 390.5 c 128,-1,9
 629 255 629 255 629 185 c 0,10,11
 629 82 629 82 551.5 23.5 c 128,-1,12
 474 -35 474 -35 369 -35 c 0,13,14
 266 -35 266 -35 192 22 c 128,-1,15
 118 79 118 79 118 183 c 0,16,17
 118 251 118 251 151 386 c 128,-1,18
 184 521 184 521 236.5 706.5 c 128,-1,19
 289 892 289 892 311 989 c 1,0,-1
151 1392 m 1,20,-1
 152 1391 l 1,21,22
 152 1504 152 1504 211.5 1565.5 c 128,-1,23
 271 1627 271 1627 353 1627 c 0,24,25
 436 1627 436 1627 498.5 1565.5 c 128,-1,26
 561 1504 561 1504 561 1398 c 0,27,28
 561 1298 561 1298 500 1242.5 c 128,-1,29
 439 1187 439 1187 355 1187 c 0,30,31
 272 1187 272 1187 211.5 1241.5 c 128,-1,32
 151 1296 151 1296 151 1392 c 1,20,-1
EndSplineSet
EndChar

StartChar: cent
Encoding: 162 162 99
Width: 1462
GlyphClass: 2
Flags: W
LayerCount: 2
Fore
SplineSet
1396 633 m 1,0,-1
 1396 523 l 2,1,2
 1396 467 1396 467 1384.5 420 c 128,-1,3
 1373 373 1373 373 1353 337.5 c 128,-1,4
 1333 302 1333 302 1302 273.5 c 128,-1,5
 1271 245 1271 245 1237.5 225.5 c 128,-1,6
 1204 206 1204 206 1159.5 191.5 c 128,-1,7
 1115 177 1115 177 1073.5 169 c 128,-1,8
 1032 161 1032 161 979.5 156 c 128,-1,9
 927 151 927 151 883.5 149 c 128,-1,10
 840 147 840 147 785 147 c 1,11,-1
 785 -74 l 1,12,-1
 706 -74 l 1,13,-1
 706 147 l 1,14,15
 634 147 634 147 577 150.5 c 128,-1,16
 520 154 520 154 453 164 c 128,-1,17
 386 174 386 174 336 190.5 c 128,-1,18
 286 207 286 207 236.5 236 c 128,-1,19
 187 265 187 265 156 304 c 128,-1,20
 125 343 125 343 105.5 400.5 c 128,-1,21
 86 458 86 458 86 529 c 2,22,-1
 86 969 l 2,23,24
 86 1040 86 1040 106.5 1097 c 128,-1,25
 127 1154 127 1154 159 1192 c 128,-1,26
 191 1230 191 1230 242 1258.5 c 128,-1,27
 293 1287 293 1287 343.5 1302.5 c 128,-1,28
 394 1318 394 1318 461 1327.5 c 128,-1,29
 528 1337 528 1337 582.5 1340 c 128,-1,30
 637 1343 637 1343 706 1343 c 1,31,-1
 706 1578 l 1,32,-1
 785 1578 l 1,33,-1
 785 1343 l 1,34,35
 845 1342 845 1342 895 1339.5 c 128,-1,36
 945 1337 945 1337 1010.5 1327.5 c 128,-1,37
 1076 1318 1076 1318 1127 1303.5 c 128,-1,38
 1178 1289 1178 1289 1230.5 1262 c 128,-1,39
 1283 1235 1283 1235 1317.5 1199.5 c 128,-1,40
 1352 1164 1352 1164 1374 1111 c 128,-1,41
 1396 1058 1396 1058 1396 992 c 2,42,-1
 1396 881 l 1,43,-1
 885 881 l 1,44,-1
 885 1119 l 1,45,-1
 785 1119 l 1,46,-1
 785 373 l 1,47,-1
 885 373 l 1,48,-1
 885 633 l 1,49,-1
 1396 633 l 1,0,-1
598 1119 m 1,50,-1
 598 373 l 1,51,-1
 706 373 l 1,52,-1
 706 1119 l 1,53,-1
 598 1119 l 1,50,-1
EndSplineSet
EndChar

StartChar: sterling
Encoding: 163 163 100
Width: 1598
GlyphClass: 2
Flags: W
LayerCount: 2
Fore
SplineSet
74 265 m 1,0,-1
 76 266 l 1,1,2
 234 286 234 286 234 376 c 2,3,-1
 234 719 l 1,4,-1
 76 719 l 1,5,-1
 76 941 l 1,6,-1
 234 941 l 1,7,-1
 234 1065 l 2,8,9
 234 1234 234 1234 256 1340 c 128,-1,10
 278 1446 278 1446 346 1511 c 0,11,12
 423 1584 423 1584 556 1608 c 128,-1,13
 689 1632 689 1632 893 1632 c 0,14,15
 1173 1632 1173 1632 1322 1568 c 0,16,17
 1403 1533 1403 1533 1450 1476.5 c 128,-1,18
 1497 1420 1497 1420 1504 1331 c 0,19,20
 1507 1288 1507 1288 1507 1247 c 2,21,-1
 1507 1070 l 1,22,-1
 926 1070 l 1,23,-1
 926 1364 l 1,24,-1
 819 1364 l 1,25,-1
 819 940 l 1,26,-1
 1246 940 l 1,27,-1
 1246 718 l 1,28,-1
 819 718 l 1,29,-1
 819 268 l 1,30,-1
 947 268 l 1,31,-1
 947 562 l 1,32,-1
 1528 562 l 1,33,-1
 1528 385 l 2,34,35
 1528 262 1528 262 1499.5 185.5 c 128,-1,36
 1471 109 1471 109 1399 65 c 0,37,38
 1294 0 1294 0 1097 0 c 0,39,40
 904 0 904 0 819 91 c 0,41,42
 805 106 805 106 781 130 c 1,43,44
 734 81 734 81 690.5 54.5 c 128,-1,45
 647 28 647 28 579 16 c 0,46,47
 496 2 496 2 301 0 c 1,48,-1
 74 0 l 1,49,-1
 74 265 l 1,0,-1
EndSplineSet
EndChar

StartChar: currency
Encoding: 164 164 101
Width: 1390
GlyphClass: 2
Flags: W
LayerCount: 2
Fore
SplineSet
698 299 m 1,0,1
 489 301 489 301 354 349 c 1,2,-1
 206 189 l 1,3,-1
 126 273 l 1,4,-1
 244 401 l 1,5,6
 150 462 150 462 109 556.5 c 128,-1,7
 68 651 68 651 68 804 c 0,8,9
 68 963 68 963 101 1065 c 128,-1,10
 134 1167 134 1167 219 1229 c 1,11,-1
 127 1330 l 1,12,-1
 207 1414 l 1,13,-1
 325 1286 l 1,14,15
 470 1343 470 1343 697 1343 c 0,16,17
 919 1343 919 1343 1065 1287 c 1,18,-1
 1181 1414 l 1,19,-1
 1262 1330 l 1,20,-1
 1171 1231 l 1,21,22
 1259 1168 1259 1168 1292 1069.5 c 128,-1,23
 1325 971 1325 971 1325 804 c 0,24,25
 1325 654 1325 654 1282 556 c 128,-1,26
 1239 458 1239 458 1145 398 c 1,27,-1
 1263 272 l 1,28,-1
 1182 188 l 1,29,-1
 1036 346 l 1,30,31
 894 299 894 299 698 299 c 1,0,1
637 570 m 1,32,-1
 749 570 l 1,33,-1
 749 1070 l 1,34,-1
 637 1070 l 1,35,-1
 637 570 l 1,32,-1
EndSplineSet
EndChar

StartChar: yen
Encoding: 165 165 102
Width: 1571
GlyphClass: 2
Flags: W
LayerCount: 2
Fore
SplineSet
1425 728 m 1,0,-1
 1425 585 l 1,1,-1
 127 585 l 1,2,-1
 127 728 l 1,3,-1
 1425 728 l 1,0,-1
1425 442 m 1,4,-1
 1425 299 l 1,5,-1
 127 299 l 1,6,-1
 127 442 l 1,7,-1
 1425 442 l 1,4,-1
746 1021 m 1,8,-1
 763 815 l 1,9,-1
 792 815 l 1,10,-1
 809 1021 l 1,11,-1
 968 1595 l 1,12,-1
 1524 1595 l 1,13,-1
 1082 449 l 1,14,-1
 1082 0 l 1,15,-1
 477 0 l 1,16,-1
 477 459 l 1,17,-1
 32 1595 l 1,18,-1
 592 1595 l 1,19,-1
 746 1021 l 1,8,-1
EndSplineSet
EndChar

StartChar: brokenbar
Encoding: 166 166 103
Width: 831
GlyphClass: 2
Flags: W
LayerCount: 2
Fore
SplineSet
702 656 m 1,0,-1
 702 -255 l 1,1,-1
 131 -255 l 1,2,-1
 131 656 l 1,3,-1
 702 656 l 1,0,-1
702 1708 m 1,4,-1
 702 797 l 1,5,-1
 131 797 l 1,6,-1
 131 1708 l 1,7,-1
 702 1708 l 1,4,-1
EndSplineSet
EndChar

StartChar: section
Encoding: 167 167 104
Width: 1362
GlyphClass: 2
Flags: W
LayerCount: 2
Fore
SplineSet
265 1046 m 1,0,1
 88 1129 88 1129 88 1329 c 0,2,3
 88 1413 88 1413 105 1479 c 128,-1,4
 122 1545 122 1545 150 1590.5 c 128,-1,5
 178 1636 178 1636 224 1669.5 c 128,-1,6
 270 1703 270 1703 318 1722 c 128,-1,7
 366 1741 366 1741 433 1752 c 128,-1,8
 500 1763 500 1763 561 1766.5 c 128,-1,9
 622 1770 622 1770 702 1770 c 0,10,11
 768 1770 768 1770 817.5 1768 c 128,-1,12
 867 1766 867 1766 931 1758 c 128,-1,13
 995 1750 995 1750 1041.5 1735.5 c 128,-1,14
 1088 1721 1088 1721 1136 1694 c 128,-1,15
 1184 1667 1184 1667 1214.5 1630 c 128,-1,16
 1245 1593 1245 1593 1264 1537 c 128,-1,17
 1283 1481 1283 1481 1283 1411 c 0,18,19
 1283 1394 1283 1394 1282.5 1359 c 128,-1,20
 1282 1324 1282 1324 1282 1306 c 1,21,-1
 730 1306 l 1,22,-1
 730 1497 l 1,23,-1
 657 1497 l 1,24,-1
 657 1248 l 1,25,26
 662 1243 662 1243 672 1239.5 c 128,-1,27
 682 1236 682 1236 696 1234.5 c 128,-1,28
 710 1233 710 1233 721.5 1232.5 c 128,-1,29
 733 1232 733 1232 750.5 1231.5 c 128,-1,30
 768 1231 768 1231 776 1231 c 0,31,32
 976 1223 976 1223 1072 1196 c 0,33,34
 1294 1135 1294 1135 1294 949 c 0,35,36
 1294 776 1294 776 1142 705 c 0,37,38
 1100 685 1100 685 1083 685 c 1,39,40
 1087 683 1087 683 1106.5 675 c 128,-1,41
 1126 667 1126 667 1137 660 c 0,42,43
 1278 575 1278 575 1278 401 c 0,44,45
 1278 317 1278 317 1261 251 c 128,-1,46
 1244 185 1244 185 1216 139.5 c 128,-1,47
 1188 94 1188 94 1142 60.5 c 128,-1,48
 1096 27 1096 27 1048 8 c 128,-1,49
 1000 -11 1000 -11 933 -22 c 128,-1,50
 866 -33 866 -33 805 -36.5 c 128,-1,51
 744 -40 744 -40 664 -40 c 0,52,53
 598 -40 598 -40 548.5 -38 c 128,-1,54
 499 -36 499 -36 435 -27.5 c 128,-1,55
 371 -19 371 -19 325 -4.5 c 128,-1,56
 279 10 279 10 231 37 c 128,-1,57
 183 64 183 64 153 101 c 128,-1,58
 123 138 123 138 104 194 c 128,-1,59
 85 250 85 250 85 321 c 0,60,61
 85 338 85 338 85.5 373 c 128,-1,62
 86 408 86 408 86 426 c 1,63,-1
 637 426 l 1,64,-1
 637 235 l 1,65,-1
 710 235 l 1,66,-1
 710 487 l 1,67,-1
 455 487 l 2,68,69
 273 487 273 487 173 554.5 c 128,-1,70
 73 622 73 622 73 783 c 0,71,72
 73 880 73 880 121 945 c 128,-1,73
 169 1010 169 1010 248 1039 c 1,74,-1
 265 1046 l 1,0,1
717 748 m 1,75,-1
 717 971 l 1,76,-1
 648 971 l 1,77,-1
 648 748 l 1,78,-1
 717 748 l 1,75,-1
EndSplineSet
EndChar

StartChar: dieresis
Encoding: 168 168 105
Width: 1296
GlyphClass: 2
Flags: W
LayerCount: 2
Fore
SplineSet
533 418 m 1,0,-1
 533 82 l 1,1,-1
 83 82 l 1,2,-1
 83 418 l 1,3,-1
 533 418 l 1,0,-1
1217 418 m 1,4,-1
 1217 82 l 1,5,-1
 766 82 l 1,6,-1
 766 418 l 1,7,-1
 1217 418 l 1,4,-1
EndSplineSet
EndChar

StartChar: copyright
Encoding: 169 169 106
Width: 1861
GlyphClass: 2
Flags: W
LayerCount: 2
Fore
SplineSet
932 -101 m 0,0,1
 772 -101 772 -101 646.5 -82.5 c 128,-1,2
 521 -64 521 -64 413.5 -18.5 c 128,-1,3
 306 27 306 27 235 99 c 128,-1,4
 164 171 164 171 124 282 c 128,-1,5
 84 393 84 393 84 539 c 2,6,-1
 84 1116 l 2,7,8
 84 1225 84 1225 108 1315 c 128,-1,9
 132 1405 132 1405 174 1470 c 128,-1,10
 216 1535 216 1535 279 1584 c 128,-1,11
 342 1633 342 1633 412.5 1664 c 128,-1,12
 483 1695 483 1695 571 1714.5 c 128,-1,13
 659 1734 659 1734 745.5 1741.5 c 128,-1,14
 832 1749 832 1749 932 1749 c 0,15,16
 1091 1749 1091 1749 1216.5 1731 c 128,-1,17
 1342 1713 1342 1713 1450 1668.5 c 128,-1,18
 1558 1624 1558 1624 1629 1552.5 c 128,-1,19
 1700 1481 1700 1481 1740 1371 c 128,-1,20
 1780 1261 1780 1261 1780 1116 c 2,21,-1
 1780 539 l 2,22,23
 1780 386 1780 386 1733.5 271 c 128,-1,24
 1687 156 1687 156 1610.5 86.5 c 128,-1,25
 1534 17 1534 17 1421.5 -26.5 c 128,-1,26
 1309 -70 1309 -70 1192 -85.5 c 128,-1,27
 1075 -101 1075 -101 932 -101 c 0,0,1
323 1114 m 2,28,-1
 323 535 l 2,29,30
 323 399 323 399 359.5 308 c 128,-1,31
 396 217 396 217 475 164 c 128,-1,32
 554 111 554 111 663 89.5 c 128,-1,33
 772 68 772 68 932 68 c 0,34,35
 1047 68 1047 68 1137 79.5 c 128,-1,36
 1227 91 1227 91 1305 120 c 128,-1,37
 1383 149 1383 149 1433.5 195.5 c 128,-1,38
 1484 242 1484 242 1512.5 314 c 128,-1,39
 1541 386 1541 386 1541 482 c 2,40,-1
 1541 1165 l 2,41,42
 1541 1263 1541 1263 1510 1336 c 128,-1,43
 1479 1409 1479 1409 1426.5 1453.5 c 128,-1,44
 1374 1498 1374 1498 1294 1525.5 c 128,-1,45
 1214 1553 1214 1553 1128 1563 c 128,-1,46
 1042 1573 1042 1573 932 1573 c 0,47,48
 772 1573 772 1573 662 1551.5 c 128,-1,49
 552 1530 552 1530 473.5 1477.5 c 128,-1,50
 395 1425 395 1425 359 1336 c 128,-1,51
 323 1247 323 1247 323 1114 c 2,28,-1
835 432 m 1,52,-1
 1034 432 l 1,53,-1
 1034 749 l 1,54,-1
 1311 749 l 1,55,-1
 1311 542 l 2,56,57
 1311 474 1311 474 1292.5 425.5 c 128,-1,58
 1274 377 1274 377 1243 347.5 c 128,-1,59
 1212 318 1212 318 1160 301 c 128,-1,60
 1108 284 1108 284 1051.5 278 c 128,-1,61
 995 272 995 272 916 272 c 0,62,63
 828 272 828 272 767.5 282.5 c 128,-1,64
 707 293 707 293 656 322 c 128,-1,65
 605 351 605 351 580 406.5 c 128,-1,66
 555 462 555 462 555 547 c 2,67,-1
 555 1107 l 2,68,69
 555 1190 555 1190 578 1245 c 128,-1,70
 601 1300 601 1300 650.5 1329.5 c 128,-1,71
 700 1359 700 1359 762 1370 c 128,-1,72
 824 1381 824 1381 916 1381 c 0,73,74
 966 1381 966 1381 1000.5 1379.5 c 128,-1,75
 1035 1378 1035 1378 1079.5 1372 c 128,-1,76
 1124 1366 1124 1366 1154.5 1355 c 128,-1,77
 1185 1344 1185 1344 1217 1324 c 128,-1,78
 1249 1304 1249 1304 1268 1276 c 128,-1,79
 1287 1248 1287 1248 1299 1206 c 128,-1,80
 1311 1164 1311 1164 1311 1111 c 2,81,-1
 1311 913 l 1,82,-1
 1034 913 l 1,83,-1
 1034 1222 l 1,84,-1
 835 1222 l 1,85,-1
 835 432 l 1,52,-1
EndSplineSet
EndChar

StartChar: ordfeminine
Encoding: 170 170 107
Width: 1471
GlyphClass: 2
Flags: W
LayerCount: 2
Fore
SplineSet
1380 546 m 1,0,-1
 1381 547 l 1,1,2
 1381 420 1381 420 1409 290 c 1,3,-1
 889 290 l 1,4,-1
 833 428 l 1,5,6
 786 350 786 350 699.5 306.5 c 128,-1,7
 613 263 613 263 493 263 c 0,8,9
 279 263 279 263 175.5 364.5 c 128,-1,10
 72 466 72 466 72 677 c 0,11,12
 72 902 72 902 190 1007.5 c 128,-1,13
 308 1113 308 1113 544 1113 c 0,14,15
 685 1113 685 1113 810 1072 c 1,16,-1
 810 1395 l 1,17,-1
 671 1395 l 1,18,-1
 671 1204 l 1,19,-1
 146 1184 l 1,20,21
 135 1248 135 1248 135 1294 c 0,22,23
 135 1358 135 1358 156 1408 c 128,-1,24
 177 1458 177 1458 210.5 1490 c 128,-1,25
 244 1522 244 1522 295.5 1545.5 c 128,-1,26
 347 1569 347 1569 398 1581.5 c 128,-1,27
 449 1594 449 1594 515 1603 c 0,28,29
 606 1616 606 1616 739 1616 c 0,30,31
 1031 1616 1031 1616 1186 1553 c 0,32,33
 1364 1480 1364 1480 1377 1321 c 0,34,35
 1380 1279 1380 1279 1380 1241 c 2,36,-1
 1380 546 l 1,0,-1
644 942 m 1,37,-1
 644 489 l 1,38,-1
 810 489 l 1,39,-1
 810 942 l 1,40,-1
 644 942 l 1,37,-1
EndSplineSet
EndChar

StartChar: guillemotleft
Encoding: 171 171 108
Width: 1806
GlyphClass: 2
Flags: W
LayerCount: 2
Fore
SplineSet
711 213 m 1,0,-1
 184 593 l 2,1,2
 140 624 140 624 117 673 c 128,-1,3
 94 722 94 722 94 775 c 0,4,5
 95 830 95 830 118.5 880 c 128,-1,6
 142 930 142 930 184 961 c 2,7,-1
 711 1341 l 2,8,9
 743 1364 743 1364 776 1364 c 0,10,11
 810 1364 810 1364 833.5 1339 c 128,-1,12
 857 1314 857 1314 857 1278 c 128,-1,13
 857 1242 857 1242 832 1209 c 2,14,-1
 498 777 l 1,15,-1
 832 345 l 2,16,17
 855 315 855 315 855 277 c 0,18,19
 855 241 855 241 831.5 215.5 c 128,-1,20
 808 190 808 190 774 190 c 0,21,22
 741 190 741 190 711 213 c 1,0,-1
1446 213 m 2,23,-1
 920 593 l 2,24,25
 876 624 876 624 853 673 c 128,-1,26
 830 722 830 722 830 775 c 0,27,28
 831 830 831 830 854.5 880 c 128,-1,29
 878 930 878 930 920 961 c 2,30,-1
 1446 1341 l 2,31,32
 1478 1364 1478 1364 1512 1364 c 128,-1,33
 1546 1364 1546 1364 1569 1339 c 128,-1,34
 1592 1314 1592 1314 1592 1278 c 0,35,36
 1592 1241 1592 1241 1568 1209 c 2,37,-1
 1234 777 l 1,38,-1
 1568 345 l 2,39,40
 1590 317 1590 317 1590 277 c 0,41,42
 1590 241 1590 241 1567 215.5 c 128,-1,43
 1544 190 1544 190 1510 190 c 0,44,45
 1477 190 1477 190 1446 213 c 2,23,-1
EndSplineSet
EndChar

StartChar: logicalnot
Encoding: 172 172 109
Width: 1269
GlyphClass: 2
Flags: W
LayerCount: 2
Fore
SplineSet
1179 300 m 1,0,-1
 950 300 l 1,1,-1
 950 791 l 1,2,-1
 83 791 l 1,3,-1
 83 1105 l 1,4,-1
 1179 1105 l 1,5,-1
 1179 300 l 1,0,-1
EndSplineSet
EndChar

StartChar: uni00AD
Encoding: 173 173 110
Width: 1005
GlyphClass: 2
Flags: W
LayerCount: 2
Fore
SplineSet
920 897 m 1,0,-1
 920 561 l 1,1,-1
 87 561 l 1,2,-1
 87 897 l 1,3,-1
 920 897 l 1,0,-1
EndSplineSet
EndChar

StartChar: registered
Encoding: 174 174 111
Width: 1861
GlyphClass: 2
Flags: W
LayerCount: 2
Fore
SplineSet
932 -101 m 0,0,1
 772 -101 772 -101 646.5 -82.5 c 128,-1,2
 521 -64 521 -64 413.5 -18.5 c 128,-1,3
 306 27 306 27 235 99 c 128,-1,4
 164 171 164 171 124 282 c 128,-1,5
 84 393 84 393 84 539 c 2,6,-1
 84 1116 l 2,7,8
 84 1225 84 1225 108 1315 c 128,-1,9
 132 1405 132 1405 174 1470 c 128,-1,10
 216 1535 216 1535 279 1584 c 128,-1,11
 342 1633 342 1633 412.5 1664 c 128,-1,12
 483 1695 483 1695 571 1714.5 c 128,-1,13
 659 1734 659 1734 745.5 1741.5 c 128,-1,14
 832 1749 832 1749 932 1749 c 0,15,16
 1091 1749 1091 1749 1216.5 1731 c 128,-1,17
 1342 1713 1342 1713 1450 1668.5 c 128,-1,18
 1558 1624 1558 1624 1629 1552.5 c 128,-1,19
 1700 1481 1700 1481 1740 1371 c 128,-1,20
 1780 1261 1780 1261 1780 1116 c 2,21,-1
 1780 539 l 2,22,23
 1780 386 1780 386 1733.5 271 c 128,-1,24
 1687 156 1687 156 1610.5 86.5 c 128,-1,25
 1534 17 1534 17 1421.5 -26.5 c 128,-1,26
 1309 -70 1309 -70 1192 -85.5 c 128,-1,27
 1075 -101 1075 -101 932 -101 c 0,0,1
323 1114 m 2,28,-1
 323 535 l 2,29,30
 323 399 323 399 359.5 308 c 128,-1,31
 396 217 396 217 475 164 c 128,-1,32
 554 111 554 111 663 89.5 c 128,-1,33
 772 68 772 68 932 68 c 0,34,35
 1047 68 1047 68 1137 79.5 c 128,-1,36
 1227 91 1227 91 1305 120 c 128,-1,37
 1383 149 1383 149 1433.5 195.5 c 128,-1,38
 1484 242 1484 242 1512.5 314 c 128,-1,39
 1541 386 1541 386 1541 482 c 2,40,-1
 1541 1165 l 2,41,42
 1541 1263 1541 1263 1510 1336 c 128,-1,43
 1479 1409 1479 1409 1426.5 1453.5 c 128,-1,44
 1374 1498 1374 1498 1294 1525.5 c 128,-1,45
 1214 1553 1214 1553 1128 1563 c 128,-1,46
 1042 1573 1042 1573 932 1573 c 0,47,48
 772 1573 772 1573 662 1551.5 c 128,-1,49
 552 1530 552 1530 473.5 1477.5 c 128,-1,50
 395 1425 395 1425 359 1336 c 128,-1,51
 323 1247 323 1247 323 1114 c 2,28,-1
1116 835 m 1,52,-1
 1227 828 l 2,53,54
 1289 824 1289 824 1323 774.5 c 128,-1,55
 1357 725 1357 725 1357 643 c 2,56,-1
 1357 279 l 1,57,-1
 978 279 l 1,58,-1
 978 756 l 1,59,-1
 895 756 l 1,60,-1
 895 279 l 1,61,-1
 506 279 l 1,62,-1
 506 1434 l 1,63,-1
 1016 1434 l 2,64,65
 1056 1434 1056 1434 1084.5 1432.5 c 128,-1,66
 1113 1431 1113 1431 1152 1425.5 c 128,-1,67
 1191 1420 1191 1420 1217.5 1409.5 c 128,-1,68
 1244 1399 1244 1399 1273.5 1379 c 128,-1,69
 1303 1359 1303 1359 1320.5 1331 c 128,-1,70
 1338 1303 1338 1303 1349.5 1260.5 c 128,-1,71
 1361 1218 1361 1218 1361 1164 c 2,72,-1
 1361 1071 l 2,73,74
 1361 978 1361 978 1324.5 923.5 c 128,-1,75
 1288 869 1288 869 1226 864 c 2,76,-1
 1116 854 l 1,77,-1
 1116 835 l 1,52,-1
895 915 m 1,78,-1
 978 915 l 1,79,-1
 978 1274 l 1,80,-1
 895 1274 l 1,81,-1
 895 915 l 1,78,-1
EndSplineSet
EndChar

StartChar: macron
Encoding: 175 175 112
Width: 999
GlyphClass: 2
Flags: W
LayerCount: 2
Fore
SplineSet
920 897 m 1,0,-1
 920 666 l 1,1,-1
 87 666 l 1,2,-1
 87 897 l 1,3,-1
 920 897 l 1,0,-1
EndSplineSet
EndChar

StartChar: degree
Encoding: 176 176 113
Width: 812
GlyphClass: 2
Flags: W
LayerCount: 2
Fore
SplineSet
73 1371 m 128,-1,1
 73 1492 73 1492 164 1582 c 128,-1,2
 255 1672 255 1672 404 1672 c 128,-1,3
 553 1672 553 1672 644 1582 c 128,-1,4
 735 1492 735 1492 735 1371 c 128,-1,5
 735 1250 735 1250 644 1160 c 128,-1,6
 553 1070 553 1070 404 1070 c 128,-1,7
 255 1070 255 1070 164 1160 c 128,-1,0
 73 1250 73 1250 73 1371 c 128,-1,1
545 1371 m 128,-1,9
 545 1437 545 1437 505.5 1478.5 c 128,-1,10
 466 1520 466 1520 404 1520 c 128,-1,11
 342 1520 342 1520 302.5 1478.5 c 128,-1,12
 263 1437 263 1437 263 1371 c 128,-1,13
 263 1305 263 1305 302.5 1263.5 c 128,-1,14
 342 1222 342 1222 404 1222 c 128,-1,15
 466 1222 466 1222 505.5 1263.5 c 128,-1,8
 545 1305 545 1305 545 1371 c 128,-1,9
EndSplineSet
EndChar

StartChar: plusminus
Encoding: 177 177 114
Width: 1304
GlyphClass: 2
Flags: W
LayerCount: 2
Fore
SplineSet
457 1214 m 1,0,-1
 457 1595 l 1,1,-1
 849 1595 l 1,2,-1
 849 1214 l 1,3,-1
 1213 1214 l 1,4,-1
 1213 881 l 1,5,-1
 849 881 l 1,6,-1
 849 503 l 1,7,-1
 457 503 l 1,8,-1
 457 881 l 1,9,-1
 92 881 l 1,10,-1
 92 1214 l 1,11,-1
 457 1214 l 1,0,-1
1064 300 m 1,12,-1
 1064 -1 l 1,13,-1
 230 -1 l 1,14,-1
 230 300 l 1,15,-1
 1064 300 l 1,12,-1
EndSplineSet
EndChar

StartChar: uni00B2
Encoding: 178 178 115
Width: 1090
GlyphClass: 2
Flags: W
LayerCount: 2
Fore
SplineSet
189 836 m 1,0,1
 189 843 189 843 188.5 857 c 128,-1,2
 188 871 188 871 188 878 c 0,3,4
 188 957 188 957 209 1016 c 128,-1,5
 230 1075 230 1075 266 1111.5 c 128,-1,6
 302 1148 302 1148 357 1170 c 128,-1,7
 412 1192 412 1192 472 1200.5 c 128,-1,8
 532 1209 532 1209 610 1209 c 0,9,10
 714 1209 714 1209 786.5 1194 c 128,-1,11
 859 1179 859 1179 915 1142.5 c 128,-1,12
 971 1106 971 1106 998.5 1040 c 128,-1,13
 1026 974 1026 974 1026 876 c 0,14,15
 1026 806 1026 806 1007 748 c 128,-1,16
 988 690 988 690 961 651.5 c 128,-1,17
 934 613 934 613 887 577.5 c 128,-1,18
 840 542 840 542 801 521.5 c 128,-1,19
 762 501 762 501 703 474 c 0,20,21
 670 459 670 459 649 448 c 128,-1,22
 628 437 628 437 603 419 c 128,-1,23
 578 401 578 401 565.5 379.5 c 128,-1,24
 553 358 553 358 553 332 c 1,25,-1
 986 332 l 1,26,-1
 986 134 l 1,27,-1
 189 134 l 1,28,-1
 189 313 l 2,29,30
 189 409 189 409 212 483 c 128,-1,31
 235 557 235 557 281 610 c 128,-1,32
 327 663 327 663 383 700 c 128,-1,33
 439 737 439 737 517 768 c 0,34,35
 549 781 549 781 566 789 c 128,-1,36
 583 797 583 797 607 811 c 128,-1,37
 631 825 631 825 642 841.5 c 128,-1,38
 653 858 653 858 653 877 c 2,39,-1
 653 1030 l 1,40,-1
 553 1030 l 1,41,-1
 553 836 l 1,42,-1
 189 836 l 1,0,1
EndSplineSet
EndChar

StartChar: uni00B3
Encoding: 179 179 116
Width: 1101
GlyphClass: 2
Flags: W
LayerCount: 2
Fore
SplineSet
1036 881 m 0,0,1
 1036 729 1036 729 898 669 c 1,2,3
 967 643 967 643 1002.5 582.5 c 128,-1,4
 1038 522 1038 522 1038 439 c 0,5,6
 1038 257 1038 257 935 178.5 c 128,-1,7
 832 100 832 100 607 100 c 0,8,9
 387 100 387 100 283.5 191 c 128,-1,10
 180 282 180 282 180 471 c 0,11,12
 180 500 180 500 183 532 c 1,13,-1
 549 532 l 1,14,-1
 549 282 l 1,15,-1
 662 282 l 1,16,-1
 662 595 l 1,17,-1
 491 595 l 1,18,-1
 491 743 l 1,19,-1
 662 743 l 1,20,-1
 662 1027 l 1,21,-1
 549 1027 l 1,22,-1
 549 804 l 1,23,-1
 183 804 l 1,24,25
 180 833 180 833 180 859 c 0,26,27
 180 1050 180 1050 283.5 1127.5 c 128,-1,28
 387 1205 387 1205 606 1205 c 0,29,30
 820 1205 820 1205 928 1131.5 c 128,-1,31
 1036 1058 1036 1058 1036 881 c 0,0,1
EndSplineSet
EndChar

StartChar: acute
Encoding: 180 180 117
Width: 873
GlyphClass: 2
Flags: W
LayerCount: 2
Fore
SplineSet
59 1480 m 0,0,1
 94 1512 94 1512 184 1595.5 c 128,-1,2
 274 1679 274 1679 323.5 1724.5 c 128,-1,3
 373 1770 373 1770 435.5 1821.5 c 128,-1,4
 498 1873 498 1873 533 1893 c 0,5,6
 597 1930 597 1930 658 1930 c 0,7,8
 733 1930 733 1930 782.5 1877.5 c 128,-1,9
 832 1825 832 1825 832 1752 c 0,10,11
 832 1700 832 1700 803 1652 c 128,-1,12
 774 1604 774 1604 716 1570 c 0,13,14
 680 1549 680 1549 604 1522 c 128,-1,15
 528 1495 528 1495 459.5 1474.5 c 128,-1,16
 391 1454 391 1454 281 1423 c 128,-1,17
 171 1392 171 1392 120 1376 c 0,18,19
 106 1371 106 1371 88 1371 c 0,20,21
 61 1371 61 1371 43 1385 c 128,-1,22
 25 1399 25 1399 25 1420 c 0,23,24
 25 1450 25 1450 59 1480 c 0,0,1
EndSplineSet
EndChar

StartChar: paragraph
Encoding: 182 182 119
Width: 1318
GlyphClass: 2
Flags: W
LayerCount: 2
Fore
SplineSet
591 659 m 1,0,1
 330 659 330 659 193 765.5 c 128,-1,2
 56 872 56 872 56 1107 c 0,3,4
 56 1226 56 1226 89.5 1314.5 c 128,-1,5
 123 1403 123 1403 178 1456 c 128,-1,6
 233 1509 233 1509 317.5 1541 c 128,-1,7
 402 1573 402 1573 489 1584 c 128,-1,8
 576 1595 576 1595 689 1595 c 2,9,-1
 1223 1595 l 1,10,-1
 1223 0 l 1,11,-1
 962 0 l 1,12,-1
 962 658 l 1,13,-1
 853 658 l 1,14,-1
 853 0 l 1,15,-1
 591 0 l 1,16,-1
 591 659 l 1,0,1
EndSplineSet
EndChar

StartChar: cedilla
Encoding: 184 184 120
Width: 948
GlyphClass: 2
Flags: W
LayerCount: 2
Fore
SplineSet
384 0 m 1,0,-1
 561 0 l 1,1,-1
 561 -70 l 1,2,3
 675 -70 675 -70 733 -104 c 128,-1,4
 791 -138 791 -138 791 -228 c 2,5,-1
 791 -323 l 2,6,7
 791 -373 791 -373 772 -405.5 c 128,-1,8
 753 -438 753 -438 716 -454 c 128,-1,9
 679 -470 679 -470 638 -475.5 c 128,-1,10
 597 -481 597 -481 538 -481 c 0,11,12
 412 -481 412 -481 348 -448.5 c 128,-1,13
 284 -416 284 -416 284 -323 c 2,14,-1
 284 -267 l 1,15,-1
 511 -239 l 1,16,-1
 511 -371 l 1,17,-1
 574 -371 l 1,18,-1
 574 -180 l 1,19,-1
 384 -180 l 1,20,-1
 384 0 l 1,0,-1
EndSplineSet
EndChar

StartChar: uni00B9
Encoding: 185 185 121
Width: 731
GlyphClass: 2
Flags: W
LayerCount: 2
Fore
SplineSet
115 1115 m 1,0,1
 252 1115 252 1115 342 1170 c 1,2,-1
 654 1170 l 1,3,-1
 654 130 l 1,4,-1
 259 130 l 1,5,-1
 259 971 l 1,6,-1
 115 971 l 1,7,-1
 115 1115 l 1,0,1
EndSplineSet
EndChar

StartChar: ordmasculine
Encoding: 186 186 122
Width: 1334
GlyphClass: 2
Flags: W
LayerCount: 2
Fore
SplineSet
744 99 m 0,0,1
 679 99 679 99 634 100.5 c 128,-1,2
 589 102 589 102 529.5 109 c 128,-1,3
 470 116 470 116 429.5 128.5 c 128,-1,4
 389 141 389 141 346 164.5 c 128,-1,5
 303 188 303 188 277 220.5 c 128,-1,6
 251 253 251 253 234.5 302 c 128,-1,7
 218 351 218 351 218 413 c 2,8,-1
 218 893 l 2,9,10
 218 954 218 954 235.5 1002 c 128,-1,11
 253 1050 253 1050 280 1082.5 c 128,-1,12
 307 1115 307 1115 351 1138 c 128,-1,13
 395 1161 395 1161 437 1173.5 c 128,-1,14
 479 1186 479 1186 537 1193 c 128,-1,15
 595 1200 595 1200 640 1202 c 128,-1,16
 685 1204 685 1204 745 1204 c 0,17,18
 807 1204 807 1204 853.5 1202 c 128,-1,19
 900 1200 900 1200 957 1192.5 c 128,-1,20
 1014 1185 1014 1185 1055.5 1172 c 128,-1,21
 1097 1159 1097 1159 1138.5 1135.5 c 128,-1,22
 1180 1112 1180 1112 1206 1080 c 128,-1,23
 1232 1048 1232 1048 1248.5 1000 c 128,-1,24
 1265 952 1265 952 1265 892 c 2,25,-1
 1265 412 l 2,26,27
 1265 339 1265 339 1245.5 284.5 c 128,-1,28
 1226 230 1226 230 1183 197 c 128,-1,29
 1140 164 1140 164 1098.5 143.5 c 128,-1,30
 1057 123 1057 123 986.5 114 c 128,-1,31
 916 105 916 105 870 102.5 c 128,-1,32
 824 100 824 100 744 99 c 0,0,1
675 317 m 1,33,-1
 808 317 l 1,34,-1
 808 1014 l 1,35,-1
 675 1014 l 1,36,-1
 675 317 l 1,33,-1
EndSplineSet
EndChar

StartChar: guillemotright
Encoding: 187 187 123
Width: 1770
GlyphClass: 2
Flags: W
LayerCount: 2
Fore
SplineSet
1552 593 m 2,0,-1
 1025 213 l 1,1,2
 995 190 995 190 962 190 c 0,3,4
 928 190 928 190 904.5 215.5 c 128,-1,5
 881 241 881 241 881 277 c 0,6,7
 881 315 881 315 904 345 c 2,8,-1
 1238 777 l 1,9,-1
 904 1209 l 2,10,11
 879 1242 879 1242 879 1278 c 128,-1,12
 879 1314 879 1314 902.5 1339 c 128,-1,13
 926 1364 926 1364 960 1364 c 0,14,15
 993 1364 993 1364 1025 1341 c 2,16,-1
 1552 961 l 2,17,18
 1594 930 1594 930 1617.5 880 c 128,-1,19
 1641 830 1641 830 1642 775 c 0,20,21
 1642 722 1642 722 1619 673 c 128,-1,22
 1596 624 1596 624 1552 593 c 2,0,-1
816 593 m 2,23,-1
 290 213 l 2,24,25
 259 190 259 190 226 190 c 0,26,27
 192 190 192 190 169 215.5 c 128,-1,28
 146 241 146 241 146 277 c 0,29,30
 146 317 146 317 168 345 c 2,31,-1
 502 777 l 1,32,-1
 168 1209 l 2,33,34
 144 1241 144 1241 144 1278 c 0,35,36
 144 1314 144 1314 167 1339 c 128,-1,37
 190 1364 190 1364 224 1364 c 128,-1,38
 258 1364 258 1364 290 1341 c 2,39,-1
 816 961 l 2,40,41
 858 930 858 930 881.5 880 c 128,-1,42
 905 830 905 830 906 775 c 0,43,44
 906 722 906 722 883 673 c 128,-1,45
 860 624 860 624 816 593 c 2,23,-1
EndSplineSet
EndChar

StartChar: AE
Encoding: 198 198 134
Width: 2011
GlyphClass: 2
Flags: W
LayerCount: 2
Fore
SplineSet
1946 1595 m 1,0,-1
 1946 1354 l 1,1,-1
 1605 1354 l 1,2,-1
 1605 961 l 1,3,-1
 1923 961 l 1,4,-1
 1923 711 l 1,5,-1
 1605 711 l 1,6,-1
 1605 244 l 1,7,-1
 1946 244 l 1,8,-1
 1946 0 l 1,9,-1
 992 0 l 1,10,-1
 987 0 l 1,11,-1
 987 348 l 1,12,-1
 774 348 l 1,13,-1
 663 0 l 1,14,-1
 38 0 l 1,15,-1
 673 1595 l 1,16,-1
 1946 1595 l 1,0,-1
847 578 m 1,17,-1
 987 578 l 1,18,-1
 987 1001 l 1,19,-1
 847 578 l 1,17,-1
EndSplineSet
EndChar

StartChar: Eth
Encoding: 208 208 144
Width: 1449
GlyphClass: 2
Flags: W
LayerCount: 2
Fore
SplineSet
773 868 m 1,0,-1
 773 726 l 1,1,-1
 52 726 l 1,2,-1
 52 868 l 1,3,-1
 773 868 l 1,0,-1
645 237 m 1,4,-1
 881 237 l 1,5,-1
 881 1358 l 1,6,-1
 645 1358 l 1,7,-1
 645 237 l 1,4,-1
1378 393 m 1,8,-1
 1376 392 l 1,9,10
 1376 261 1376 261 1338 185.5 c 128,-1,11
 1300 110 1300 110 1210 66 c 0,12,13
 1075 0 1075 0 817 0 c 2,14,-1
 146 0 l 1,15,-1
 146 1595 l 1,16,-1
 817 1595 l 2,17,18
 1075 1595 1075 1595 1211 1529 c 0,19,20
 1366 1455 1366 1455 1375 1289 c 0,21,22
 1378 1244 1378 1244 1378 1204 c 2,23,-1
 1378 393 l 1,8,-1
EndSplineSet
EndChar

StartChar: multiply
Encoding: 215 215 151
Width: 1310
GlyphClass: 2
Flags: W
LayerCount: 2
Fore
SplineSet
1266 924 m 1,0,-1
 1008 649 l 1,1,-1
 1266 375 l 1,2,-1
 917 4 l 1,3,-1
 660 279 l 1,4,-1
 401 4 l 1,5,-1
 53 375 l 1,6,-1
 311 649 l 1,7,-1
 53 924 l 1,8,-1
 401 1294 l 1,9,-1
 660 1020 l 1,10,-1
 917 1294 l 1,11,-1
 1266 924 l 1,0,-1
EndSplineSet
EndChar

StartChar: Oslash
Encoding: 216 216 152
Width: 1542
GlyphClass: 2
Flags: W
LayerCount: 2
Fore
SplineSet
1275 1817 m 1,0,-1
 1396 1716 l 1,1,-1
 242 -166 l 1,2,-1
 114 -70 l 1,3,-1
 1275 1817 l 1,0,-1
695 235 m 1,4,-1
 868 235 l 1,5,-1
 868 1362 l 1,6,-1
 695 1362 l 1,7,-1
 695 235 l 1,4,-1
778 -39 m 1,8,-1
 779 -41 l 1,9,10
 477 -41 477 -41 308 30 c 0,11,12
 117 110 117 110 96 283 c 0,13,14
 90 330 90 330 90 370 c 2,15,-1
 90 1226 l 2,16,17
 90 1322 90 1322 119.5 1391.5 c 128,-1,18
 149 1461 149 1461 207.5 1504 c 128,-1,19
 266 1547 266 1547 334.5 1571 c 128,-1,20
 403 1595 403 1595 499 1611 c 0,21,22
 612 1630 612 1630 778 1630 c 0,23,24
 1082 1630 1082 1630 1251 1561 c 0,25,26
 1362 1516 1362 1516 1417 1438 c 128,-1,27
 1472 1360 1472 1360 1472 1226 c 2,28,-1
 1472 370 l 2,29,30
 1472 292 1472 292 1451 231 c 128,-1,31
 1430 170 1430 170 1395 129 c 128,-1,32
 1360 88 1360 88 1305.5 58 c 128,-1,33
 1251 28 1251 28 1192.5 10.5 c 128,-1,34
 1134 -7 1134 -7 1058 -20 c 0,35,36
 945 -39 945 -39 778 -39 c 1,8,-1
EndSplineSet
EndChar

StartChar: Thorn
Encoding: 222 222 158
Width: 1534
GlyphClass: 2
Flags: W
LayerCount: 2
Fore
SplineSet
104 1599 m 1,0,-1
 706 1599 l 1,1,-1
 706 1413 l 1,2,-1
 843 1413 l 2,3,4
 1132 1413 1132 1413 1284 1347 c 0,5,6
 1457 1272 1457 1272 1466 1107 c 0,7,8
 1469 1062 1469 1062 1469 1022 c 2,9,-1
 1469 641 l 2,10,11
 1469 524 1469 524 1447 469 c 0,12,13
 1411 382 1411 382 1326 336 c 128,-1,14
 1241 290 1241 290 1108 268 c 0,15,16
 1000 250 1000 250 843 250 c 2,17,-1
 706 250 l 1,18,-1
 706 0 l 1,19,-1
 104 0 l 1,20,-1
 104 1599 l 1,0,-1
706 482 m 1,21,-1
 869 482 l 1,22,-1
 869 1182 l 1,23,-1
 706 1182 l 1,24,-1
 706 482 l 1,21,-1
EndSplineSet
EndChar

StartChar: germandbls
Encoding: 223 223 159
Width: 1389
GlyphClass: 2
Flags: W
LayerCount: 2
Fore
SplineSet
595 -205 m 1,0,-1
 99 -205 l 1,1,-1
 99 1217 l 2,2,3
 99 1307 99 1307 124 1372 c 128,-1,4
 149 1437 149 1437 200 1477.5 c 128,-1,5
 251 1518 251 1518 313 1541 c 128,-1,6
 375 1564 375 1564 463 1578 c 0,7,8
 570 1595 570 1595 715 1595 c 0,9,10
 925 1595 925 1595 1058 1539 c 128,-1,11
 1191 1483 1191 1483 1236 1350 c 0,12,13
 1258 1285 1258 1285 1258 1170 c 0,14,15
 1258 986 1258 986 1122 909 c 0,16,17
 1062 876 1062 876 986 870 c 1,18,19
 1093 864 1093 864 1171.5 821 c 128,-1,20
 1250 778 1250 778 1293 703 c 0,21,22
 1327 644 1327 644 1327 553 c 2,23,-1
 1327 258 l 2,24,25
 1327 197 1327 197 1310 151 c 128,-1,26
 1293 105 1293 105 1265.5 75.5 c 128,-1,27
 1238 46 1238 46 1193.5 25.5 c 128,-1,28
 1149 5 1149 5 1104 -6 c 128,-1,29
 1059 -17 1059 -17 996 -25 c 0,30,31
 904 -37 904 -37 776 -37 c 2,32,-1
 692 -37 l 1,33,-1
 692 194 l 1,34,-1
 831 194 l 1,35,-1
 831 750 l 1,36,-1
 719 750 l 1,37,-1
 719 981 l 1,38,-1
 831 981 l 1,39,-1
 831 1358 l 1,40,-1
 595 1358 l 1,41,-1
 595 -205 l 1,0,-1
EndSplineSet
EndChar

StartChar: ae
Encoding: 230 230 166
Width: 2144
GlyphClass: 2
Flags: W
LayerCount: 2
Fore
SplineSet
1074 1261 m 1,0,-1
 1072 1263 l 1,1,2
 1197 1345 1197 1345 1431 1345 c 0,3,4
 1719 1345 1719 1345 1877 1279 c 0,5,6
 2057 1203 2057 1203 2071 1040 c 0,7,8
 2075 1001 2075 1001 2075 956 c 2,9,-1
 2075 606 l 1,10,-1
 1359 606 l 1,11,-1
 1359 252 l 1,12,-1
 1503 252 l 1,13,-1
 1503 501 l 1,14,-1
 2074 501 l 1,15,-1
 2074 354 l 1,16,17
 2072 260 2072 260 2044.5 192.5 c 128,-1,18
 2017 125 2017 125 1963 83 c 128,-1,19
 1909 41 1909 41 1842.5 17.5 c 128,-1,20
 1776 -6 1776 -6 1682 -20 c 0,21,22
 1579 -36 1579 -36 1427 -36 c 0,23,24
 1223 -36 1223 -36 1079 77 c 1,25,26
 882 -36 882 -36 577 -36 c 0,27,28
 305 -36 305 -36 175 97 c 0,29,30
 69 206 69 206 69 388 c 0,31,32
 69 613 69 613 186 718.5 c 128,-1,33
 303 824 303 824 538 824 c 0,34,35
 674 824 674 824 787 783 c 1,36,-1
 787 1054 l 1,37,-1
 664 1054 l 1,38,-1
 664 915 l 1,39,40
 576 912 576 912 402 905 c 128,-1,41
 228 898 228 898 140 894 c 1,42,43
 129 958 129 958 129 1004 c 0,44,45
 129 1070 129 1070 149 1122 c 128,-1,46
 169 1174 169 1174 201.5 1208 c 128,-1,47
 234 1242 234 1242 283.5 1267 c 128,-1,48
 333 1292 333 1292 385 1306 c 128,-1,49
 437 1320 437 1320 503 1329 c 0,50,51
 601 1343 601 1343 725 1343 c 0,52,53
 961 1343 961 1343 1074 1261 c 1,0,-1
637 604 m 1,54,-1
 637 252 l 1,55,-1
 787 252 l 1,56,-1
 787 604 l 1,57,-1
 637 604 l 1,54,-1
1359 801 m 1,58,-1
 1503 801 l 1,59,-1
 1503 1055 l 1,60,-1
 1359 1055 l 1,61,-1
 1359 801 l 1,58,-1
EndSplineSet
EndChar

StartChar: eth
Encoding: 240 240 176
Width: 1395
GlyphClass: 2
Flags: W
LayerCount: 2
Fore
SplineSet
510 1887 m 1,0,-1
 511 1889 l 1,1,2
 711 1806 711 1806 880 1674 c 1,3,-1
 1088 1817 l 1,4,-1
 1159 1694 l 1,5,-1
 991 1578 l 1,6,7
 1232 1347 1232 1347 1308 1050 c 0,8,9
 1337 936 1337 936 1337 807 c 0,10,11
 1337 707 1337 707 1335 641 c 128,-1,12
 1333 575 1333 575 1326.5 490 c 128,-1,13
 1320 405 1320 405 1305.5 345.5 c 128,-1,14
 1291 286 1291 286 1267.5 225.5 c 128,-1,15
 1244 165 1244 165 1206.5 120.5 c 128,-1,16
 1169 76 1169 76 1119 45 c 0,17,18
 984 -37 984 -37 708 -37 c 0,19,20
 590 -37 590 -37 500.5 -25.5 c 128,-1,21
 411 -14 411 -14 331 13.5 c 128,-1,22
 251 41 251 41 196 93 c 128,-1,23
 141 145 141 145 112 221 c 0,24,25
 72 327 72 327 72 525 c 0,26,27
 72 717 72 717 112.5 838 c 128,-1,28
 153 959 153 959 258 1021 c 0,29,30
 386 1097 386 1097 623 1097 c 2,31,-1
 763 1097 l 1,32,33
 763 1176 763 1176 678 1270 c 0,34,35
 652 1298 652 1298 624 1324 c 1,36,-1
 372 1151 l 1,37,-1
 302 1275 l 1,38,-1
 507 1416 l 1,39,40
 406 1482 406 1482 353 1510 c 2,41,-1
 286 1546 l 1,42,-1
 510 1887 l 1,0,-1
762 828 m 1,43,-1
 640 828 l 1,44,-1
 640 238 l 1,45,-1
 762 238 l 1,46,-1
 762 828 l 1,43,-1
EndSplineSet
EndChar

StartChar: divide
Encoding: 247 247 183
Width: 1286
GlyphClass: 2
Flags: W
LayerCount: 2
Fore
SplineSet
901 92 m 1,0,-1
 394 92 l 1,1,-1
 394 559 l 1,2,-1
 901 559 l 1,3,-1
 901 92 l 1,0,-1
901 1000 m 1,4,-1
 394 1000 l 1,5,-1
 394 1497 l 1,6,-1
 901 1497 l 1,7,-1
 901 1000 l 1,4,-1
1229 908 m 1,8,-1
 1229 670 l 1,9,-1
 67 670 l 1,10,-1
 67 908 l 1,11,-1
 1229 908 l 1,8,-1
EndSplineSet
EndChar

StartChar: oslash
Encoding: 248 248 184
Width: 1465
GlyphClass: 2
Flags: W
LayerCount: 2
Fore
SplineSet
114 -39 m 1,0,-1
 56 19 l 1,1,-1
 153 118 l 1,2,3
 86 194 86 194 86 352 c 2,4,-1
 86 952 l 2,5,6
 86 1047 86 1047 112.5 1114 c 128,-1,7
 139 1181 139 1181 193.5 1222.5 c 128,-1,8
 248 1264 248 1264 313.5 1287 c 128,-1,9
 379 1310 379 1310 473 1325 c 0,10,11
 584 1343 584 1343 745 1343 c 1,12,-1
 744 1344 l 1,13,14
 917 1344 917 1344 1041 1323 c 128,-1,15
 1165 1302 1165 1302 1255 1249 c 1,16,-1
 1348 1344 l 1,17,-1
 1406 1286 l 1,18,-1
 1320 1198 l 1,19,20
 1395 1122 1395 1122 1395 952 c 2,21,-1
 1395 352 l 2,22,23
 1395 220 1395 220 1347 144.5 c 128,-1,24
 1299 69 1299 69 1197 27 c 0,25,26
 1037 -39 1037 -39 744 -39 c 0,27,28
 562 -39 562 -39 433.5 -16.5 c 128,-1,29
 305 6 305 6 215 65 c 1,30,-1
 114 -39 l 1,0,-1
657 234 m 1,31,-1
 823 234 l 1,32,-1
 823 689 l 1,33,-1
 657 519 l 1,34,-1
 657 234 l 1,31,-1
657 636 m 1,35,-1
 823 806 l 1,36,-1
 823 1106 l 1,37,-1
 657 1106 l 1,38,-1
 657 636 l 1,35,-1
EndSplineSet
EndChar

StartChar: thorn
Encoding: 254 254 190
Width: 1430
GlyphClass: 2
Flags: W
LayerCount: 2
Fore
SplineSet
675 1225 m 1,0,-1
 674 1225 l 1,1,2
 700 1282 700 1282 769 1302.5 c 128,-1,3
 838 1323 838 1323 948 1323 c 0,4,5
 1144 1323 1144 1323 1248.5 1245 c 128,-1,6
 1353 1167 1353 1167 1360 995 c 0,7,8
 1362 933 1362 933 1362 908 c 2,9,-1
 1362 390 l 2,10,11
 1362 262 1362 262 1334.5 179.5 c 128,-1,12
 1307 97 1307 97 1239 48 c 0,13,14
 1140 -24 1140 -24 948 -24 c 0,15,16
 854 -24 854 -24 793 -10 c 128,-1,17
 732 4 732 4 701 44 c 0,18,19
 697 49 697 49 688 60.5 c 128,-1,20
 679 72 679 72 675 78 c 1,21,-1
 675 -409 l 1,22,-1
 104 -409 l 1,23,-1
 104 1602 l 1,24,-1
 675 1602 l 1,25,-1
 675 1225 l 1,0,-1
674 231 m 1,26,-1
 788 231 l 1,27,-1
 788 1069 l 1,28,-1
 674 1069 l 1,29,-1
 674 231 l 1,26,-1
EndSplineSet
EndChar

StartChar: Dcroat
Encoding: 272 272 206
Width: 1449
GlyphClass: 2
Flags: W
LayerCount: 2
Fore
SplineSet
773 868 m 1,0,-1
 773 726 l 1,1,-1
 52 726 l 1,2,-1
 52 868 l 1,3,-1
 773 868 l 1,0,-1
645 237 m 1,4,-1
 881 237 l 1,5,-1
 881 1358 l 1,6,-1
 645 1358 l 1,7,-1
 645 237 l 1,4,-1
1378 393 m 1,8,-1
 1376 392 l 1,9,10
 1376 261 1376 261 1338 185.5 c 128,-1,11
 1300 110 1300 110 1210 66 c 0,12,13
 1075 0 1075 0 817 0 c 2,14,-1
 146 0 l 1,15,-1
 146 1595 l 1,16,-1
 817 1595 l 2,17,18
 1075 1595 1075 1595 1211 1529 c 0,19,20
 1366 1455 1366 1455 1375 1289 c 0,21,22
 1378 1244 1378 1244 1378 1204 c 2,23,-1
 1378 393 l 1,8,-1
EndSplineSet
EndChar

StartChar: gcommaaccent
Encoding: 291 291 219
Width: 1470
GlyphClass: 2
Flags: W
LayerCount: 2
Fore
SplineSet
511 1327 m 1,0,-1
 511 1326 l 1,1,2
 747 1326 747 1326 850 1187 c 1,3,-1
 886 1299 l 1,4,-1
 1397 1299 l 1,5,-1
 1397 236 l 2,6,7
 1397 -78 1397 -78 1222.5 -225 c 128,-1,8
 1048 -372 1048 -372 678 -372 c 0,9,10
 422 -372 422 -372 201 -311 c 1,11,-1
 258 -20 l 1,12,13
 335 -41 335 -41 450.5 -52.5 c 128,-1,14
 566 -64 566 -64 678.5 -57 c 128,-1,15
 791 -50 791 -50 839 -22 c 1,16,-1
 839 205 l 1,17,18
 794 148 794 148 706 119.5 c 128,-1,19
 618 91 618 91 508 91 c 0,20,21
 88 91 88 91 88 482 c 2,22,-1
 88 927 l 2,23,24
 88 1327 88 1327 511 1327 c 1,0,-1
826 1104 m 1,25,-1
 659 1104 l 1,26,-1
 659 316 l 1,27,-1
 826 316 l 1,28,-1
 826 1104 l 1,25,-1
EndSplineSet
EndChar

StartChar: Hbar
Encoding: 294 294 220
Width: 1703
GlyphClass: 2
Flags: W
LayerCount: 2
Fore
SplineSet
1659 1349 m 1,0,-1
 1659 1158 l 1,1,-1
 54 1158 l 1,2,-1
 54 1349 l 1,3,-1
 1659 1349 l 1,0,-1
1553 1595 m 1,4,-1
 1553 0 l 1,5,-1
 948 0 l 1,6,-1
 948 688 l 1,7,-1
 755 688 l 1,8,-1
 755 0 l 1,9,-1
 151 0 l 1,10,-1
 151 1595 l 1,11,-1
 755 1595 l 1,12,-1
 755 938 l 1,13,-1
 948 938 l 1,14,-1
 948 1595 l 1,15,-1
 1553 1595 l 1,4,-1
EndSplineSet
EndChar

StartChar: hbar
Encoding: 295 295 221
Width: 1511
GlyphClass: 2
Flags: W
LayerCount: 2
Fore
SplineSet
1188 1619 m 1,0,-1
 1188 1450 l 1,1,-1
 43 1450 l 1,2,-1
 43 1619 l 1,3,-1
 1188 1619 l 1,0,-1
1023 1343 m 0,4,5
 1439 1343 1439 1343 1439 945 c 2,6,-1
 1439 0 l 1,7,-1
 868 0 l 1,8,-1
 868 1065 l 1,9,-1
 702 1065 l 1,10,-1
 702 0 l 1,11,-1
 130 0 l 1,12,-1
 130 1710 l 1,13,-1
 702 1710 l 1,14,-1
 702 1210 l 1,15,16
 741 1274 741 1274 828.5 1308.5 c 128,-1,17
 916 1343 916 1343 1023 1343 c 0,4,5
EndSplineSet
EndChar

StartChar: dotlessi
Encoding: 305 305 231
Width: 744
GlyphClass: 2
Flags: W
LayerCount: 2
Fore
SplineSet
669 0 m 1,0,-1
 100 0 l 1,1,-1
 100 1298 l 1,2,-1
 669 1298 l 1,3,-1
 669 0 l 1,0,-1
EndSplineSet
EndChar

StartChar: IJ
Encoding: 306 306 232
Width: 1667
GlyphClass: 2
Flags: W
LayerCount: 2
Fore
SplineSet
720 1595 m 1,0,-1
 720 0 l 1,1,-1
 116 0 l 1,2,-1
 116 1595 l 1,3,-1
 720 1595 l 1,0,-1
916 -75 m 1,4,-1
 916 -76 l 1,5,6
 883 -76 883 -76 819 -74 c 1,7,-1
 819 198 l 1,8,-1
 992 198 l 1,9,-1
 992 1594 l 1,10,-1
 1596 1594 l 1,11,-1
 1596 334 l 2,12,13
 1596 258 1596 258 1574.5 197.5 c 128,-1,14
 1553 137 1553 137 1517 95.5 c 128,-1,15
 1481 54 1481 54 1426.5 23.5 c 128,-1,16
 1372 -7 1372 -7 1314 -25 c 128,-1,17
 1256 -43 1256 -43 1182 -56 c 0,18,19
 1074 -75 1074 -75 916 -75 c 1,4,-1
EndSplineSet
EndChar

StartChar: ij
Encoding: 307 307 233
Width: 1646
GlyphClass: 2
Flags: W
LayerCount: 2
Fore
SplineSet
678 0 m 1,0,-1
 107 0 l 1,1,-1
 107 1300 l 1,2,-1
 678 1300 l 1,3,-1
 678 0 l 1,0,-1
678 1709 m 1,4,-1
 678 1425 l 1,5,-1
 107 1425 l 1,6,-1
 107 1709 l 1,7,-1
 678 1709 l 1,4,-1
1561 94 m 2,8,9
 1561 -122 1561 -122 1444 -224 c 128,-1,10
 1327 -326 1327 -326 1100 -326 c 0,11,12
 936 -326 936 -326 830 -305 c 1,13,-1
 800 -66 l 1,14,-1
 989 -66 l 1,15,-1
 989 1300 l 1,16,-1
 1561 1300 l 1,17,-1
 1561 94 l 2,8,9
1561 1709 m 1,18,-1
 1561 1425 l 1,19,-1
 989 1425 l 1,20,-1
 989 1709 l 1,21,-1
 1561 1709 l 1,18,-1
EndSplineSet
EndChar

StartChar: kgreenlandic
Encoding: 312 312 238
Width: 1590
GlyphClass: 2
Flags: W
LayerCount: 2
Fore
SplineSet
100 0 m 1,0,-1
 100 1299 l 1,1,-1
 684 1299 l 1,2,-1
 684 858 l 1,3,-1
 952 1300 l 1,4,-1
 1538 1300 l 1,5,-1
 1203 790 l 1,6,-1
 1561 0 l 1,7,-1
 986 0 l 1,8,-1
 797 455 l 1,9,-1
 684 318 l 1,10,-1
 684 0 l 1,11,-1
 100 0 l 1,0,-1
EndSplineSet
EndChar

StartChar: Ldot
Encoding: 319 319 245
Width: 1094
GlyphClass: 2
Flags: W
LayerCount: 2
Fore
SplineSet
1340 950 m 1,0,-1
 833 950 l 1,1,-1
 833 1417 l 1,2,-1
 1340 1417 l 1,3,-1
 1340 950 l 1,0,-1
103 0 m 1,4,-1
 103 1595 l 1,5,-1
 707 1595 l 1,6,-1
 707 241 l 1,7,-1
 1048 241 l 1,8,-1
 1048 0 l 1,9,-1
 103 0 l 1,4,-1
EndSplineSet
EndChar

StartChar: ldot
Encoding: 320 320 246
Width: 1313
GlyphClass: 2
Flags: W
LayerCount: 2
Fore
SplineSet
1313 655 m 1,0,-1
 806 655 l 1,1,-1
 806 1122 l 1,2,-1
 1313 1122 l 1,3,-1
 1313 655 l 1,0,-1
676 0 m 1,4,-1
 105 0 l 1,5,-1
 105 1710 l 1,6,-1
 676 1710 l 1,7,-1
 676 0 l 1,4,-1
EndSplineSet
EndChar

StartChar: Lslash
Encoding: 321 321 247
Width: 1534
GlyphClass: 2
Flags: W
LayerCount: 2
Fore
SplineSet
1320 1072 m 1,0,-1
 72 410 l 1,1,-1
 72 750 l 1,2,-1
 1320 1410 l 1,3,-1
 1320 1072 l 1,0,-1
377 0 m 1,4,-1
 377 1595 l 1,5,-1
 981 1595 l 1,6,-1
 981 241 l 1,7,-1
 1322 241 l 1,8,-1
 1322 0 l 1,9,-1
 377 0 l 1,4,-1
EndSplineSet
EndChar

StartChar: lslash
Encoding: 322 322 248
Width: 1145
GlyphClass: 2
Flags: W
LayerCount: 2
Fore
SplineSet
1094 1023 m 1,0,-1
 64 539 l 1,1,-1
 64 788 l 1,2,-1
 1094 1271 l 1,3,-1
 1094 1023 l 1,0,-1
852 0 m 1,4,-1
 281 0 l 1,5,-1
 281 1710 l 1,6,-1
 852 1710 l 1,7,-1
 852 0 l 1,4,-1
EndSplineSet
EndChar

StartChar: OE
Encoding: 338 338 261
Width: 1832
GlyphClass: 2
Flags: W
LayerCount: 2
Fore
SplineSet
722 0 m 1,0,-1
 722 -1 l 1,1,2
 431 -1 431 -1 279 60 c 0,3,4
 196 93 196 93 148.5 146.5 c 128,-1,5
 101 200 101 200 95 287 c 0,6,7
 92 330 92 330 92 371 c 2,8,-1
 92 1227 l 2,9,10
 92 1355 92 1355 136 1425 c 128,-1,11
 180 1495 180 1495 279 1534 c 0,12,13
 434 1595 434 1595 722 1595 c 2,14,-1
 1768 1595 l 1,15,-1
 1768 1354 l 1,16,-1
 1424 1354 l 1,17,-1
 1424 961 l 1,18,-1
 1744 961 l 1,19,-1
 1744 711 l 1,20,-1
 1424 711 l 1,21,-1
 1424 244 l 1,22,-1
 1768 244 l 1,23,-1
 1768 0 l 1,24,-1
 722 0 l 1,0,-1
678 232 m 1,25,-1
 792 232 l 1,26,-1
 792 1363 l 1,27,-1
 678 1363 l 1,28,-1
 678 232 l 1,25,-1
EndSplineSet
EndChar

StartChar: oe
Encoding: 339 339 262
Width: 2136
GlyphClass: 2
Flags: W
LayerCount: 2
Fore
SplineSet
1075 96 m 1,0,-1
 1074 94 l 1,1,2
 989 -30 989 -30 711 -30 c 0,3,4
 423 -30 423 -30 269 37 c 0,5,6
 97 113 97 113 88 282 c 0,7,8
 85 327 85 327 85 367 c 2,9,-1
 85 930 l 2,10,11
 85 1066 85 1066 127.5 1141.5 c 128,-1,12
 170 1217 170 1217 268 1262 c 1,13,14
 420 1330 420 1330 710 1330 c 0,15,16
 878 1330 878 1330 980 1285 c 1,17,18
 1052 1252 1052 1252 1074 1211 c 1,19,20
 1151 1330 1151 1330 1447 1330 c 0,21,22
 1736 1330 1736 1330 1888 1262 c 0,23,24
 2059 1186 2059 1186 2067 1016 c 0,25,26
 2069 956 2069 956 2069 931 c 2,27,-1
 2065 620 l 1,28,-1
 1351 620 l 1,29,-1
 1351 249 l 1,30,-1
 1502 249 l 1,31,-1
 1502 554 l 1,32,-1
 2069 554 l 1,33,-1
 2069 368 l 2,34,35
 2069 233 2069 233 2027.5 157.5 c 128,-1,36
 1986 82 1986 82 1889 39 c 0,37,38
 1736 -28 1736 -28 1448 -28 c 0,39,40
 1262 -28 1262 -28 1166 16 c 0,41,42
 1097 48 1097 48 1075 96 c 1,0,-1
649 248 m 1,43,-1
 799 248 l 1,44,-1
 799 1051 l 1,45,-1
 649 1051 l 1,46,-1
 649 248 l 1,43,-1
1350 825 m 1,47,-1
 1501 825 l 1,48,-1
 1501 1051 l 1,49,-1
 1350 1051 l 1,50,-1
 1350 825 l 1,47,-1
EndSplineSet
EndChar

StartChar: uni0237
Encoding: 567 567 298
Width: 868
GlyphClass: 2
Flags: W
LayerCount: 2
Fore
SplineSet
784 94 m 2,0,1
 784 -122 784 -122 667 -224 c 128,-1,2
 550 -326 550 -326 323 -326 c 0,3,4
 159 -326 159 -326 53 -305 c 1,5,-1
 23 -66 l 1,6,-1
 212 -66 l 1,7,-1
 212 1300 l 1,8,-1
 784 1300 l 1,9,-1
 784 94 l 2,0,1
EndSplineSet
EndChar

StartChar: circumflex
Encoding: 710 710 299
Width: 954
GlyphClass: 2
Flags: W
LayerCount: 2
Fore
SplineSet
72 1527 m 2,0,-1
 335 1936 l 2,1,2
 357 1971 357 1971 396 1989.5 c 128,-1,3
 435 2008 435 2008 478 2008 c 0,4,5
 572 2008 572 2008 619 1936 c 2,6,-1
 882 1527 l 2,7,8
 900 1498 900 1498 900 1474 c 0,9,10
 900 1447 900 1447 882 1429 c 128,-1,11
 864 1411 864 1411 837 1411 c 0,12,13
 808 1411 808 1411 780 1433 c 2,14,-1
 477 1668 l 1,15,-1
 174 1433 l 2,16,17
 148 1413 148 1413 120 1413 c 128,-1,18
 92 1413 92 1413 73 1430.5 c 128,-1,19
 54 1448 54 1448 54 1475 c 0,20,21
 54 1498 54 1498 72 1527 c 2,0,-1
EndSplineSet
EndChar

StartChar: caron
Encoding: 711 711 300
Width: 954
GlyphClass: 2
Flags: W
LayerCount: 2
Fore
SplineSet
335 1483 m 2,0,-1
 72 1892 l 2,1,2
 54 1920 54 1920 54 1944 c 0,3,4
 54 1971 54 1971 73 1988.5 c 128,-1,5
 92 2006 92 2006 120 2006 c 128,-1,6
 148 2006 148 2006 174 1986 c 2,7,-1
 477 1751 l 1,8,-1
 780 1986 l 2,9,10
 808 2008 808 2008 837 2008 c 0,11,12
 864 2008 864 2008 882 1990 c 128,-1,13
 900 1972 900 1972 900 1945 c 0,14,15
 900 1920 900 1920 882 1892 c 2,16,-1
 619 1483 l 2,17,18
 572 1411 572 1411 478 1411 c 0,19,20
 435 1411 435 1411 396 1429.5 c 128,-1,21
 357 1448 357 1448 335 1483 c 2,0,-1
EndSplineSet
EndChar

StartChar: breve
Encoding: 728 728 301
Width: 1062
GlyphClass: 2
Flags: W
LayerCount: 2
Fore
SplineSet
537 1398 m 128,-1,1
 425 1398 425 1398 342.5 1421.5 c 128,-1,2
 260 1445 260 1445 209 1485 c 128,-1,3
 158 1525 158 1525 127.5 1588 c 128,-1,4
 97 1651 97 1651 86 1719.5 c 128,-1,5
 75 1788 75 1788 75 1879 c 1,6,-1
 372 1879 l 1,7,8
 372 1831 372 1831 376 1804.5 c 128,-1,9
 380 1778 380 1778 395.5 1751 c 128,-1,10
 411 1724 411 1724 445.5 1712.5 c 128,-1,11
 480 1701 480 1701 537 1701 c 128,-1,12
 594 1701 594 1701 628.5 1712.5 c 128,-1,13
 663 1724 663 1724 678.5 1751 c 128,-1,14
 694 1778 694 1778 698 1804.5 c 128,-1,15
 702 1831 702 1831 702 1879 c 1,16,-1
 999 1879 l 1,17,18
 999 1788 999 1788 988 1719.5 c 128,-1,19
 977 1651 977 1651 946.5 1588 c 128,-1,20
 916 1525 916 1525 865 1485 c 128,-1,21
 814 1445 814 1445 731.5 1421.5 c 128,-1,0
 649 1398 649 1398 537 1398 c 128,-1,1
EndSplineSet
EndChar

StartChar: dotaccent
Encoding: 729 729 302
Width: 670
GlyphClass: 2
Flags: W
LayerCount: 2
Fore
SplineSet
591 0 m 1,0,-1
 84 0 l 1,1,-1
 84 467 l 1,2,-1
 591 467 l 1,3,-1
 591 0 l 1,0,-1
EndSplineSet
EndChar

StartChar: ring
Encoding: 730 730 303
Width: 805
GlyphClass: 2
Flags: W
LayerCount: 2
Fore
SplineSet
72 430 m 0,0,1
 72 537 72 537 129 614 c 128,-1,2
 186 691 186 691 275 727 c 0,3,4
 335 752 335 752 405 752 c 0,5,6
 514 752 514 752 594 697 c 128,-1,7
 674 642 674 642 712 556 c 0,8,9
 738 496 738 496 738 430 c 0,10,11
 738 324 738 324 680.5 248 c 128,-1,12
 623 172 623 172 534 135 c 0,13,14
 475 110 475 110 405 110 c 0,15,16
 296 110 296 110 216 164.5 c 128,-1,17
 136 219 136 219 98 305 c 0,18,19
 72 365 72 365 72 430 c 0,0,1
403 552 m 0,20,21
 351 552 351 552 316.5 517.5 c 128,-1,22
 282 483 282 483 282 430 c 0,23,24
 282 379 282 379 317 344 c 128,-1,25
 352 309 352 309 403 309 c 0,26,27
 453 309 453 309 488.5 344.5 c 128,-1,28
 524 380 524 380 524 430 c 0,29,30
 524 482 524 482 489 517 c 128,-1,31
 454 552 454 552 403 552 c 0,20,21
EndSplineSet
EndChar

StartChar: ogonek
Encoding: 731 731 304
Width: 693
GlyphClass: 2
Flags: W
LayerCount: 2
Fore
SplineSet
435 72 m 1,0,-1
 506 0 l 1,1,2
 455 -34 455 -34 425.5 -86.5 c 128,-1,3
 396 -139 396 -139 396 -189 c 128,-1,4
 396 -239 396 -239 427.5 -271 c 128,-1,5
 459 -303 459 -303 521 -303 c 0,6,7
 578 -303 578 -303 656 -274 c 1,8,-1
 656 -589 l 1,9,10
 548 -630 548 -630 455 -630 c 0,11,12
 305 -630 305 -630 215 -538 c 128,-1,13
 125 -446 125 -446 125 -316 c 0,14,15
 125 -199 125 -199 203 -93.5 c 128,-1,16
 281 12 281 12 435 72 c 1,0,-1
EndSplineSet
EndChar

StartChar: tilde
Encoding: 732 732 305
Width: 1422
GlyphClass: 2
Flags: W
LayerCount: 2
Fore
SplineSet
1063 96 m 1,0,-1
 1066 96 l 1,1,2
 1066 166 1066 166 1039.5 213 c 128,-1,3
 1013 260 1013 260 956 260 c 0,4,5
 936 260 936 260 914.5 250.5 c 128,-1,6
 893 241 893 241 884 235 c 128,-1,7
 875 229 875 229 853 211 c 0,8,9
 767 142 767 142 686 106 c 128,-1,10
 605 70 605 70 486 70 c 0,11,12
 315 70 315 70 228 145 c 128,-1,13
 141 220 141 220 106 376 c 1,14,15
 79 470 79 470 79 621 c 1,16,-1
 375 621 l 1,17,18
 375 548 375 548 401 500.5 c 128,-1,19
 427 453 427 453 487 453 c 0,20,21
 494 453 494 453 501 454 c 128,-1,22
 508 455 508 455 515 457 c 128,-1,23
 522 459 522 459 527.5 460.5 c 128,-1,24
 533 462 533 462 540.5 466.5 c 128,-1,25
 548 471 548 471 551.5 473 c 128,-1,26
 555 475 555 475 563.5 480.5 c 128,-1,27
 572 486 572 486 574 487.5 c 128,-1,28
 576 489 576 489 585 495.5 c 128,-1,29
 594 502 594 502 595 503 c 0,30,31
 648 542 648 542 671 557 c 128,-1,32
 694 572 694 572 743.5 598.5 c 128,-1,33
 793 625 793 625 843 635.5 c 128,-1,34
 893 646 893 646 953 646 c 0,35,36
 1029 646 1029 646 1088.5 633.5 c 128,-1,37
 1148 621 1148 621 1191 598.5 c 128,-1,38
 1234 576 1234 576 1264 538.5 c 128,-1,39
 1294 501 1294 501 1312.5 459 c 128,-1,40
 1331 417 1331 417 1341.5 356.5 c 128,-1,41
 1352 296 1352 296 1355.5 236.5 c 128,-1,42
 1359 177 1359 177 1359 96 c 1,43,-1
 1063 96 l 1,0,-1
EndSplineSet
EndChar

StartChar: hungarumlaut
Encoding: 733 733 306
Width: 873
GlyphClass: 2
Flags: W
LayerCount: 2
Fore
SplineSet
780 1480 m 0,0,1
 815 1512 815 1512 905 1595.5 c 128,-1,2
 995 1679 995 1679 1044.5 1724.5 c 128,-1,3
 1094 1770 1094 1770 1156.5 1821.5 c 128,-1,4
 1219 1873 1219 1873 1254 1893 c 0,5,6
 1318 1930 1318 1930 1379 1930 c 0,7,8
 1454 1930 1454 1930 1503.5 1877.5 c 128,-1,9
 1553 1825 1553 1825 1553 1752 c 0,10,11
 1553 1700 1553 1700 1524 1652 c 128,-1,12
 1495 1604 1495 1604 1437 1570 c 0,13,14
 1401 1549 1401 1549 1325 1522 c 128,-1,15
 1249 1495 1249 1495 1180.5 1474.5 c 128,-1,16
 1112 1454 1112 1454 1002 1423 c 128,-1,17
 892 1392 892 1392 841 1376 c 0,18,19
 827 1371 827 1371 809 1371 c 0,20,21
 782 1371 782 1371 764 1385 c 128,-1,22
 746 1399 746 1399 746 1420 c 0,23,24
 746 1450 746 1450 780 1480 c 0,0,1
89 1480 m 0,25,26
 124 1512 124 1512 214 1595.5 c 128,-1,27
 304 1679 304 1679 353.5 1724.5 c 128,-1,28
 403 1770 403 1770 465.5 1821.5 c 128,-1,29
 528 1873 528 1873 563 1893 c 0,30,31
 627 1930 627 1930 688 1930 c 0,32,33
 763 1930 763 1930 812.5 1877.5 c 128,-1,34
 862 1825 862 1825 862 1752 c 0,35,36
 862 1700 862 1700 833 1652 c 128,-1,37
 804 1604 804 1604 746 1570 c 0,38,39
 710 1549 710 1549 634 1522 c 128,-1,40
 558 1495 558 1495 489.5 1474.5 c 128,-1,41
 421 1454 421 1454 311 1423 c 128,-1,42
 201 1392 201 1392 150 1376 c 0,43,44
 136 1371 136 1371 118 1371 c 0,45,46
 91 1371 91 1371 73 1385 c 128,-1,47
 55 1399 55 1399 55 1420 c 0,48,49
 55 1450 55 1450 89 1480 c 0,25,26
EndSplineSet
EndChar

StartChar: endash
Encoding: 8211 8211 310
Width: 1005
GlyphClass: 2
Flags: W
LayerCount: 2
Fore
SplineSet
920 897 m 1,0,-1
 920 461 l 1,1,-1
 87 461 l 1,2,-1
 87 897 l 1,3,-1
 920 897 l 1,0,-1
EndSplineSet
EndChar

StartChar: emdash
Encoding: 8212 8212 311
Width: 1857
GlyphClass: 2
Flags: W
LayerCount: 2
Fore
SplineSet
1772 897 m 1,0,-1
 1772 461 l 1,1,-1
 87 461 l 1,2,-1
 87 897 l 1,3,-1
 1772 897 l 1,0,-1
EndSplineSet
EndChar

StartChar: quoteleft
Encoding: 8216 8216 312
Width: 722
GlyphClass: 2
Flags: W
LayerCount: 2
Fore
SplineSet
569 1187 m 0,0,1
 569 1093 569 1093 511.5 1040 c 128,-1,2
 454 987 454 987 375 987 c 0,3,4
 267 987 267 987 211 1055 c 128,-1,5
 155 1123 155 1123 155 1227 c 0,6,7
 155 1297 155 1297 178.5 1367.5 c 128,-1,8
 202 1438 202 1438 245 1497 c 128,-1,9
 288 1556 288 1556 355.5 1593 c 128,-1,10
 423 1630 423 1630 502 1630 c 0,11,12
 524 1630 524 1630 546 1627 c 1,13,-1
 546 1518 l 1,14,15
 483 1517 483 1517 438.5 1484.5 c 128,-1,16
 394 1452 394 1452 390 1396 c 1,17,18
 465 1388 465 1388 517 1333.5 c 128,-1,19
 569 1279 569 1279 569 1187 c 0,0,1
EndSplineSet
EndChar

StartChar: quoteright
Encoding: 8217 8217 313
Width: 706
GlyphClass: 2
Flags: W
LayerCount: 2
Fore
SplineSet
154 1430 m 0,0,1
 154 1524 154 1524 214.5 1577 c 128,-1,2
 275 1630 275 1630 358 1630 c 0,3,4
 461 1630 461 1630 514.5 1562 c 128,-1,5
 568 1494 568 1494 568 1390 c 0,6,7
 568 1320 568 1320 544.5 1249.5 c 128,-1,8
 521 1179 521 1179 478 1120 c 128,-1,9
 435 1061 435 1061 367.5 1024 c 128,-1,10
 300 987 300 987 221 987 c 0,11,12
 200 987 200 987 177 990 c 1,13,-1
 177 1099 l 1,14,15
 240 1100 240 1100 284.5 1132.5 c 128,-1,16
 329 1165 329 1165 333 1221 c 1,17,18
 258 1229 258 1229 206 1283.5 c 128,-1,19
 154 1338 154 1338 154 1430 c 0,0,1
EndSplineSet
EndChar

StartChar: quotesinglbase
Encoding: 8218 8218 314
Width: 648
GlyphClass: 2
Flags: W
LayerCount: 2
Fore
SplineSet
253 -350 m 1,0,1
 237 -282 237 -282 200.5 -152.5 c 128,-1,2
 164 -23 164 -23 142 69.5 c 128,-1,3
 120 162 120 162 120 208 c 0,4,5
 120 292 120 292 175 337.5 c 128,-1,6
 230 383 230 383 306 383 c 0,7,8
 384 383 384 383 442.5 335.5 c 128,-1,9
 501 288 501 288 501 206 c 0,10,11
 501 158 501 158 477.5 65 c 128,-1,12
 454 -28 454 -28 416.5 -155 c 128,-1,13
 379 -282 379 -282 363 -350 c 0,14,15
 357 -378 357 -378 341.5 -393.5 c 128,-1,16
 326 -409 326 -409 308 -409 c 0,17,18
 291 -409 291 -409 276 -394 c 128,-1,19
 261 -379 261 -379 253 -350 c 1,0,1
EndSplineSet
EndChar

StartChar: quotedblleft
Encoding: 8220 8220 315
Width: 1339
GlyphClass: 2
Flags: W
LayerCount: 2
Fore
SplineSet
1171 1187 m 0,0,1
 1171 1093 1171 1093 1110.5 1040 c 128,-1,2
 1050 987 1050 987 967 987 c 0,3,4
 864 987 864 987 810.5 1055 c 128,-1,5
 757 1123 757 1123 757 1227 c 0,6,7
 757 1297 757 1297 780.5 1367.5 c 128,-1,8
 804 1438 804 1438 847 1497 c 128,-1,9
 890 1556 890 1556 957.5 1593 c 128,-1,10
 1025 1630 1025 1630 1104 1630 c 0,11,12
 1126 1630 1126 1630 1148 1627 c 1,13,-1
 1148 1518 l 1,14,15
 1085 1517 1085 1517 1040.5 1484.5 c 128,-1,16
 996 1452 996 1452 992 1396 c 1,17,18
 1067 1388 1067 1388 1119 1333.5 c 128,-1,19
 1171 1279 1171 1279 1171 1187 c 0,0,1
668 1187 m 0,20,21
 668 1093 668 1093 607.5 1040 c 128,-1,22
 547 987 547 987 464 987 c 0,23,24
 361 987 361 987 307.5 1055 c 128,-1,25
 254 1123 254 1123 254 1227 c 0,26,27
 254 1297 254 1297 277.5 1367.5 c 128,-1,28
 301 1438 301 1438 344 1497 c 128,-1,29
 387 1556 387 1556 454.5 1593 c 128,-1,30
 522 1630 522 1630 601 1630 c 0,31,32
 622 1630 622 1630 645 1627 c 1,33,-1
 645 1518 l 1,34,35
 582 1517 582 1517 537.5 1484.5 c 128,-1,36
 493 1452 493 1452 489 1396 c 1,37,38
 564 1388 564 1388 616 1333.5 c 128,-1,39
 668 1279 668 1279 668 1187 c 0,20,21
EndSplineSet
EndChar

StartChar: quotedblright
Encoding: 8221 8221 316
Width: 1327
GlyphClass: 2
Flags: W
LayerCount: 2
Fore
SplineSet
254 1430 m 0,0,1
 254 1524 254 1524 314.5 1577 c 128,-1,2
 375 1630 375 1630 458 1630 c 0,3,4
 561 1630 561 1630 614.5 1562 c 128,-1,5
 668 1494 668 1494 668 1390 c 0,6,7
 668 1320 668 1320 644.5 1249.5 c 128,-1,8
 621 1179 621 1179 578 1120 c 128,-1,9
 535 1061 535 1061 467.5 1024 c 128,-1,10
 400 987 400 987 321 987 c 0,11,12
 300 987 300 987 277 990 c 1,13,-1
 277 1099 l 1,14,15
 340 1100 340 1100 384.5 1132.5 c 128,-1,16
 429 1165 429 1165 433 1221 c 1,17,18
 358 1229 358 1229 306 1283.5 c 128,-1,19
 254 1338 254 1338 254 1430 c 0,0,1
757 1430 m 0,20,21
 757 1524 757 1524 817.5 1577 c 128,-1,22
 878 1630 878 1630 961 1630 c 0,23,24
 1064 1630 1064 1630 1117.5 1562 c 128,-1,25
 1171 1494 1171 1494 1171 1390 c 0,26,27
 1171 1320 1171 1320 1147.5 1249.5 c 128,-1,28
 1124 1179 1124 1179 1081 1120 c 128,-1,29
 1038 1061 1038 1061 970.5 1024 c 128,-1,30
 903 987 903 987 824 987 c 0,31,32
 802 987 802 987 780 990 c 1,33,-1
 780 1099 l 1,34,35
 843 1100 843 1100 887.5 1132.5 c 128,-1,36
 932 1165 932 1165 936 1221 c 1,37,38
 861 1229 861 1229 809 1283.5 c 128,-1,39
 757 1338 757 1338 757 1430 c 0,20,21
EndSplineSet
EndChar

StartChar: quotedblbase
Encoding: 8222 8222 317
Width: 1229
GlyphClass: 2
Flags: W
LayerCount: 2
Fore
SplineSet
289 -350 m 1,0,1
 273 -282 273 -282 236.5 -152.5 c 128,-1,2
 200 -23 200 -23 178 69.5 c 128,-1,3
 156 162 156 162 156 208 c 0,4,5
 156 292 156 292 211 337.5 c 128,-1,6
 266 383 266 383 342 383 c 0,7,8
 420 383 420 383 478.5 335.5 c 128,-1,9
 537 288 537 288 537 206 c 0,10,11
 537 158 537 158 513.5 65 c 128,-1,12
 490 -28 490 -28 452.5 -155 c 128,-1,13
 415 -282 415 -282 399 -350 c 0,14,15
 393 -378 393 -378 377.5 -393.5 c 128,-1,16
 362 -409 362 -409 344 -409 c 0,17,18
 327 -409 327 -409 312 -394 c 128,-1,19
 297 -379 297 -379 289 -350 c 1,0,1
786 -350 m 1,20,21
 770 -282 770 -282 733.5 -152.5 c 128,-1,22
 697 -23 697 -23 675 69.5 c 128,-1,23
 653 162 653 162 653 208 c 0,24,25
 653 292 653 292 708 337.5 c 128,-1,26
 763 383 763 383 839 383 c 0,27,28
 917 383 917 383 975.5 335.5 c 128,-1,29
 1034 288 1034 288 1034 206 c 0,30,31
 1034 158 1034 158 1010.5 65 c 128,-1,32
 987 -28 987 -28 949.5 -155 c 128,-1,33
 912 -282 912 -282 896 -350 c 0,34,35
 890 -378 890 -378 874 -393.5 c 128,-1,36
 858 -409 858 -409 841 -409 c 128,-1,37
 824 -409 824 -409 809 -394 c 128,-1,38
 794 -379 794 -379 786 -350 c 1,20,21
EndSplineSet
EndChar

StartChar: dagger
Encoding: 8224 8224 318
Width: 1061
GlyphClass: 2
Flags: W
LayerCount: 2
Fore
SplineSet
713 1458 m 0,0,1
 713 1411 713 1411 691 1344 c 128,-1,2
 669 1277 669 1277 647.5 1231 c 128,-1,3
 626 1185 626 1185 584 1103 c 1,4,5
 599 1109 599 1109 647 1127.5 c 128,-1,6
 695 1146 695 1146 719.5 1155 c 128,-1,7
 744 1164 744 1164 782.5 1176 c 128,-1,8
 821 1188 821 1188 851 1193.5 c 128,-1,9
 881 1199 881 1199 908 1199 c 0,10,11
 963 1199 963 1199 994 1157 c 128,-1,12
 1025 1115 1025 1115 1025 1058 c 0,13,14
 1025 1000 1025 1000 994 957.5 c 128,-1,15
 963 915 963 915 907 915 c 0,16,17
 881 915 881 915 853 919.5 c 128,-1,18
 825 924 825 924 784 937.5 c 128,-1,19
 743 951 743 951 725 957 c 128,-1,20
 707 963 707 963 652.5 984 c 128,-1,21
 598 1005 598 1005 592 1007 c 1,22,23
 636 772 636 772 655.5 664 c 128,-1,24
 675 556 675 556 693.5 423.5 c 128,-1,25
 712 291 712 291 712 222 c 0,26,27
 712 121 712 121 655.5 63 c 128,-1,28
 599 5 599 5 523 5 c 0,29,30
 449 5 449 5 395 61.5 c 128,-1,31
 341 118 341 118 341 220 c 0,32,33
 341 290 341 290 358.5 423.5 c 128,-1,34
 376 557 376 557 396.5 674 c 128,-1,35
 417 791 417 791 455 1002 c 1,36,37
 375 971 375 971 338 957.5 c 128,-1,38
 301 944 301 944 245.5 929.5 c 128,-1,39
 190 915 190 915 153 915 c 0,40,41
 96 915 96 915 65 956.5 c 128,-1,42
 34 998 34 998 34 1056 c 128,-1,43
 34 1114 34 1114 65.5 1156.5 c 128,-1,44
 97 1199 97 1199 152 1199 c 0,45,46
 190 1199 190 1199 246.5 1184 c 128,-1,47
 303 1169 303 1169 341 1155.5 c 128,-1,48
 379 1142 379 1142 460 1110 c 1,49,50
 402 1224 402 1224 370 1307 c 128,-1,51
 338 1390 338 1390 338 1457 c 0,52,53
 338 1538 338 1538 392.5 1582.5 c 128,-1,54
 447 1627 447 1627 523 1627 c 128,-1,55
 599 1627 599 1627 656 1582 c 128,-1,56
 713 1537 713 1537 713 1458 c 0,0,1
EndSplineSet
EndChar

StartChar: daggerdbl
Encoding: 8225 8225 319
Width: 1061
GlyphClass: 2
Flags: W
LayerCount: 2
Fore
SplineSet
455 586 m 1,0,-1
 455 1002 l 1,1,2
 375 971 375 971 338 957.5 c 128,-1,3
 301 944 301 944 245.5 929.5 c 128,-1,4
 190 915 190 915 153 915 c 0,5,6
 96 915 96 915 65 956.5 c 128,-1,7
 34 998 34 998 34 1056 c 128,-1,8
 34 1114 34 1114 65.5 1156.5 c 128,-1,9
 97 1199 97 1199 152 1199 c 0,10,11
 190 1199 190 1199 246.5 1184 c 128,-1,12
 303 1169 303 1169 341 1155.5 c 128,-1,13
 379 1142 379 1142 460 1110 c 1,14,15
 402 1224 402 1224 370 1307 c 128,-1,16
 338 1390 338 1390 338 1457 c 0,17,18
 338 1538 338 1538 392.5 1582.5 c 128,-1,19
 447 1627 447 1627 523 1627 c 128,-1,20
 599 1627 599 1627 656 1582 c 128,-1,21
 713 1537 713 1537 713 1458 c 0,22,23
 713 1411 713 1411 691 1344 c 128,-1,24
 669 1277 669 1277 647.5 1231 c 128,-1,25
 626 1185 626 1185 584 1103 c 1,26,27
 599 1109 599 1109 647 1127.5 c 128,-1,28
 695 1146 695 1146 719.5 1155 c 128,-1,29
 744 1164 744 1164 782.5 1176 c 128,-1,30
 821 1188 821 1188 851 1193.5 c 128,-1,31
 881 1199 881 1199 908 1199 c 0,32,33
 963 1199 963 1199 994 1157 c 128,-1,34
 1025 1115 1025 1115 1025 1058 c 0,35,36
 1025 1000 1025 1000 994 957.5 c 128,-1,37
 963 915 963 915 907 915 c 0,38,39
 881 915 881 915 853 919.5 c 128,-1,40
 825 924 825 924 784 937.5 c 128,-1,41
 743 951 743 951 725 957 c 128,-1,42
 707 963 707 963 652.5 984 c 128,-1,43
 598 1005 598 1005 592 1007 c 1,44,-1
 592 581 l 1,45,46
 605 586 605 586 643.5 601 c 128,-1,47
 682 616 682 616 700.5 623 c 128,-1,48
 719 630 719 630 753 641.5 c 128,-1,49
 787 653 787 653 809 658.5 c 128,-1,50
 831 664 831 664 858 668.5 c 128,-1,51
 885 673 885 673 907 673 c 0,52,53
 963 673 963 673 994 630.5 c 128,-1,54
 1025 588 1025 588 1025 530 c 0,55,56
 1025 473 1025 473 994 431 c 128,-1,57
 963 389 963 389 908 389 c 0,58,59
 881 389 881 389 851 394.5 c 128,-1,60
 821 400 821 400 782.5 412 c 128,-1,61
 744 424 744 424 719.5 433 c 128,-1,62
 695 442 695 442 647 460.5 c 128,-1,63
 599 479 599 479 584 485 c 1,64,65
 626 403 626 403 647.5 357 c 128,-1,66
 669 311 669 311 691 244 c 128,-1,67
 713 177 713 177 713 130 c 0,68,69
 713 51 713 51 656 6 c 128,-1,70
 599 -39 599 -39 523 -39 c 128,-1,71
 447 -39 447 -39 392.5 5.5 c 128,-1,72
 338 50 338 50 338 131 c 0,73,74
 338 198 338 198 370 281 c 128,-1,75
 402 364 402 364 460 478 c 1,76,77
 379 446 379 446 341 432.5 c 128,-1,78
 303 419 303 419 246.5 404 c 128,-1,79
 190 389 190 389 152 389 c 0,80,81
 97 389 97 389 65.5 431.5 c 128,-1,82
 34 474 34 474 34 532 c 128,-1,83
 34 590 34 590 65 631.5 c 128,-1,84
 96 673 96 673 153 673 c 0,85,86
 190 673 190 673 245.5 658.5 c 128,-1,87
 301 644 301 644 338 630.5 c 128,-1,88
 375 617 375 617 455 586 c 1,0,-1
EndSplineSet
EndChar

StartChar: bullet
Encoding: 8226 8226 320
Width: 1120
GlyphClass: 2
Flags: W
LayerCount: 2
Fore
SplineSet
1053 726 m 0,0,1
 1053 600 1053 600 1030 507 c 128,-1,2
 1007 414 1007 414 954 341.5 c 128,-1,3
 901 269 901 269 806.5 232 c 128,-1,4
 712 195 712 195 577 195 c 0,5,6
 430 195 430 195 331 228.5 c 128,-1,7
 232 262 232 262 175 332 c 128,-1,8
 118 402 118 402 94.5 496.5 c 128,-1,9
 71 591 71 591 71 726 c 0,10,11
 71 1009 71 1009 188 1131.5 c 128,-1,12
 305 1254 305 1254 579 1254 c 0,13,14
 830 1254 830 1254 941.5 1124.5 c 128,-1,15
 1053 995 1053 995 1053 726 c 0,0,1
EndSplineSet
EndChar

StartChar: ellipsis
Encoding: 8230 8230 321
Width: 2010
GlyphClass: 2
Flags: W
LayerCount: 2
Fore
SplineSet
136 171 m 128,-1,1
 136 270 136 270 196.5 325.5 c 128,-1,2
 257 381 257 381 340 381 c 128,-1,3
 423 381 423 381 483.5 325.5 c 128,-1,4
 544 270 544 270 544 171 c 128,-1,5
 544 72 544 72 483.5 16.5 c 128,-1,6
 423 -39 423 -39 340 -39 c 128,-1,7
 257 -39 257 -39 196.5 16.5 c 128,-1,0
 136 72 136 72 136 171 c 128,-1,1
806 171 m 128,-1,9
 806 270 806 270 866.5 325.5 c 128,-1,10
 927 381 927 381 1010 381 c 128,-1,11
 1093 381 1093 381 1153.5 325.5 c 128,-1,12
 1214 270 1214 270 1214 171 c 128,-1,13
 1214 72 1214 72 1153.5 16.5 c 128,-1,14
 1093 -39 1093 -39 1010 -39 c 128,-1,15
 927 -39 927 -39 866.5 16.5 c 128,-1,8
 806 72 806 72 806 171 c 128,-1,9
1476 171 m 128,-1,17
 1476 270 1476 270 1536.5 325.5 c 128,-1,18
 1597 381 1597 381 1680 381 c 128,-1,19
 1763 381 1763 381 1823.5 325.5 c 128,-1,20
 1884 270 1884 270 1884 171 c 128,-1,21
 1884 72 1884 72 1823.5 16.5 c 128,-1,22
 1763 -39 1763 -39 1680 -39 c 128,-1,23
 1597 -39 1597 -39 1536.5 16.5 c 128,-1,16
 1476 72 1476 72 1476 171 c 128,-1,17
EndSplineSet
EndChar

StartChar: guilsinglleft
Encoding: 8249 8249 322
Width: 1036
GlyphClass: 2
Flags: W
LayerCount: 2
Fore
SplineSet
760 213 m 2,0,-1
 234 593 l 2,1,2
 190 624 190 624 167 673 c 128,-1,3
 144 722 144 722 144 775 c 0,4,5
 145 830 145 830 168.5 880 c 128,-1,6
 192 930 192 930 234 961 c 2,7,-1
 760 1341 l 2,8,9
 792 1364 792 1364 826 1364 c 128,-1,10
 860 1364 860 1364 883 1339 c 128,-1,11
 906 1314 906 1314 906 1278 c 0,12,13
 906 1241 906 1241 882 1209 c 2,14,-1
 548 777 l 1,15,-1
 882 345 l 2,16,17
 904 317 904 317 904 277 c 0,18,19
 904 241 904 241 881 215.5 c 128,-1,20
 858 190 858 190 824 190 c 0,21,22
 791 190 791 190 760 213 c 2,0,-1
EndSplineSet
EndChar

StartChar: guilsinglright
Encoding: 8250 8250 323
Width: 1034
GlyphClass: 2
Flags: W
LayerCount: 2
Fore
SplineSet
816 593 m 2,0,-1
 290 213 l 2,1,2
 259 190 259 190 226 190 c 0,3,4
 192 190 192 190 169 215.5 c 128,-1,5
 146 241 146 241 146 277 c 0,6,7
 146 317 146 317 168 345 c 2,8,-1
 502 777 l 1,9,-1
 168 1209 l 2,10,11
 144 1241 144 1241 144 1278 c 0,12,13
 144 1314 144 1314 167 1339 c 128,-1,14
 190 1364 190 1364 224 1364 c 128,-1,15
 258 1364 258 1364 290 1341 c 2,16,-1
 816 961 l 2,17,18
 858 930 858 930 881.5 880 c 128,-1,19
 905 830 905 830 906 775 c 0,20,21
 906 722 906 722 883 673 c 128,-1,22
 860 624 860 624 816 593 c 2,0,-1
EndSplineSet
EndChar

StartChar: uni2074
Encoding: 8308 8308 324
Width: 1298
GlyphClass: 2
Flags: W
LayerCount: 2
Fore
SplineSet
1096 130 m 1,0,-1
 737 130 l 1,1,-1
 737 291 l 1,2,-1
 221 291 l 1,3,-1
 221 571 l 1,4,-1
 391 1172 l 1,5,-1
 776 1172 l 1,6,-1
 607 571 l 1,7,-1
 607 535 l 1,8,-1
 737 535 l 1,9,-1
 737 760 l 1,10,-1
 1096 760 l 1,11,-1
 1096 130 l 1,0,-1
EndSplineSet
EndChar

StartChar: Euro
Encoding: 8364 8364 325
Width: 1432
GlyphClass: 2
Flags: W
LayerCount: 2
Fore
SplineSet
0 705 m 1,0,-1
 90 705 l 1,1,-1
 90 843 l 1,2,-1
 0 843 l 1,3,-1
 0 987 l 1,4,-1
 90 987 l 1,5,-1
 90 1226 l 2,6,7
 90 1303 90 1303 113.5 1365.5 c 128,-1,8
 137 1428 137 1428 174.5 1469.5 c 128,-1,9
 212 1511 212 1511 269 1542 c 128,-1,10
 326 1573 326 1573 383.5 1589.5 c 128,-1,11
 441 1606 441 1606 515.5 1616 c 128,-1,12
 590 1626 590 1626 649.5 1629 c 128,-1,13
 709 1632 709 1632 783 1632 c 0,14,15
 862 1632 862 1632 921 1629.5 c 128,-1,16
 980 1627 980 1627 1056 1617.5 c 128,-1,17
 1132 1608 1132 1608 1187 1592 c 128,-1,18
 1242 1576 1242 1576 1299 1545.5 c 128,-1,19
 1356 1515 1356 1515 1391.5 1473 c 128,-1,20
 1427 1431 1427 1431 1449.5 1368.5 c 128,-1,21
 1472 1306 1472 1306 1472 1227 c 2,22,-1
 1472 1139 l 1,23,-1
 868 1139 l 1,24,-1
 868 1356 l 1,25,-1
 695 1356 l 1,26,-1
 695 988 l 1,27,-1
 1037 988 l 1,28,-1
 1037 843 l 1,29,-1
 695 843 l 1,30,-1
 695 706 l 1,31,-1
 1037 706 l 1,32,-1
 1037 561 l 1,33,-1
 695 561 l 1,34,-1
 695 233 l 1,35,-1
 868 233 l 1,36,-1
 868 451 l 1,37,-1
 1472 451 l 1,38,-1
 1472 369 l 2,39,40
 1472 291 1472 291 1449 228.5 c 128,-1,41
 1426 166 1426 166 1389.5 124 c 128,-1,42
 1353 82 1353 82 1297 51 c 128,-1,43
 1241 20 1241 20 1184.5 3 c 128,-1,44
 1128 -14 1128 -14 1054 -24 c 128,-1,45
 980 -34 980 -34 920.5 -37 c 128,-1,46
 861 -40 861 -40 786 -40 c 0,47,48
 717 -40 717 -40 660 -37.5 c 128,-1,49
 603 -35 603 -35 528.5 -25 c 128,-1,50
 454 -15 454 -15 396 2 c 128,-1,51
 338 19 338 19 278 50 c 128,-1,52
 218 81 218 81 179 123 c 128,-1,53
 140 165 140 165 115 228 c 128,-1,54
 90 291 90 291 90 370 c 2,55,-1
 90 561 l 1,56,-1
 0 561 l 1,57,-1
 0 705 l 1,0,-1
EndSplineSet
EndChar

StartChar: trademark
Encoding: 8482 8482 326
Width: 1884
GlyphClass: 2
Flags: W
LayerCount: 2
Fore
SplineSet
745 1595 m 1,0,-1
 745 1453 l 1,1,-1
 582 1453 l 1,2,-1
 582 657 l 1,3,-1
 209 657 l 1,4,-1
 209 1453 l 1,5,-1
 47 1453 l 1,6,-1
 47 1595 l 1,7,-1
 745 1595 l 1,0,-1
1238 657 m 1,8,-1
 1160 951 l 1,9,-1
 1160 657 l 1,10,-1
 789 657 l 1,11,-1
 789 1595 l 1,12,-1
 1223 1595 l 1,13,-1
 1291 1158 l 1,14,-1
 1351 1595 l 1,15,-1
 1791 1595 l 1,16,-1
 1791 657 l 1,17,-1
 1421 657 l 1,18,-1
 1421 951 l 1,19,-1
 1342 657 l 1,20,-1
 1238 657 l 1,8,-1
EndSplineSet
EndChar

StartChar: glyph327
Encoding: 65539 -1 327
Width: 706
GlyphClass: 2
Flags: W
LayerCount: 2
Fore
SplineSet
157 -295 m 0,0,1
 157 -201 157 -201 217.5 -148 c 128,-1,2
 278 -95 278 -95 361 -95 c 0,3,4
 464 -95 464 -95 517.5 -163 c 128,-1,5
 571 -231 571 -231 571 -335 c 0,6,7
 571 -405 571 -405 547.5 -475.5 c 128,-1,8
 524 -546 524 -546 481 -605 c 128,-1,9
 438 -664 438 -664 370.5 -701 c 128,-1,10
 303 -738 303 -738 224 -738 c 0,11,12
 202 -738 202 -738 180 -735 c 1,13,-1
 180 -626 l 1,14,15
 243 -625 243 -625 287.5 -592.5 c 128,-1,16
 332 -560 332 -560 336 -504 c 1,17,18
 261 -496 261 -496 209 -441.5 c 128,-1,19
 157 -387 157 -387 157 -295 c 0,0,1
EndSplineSet
EndChar

StartChar: glyph328
Encoding: 65540 -1 328
Width: 380
GlyphClass: 2
Flags: W
LayerCount: 2
Fore
SplineSet
-17 -295 m 0,0,1
 -17 -201 -17 -201 43.5 -148 c 128,-1,2
 104 -95 104 -95 187 -95 c 0,3,4
 290 -95 290 -95 343.5 -163 c 128,-1,5
 397 -231 397 -231 397 -335 c 0,6,7
 397 -405 397 -405 373.5 -475.5 c 128,-1,8
 350 -546 350 -546 307 -605 c 128,-1,9
 264 -664 264 -664 196.5 -701 c 128,-1,10
 129 -738 129 -738 50 -738 c 0,11,12
 28 -738 28 -738 6 -735 c 1,13,-1
 6 -626 l 1,14,15
 69 -625 69 -625 113.5 -592.5 c 128,-1,16
 158 -560 158 -560 162 -504 c 1,17,18
 87 -496 87 -496 35 -441.5 c 128,-1,19
 -17 -387 -17 -387 -17 -295 c 0,0,1
EndSplineSet
EndChar

StartChar: glyph329
Encoding: 65541 -1 329
Width: 1342
GlyphClass: 2
Flags: W
LayerCount: 2
Fore
SplineSet
628 613 m 1,0,-1
 645 267 l 1,1,-1
 694 267 l 1,2,-1
 711 613 l 1,3,-1
 781 1300 l 1,4,-1
 1333 1300 l 1,5,-1
 933 -26 l 2,6,7
 876 -215 876 -215 750.5 -307.5 c 128,-1,8
 625 -400 625 -400 407 -400 c 0,9,10
 300 -400 300 -400 172 -378 c 1,11,-1
 135 -73 l 1,12,13
 229 -95 229 -95 288 -95 c 0,14,15
 342 -95 342 -95 366.5 -75 c 128,-1,16
 391 -55 391 -55 391 -14 c 0,17,18
 391 22 391 22 370 90 c 2,19,-1
 10 1300 l 1,20,-1
 563 1300 l 1,21,-1
 628 613 l 1,0,-1
EndSplineSet
EndChar
